<svg width="129" height="129" viewBox="0 0 129 129" fill="none" xmlns="http://www.w3.org/2000/svg">
<circle cx="64.5" cy="64.5" r="64.5" fill="#FDE9EB"/>
<path d="M51 66C43.28 66 37 71.3828 37 78C37.0175 79.5815 37.3742 81.1409 38.0459 82.5727C38.7177 84.0046 39.6889 85.2756 40.894 86.3C40.7694 87.7606 40.212 89.1509 39.293 90.293C39.136 90.4495 39.0354 90.6539 39.0073 90.8738C38.9791 91.0938 39.0249 91.3168 39.1374 91.5079C39.25 91.699 39.4229 91.8472 39.6289 91.9292C39.8349 92.0112 40.0623 92.0223 40.2754 91.9609C42.399 91.3114 44.4428 90.425 46.3682 89.3184C47.8705 89.771 49.431 90.0006 51 90C58.72 90 65 84.6172 65 78C65 71.3828 58.72 66 51 66ZM51 88C49.4901 88.0007 47.99 87.7576 46.5576 87.28C46.4194 87.2327 46.2725 87.2168 46.1274 87.2333C45.9823 87.2499 45.8428 87.2985 45.7188 87.3757C44.6146 88.042 43.4613 88.6231 42.2688 89.114C42.6222 88.1013 42.8489 87.0486 42.9436 85.9802C42.959 85.8173 42.9342 85.6531 42.8713 85.5021C42.8084 85.351 42.7093 85.2178 42.5828 85.114C41.4902 84.2729 40.6009 83.1968 39.9807 81.9653C39.3605 80.7338 39.0253 79.3786 39 78C39 72.4863 44.3833 68 51 68C57.6167 68 63 72.4863 63 78C63 83.5137 57.6167 88 51 88ZM89.106 56.3C90.3111 55.2756 91.2823 54.0046 91.9541 52.5727C92.6258 51.1409 92.9825 49.5815 93 48C93 41.3828 86.72 36 79 36C71.28 36 65 41.3828 65 48C65 54.6172 71.28 60 79 60C80.569 60.0006 82.1295 59.771 83.6318 59.3184C85.5572 60.425 87.601 61.3114 89.7246 61.9609C89.9375 62.0217 90.1646 62.0101 90.3702 61.9279C90.5758 61.8457 90.7484 61.6976 90.8607 61.5068C90.9731 61.316 91.019 61.0933 90.9912 60.8737C90.9633 60.654 90.8634 60.4498 90.707 60.293C89.788 59.1509 89.2306 57.7606 89.106 56.3ZM87.731 59.1145C86.5385 58.6236 85.3851 58.0425 84.281 57.3762C84.1238 57.2797 83.943 57.2286 83.7585 57.2287C83.6509 57.2284 83.544 57.2459 83.4421 57.2805C82.0098 57.7579 80.5098 58.0009 79 58C72.3833 58 67 53.5137 67 48C67 42.4863 72.3833 38 79 38C85.6167 38 91 42.4863 91 48C90.9747 49.3787 90.6395 50.734 90.0193 51.9655C89.399 53.197 88.5096 54.2732 87.417 55.1143C87.2905 55.2181 87.1914 55.3513 87.1285 55.5024C87.0656 55.6534 87.0408 55.8176 87.0562 55.9805C87.1509 57.0489 87.3776 58.1018 87.731 59.1145ZM51.9287 72.6289C51.8545 72.4432 51.7264 72.284 51.5609 72.1718C51.3953 72.0597 51.2 71.9997 51 71.9997C50.8 71.9997 50.6047 72.0597 50.4391 72.1718C50.2736 72.284 50.1455 72.4432 50.0713 72.6289L46.0713 82.6289C46.0226 82.7509 45.9983 82.8812 46 83.0125C46.0016 83.1439 46.0291 83.2736 46.0809 83.3943C46.1327 83.515 46.2077 83.6243 46.3018 83.716C46.3958 83.8077 46.5069 83.88 46.6289 83.9287C46.7509 83.9774 46.8812 84.0017 47.0125 84C47.1439 83.9984 47.2736 83.9709 47.3943 83.9191C47.515 83.8673 47.6243 83.7923 47.716 83.6982C47.8077 83.6042 47.88 83.4931 47.9287 83.3711L48.8771 81H53.1229L54.0713 83.3711C54.12 83.4931 54.1923 83.6042 54.284 83.6982C54.3757 83.7923 54.485 83.8673 54.6057 83.9191C54.7264 83.9709 54.8561 83.9984 54.9875 84C55.1188 84.0017 55.2491 83.9774 55.3711 83.9287C55.4931 83.88 55.6042 83.8077 55.6982 83.716C55.7923 83.6243 55.8673 83.515 55.9191 83.3943C55.9709 83.2736 55.9984 83.1439 56 83.0125C56.0017 82.8812 55.9774 82.7509 55.9287 82.6289L51.9287 72.6289ZM49.6771 79L51 75.6924L52.3229 79H49.6771ZM82.5356 67.1211C82.6308 67.2134 82.7067 67.3238 82.7588 67.4457C82.8109 67.5676 82.8383 67.6987 82.8393 67.8313C82.8403 67.9639 82.815 68.0953 82.7647 68.218C82.7144 68.3407 82.6402 68.4522 82.5465 68.546C82.4527 68.6398 82.3413 68.7139 82.2186 68.7642C82.0959 68.8145 81.9644 68.8399 81.8318 68.8389C81.6992 68.8379 81.5681 68.8105 81.4462 68.7584C81.3243 68.7062 81.2139 68.6304 81.1216 68.5352L80 67.4138V75C79.9984 76.3256 79.4712 77.5965 78.5338 78.5338C77.5965 79.4712 76.3256 79.9984 75 80H68C67.7348 80 67.4804 79.8946 67.2929 79.7071C67.1054 79.5196 67 79.2652 67 79C67 78.7348 67.1054 78.4804 67.2929 78.2929C67.4804 78.1054 67.7348 78 68 78H75C75.7954 77.9991 76.5579 77.6828 77.1204 77.1204C77.6828 76.5579 77.9991 75.7954 78 75V67.4138L76.8784 68.5352C76.6899 68.718 76.4371 68.8194 76.1745 68.8174C75.9119 68.8154 75.6607 68.7102 75.475 68.5245C75.2894 68.3388 75.1842 68.0875 75.1822 67.825C75.1802 67.5624 75.2816 67.3096 75.4644 67.1211L78.293 64.293C78.3858 64.2001 78.496 64.1264 78.6173 64.0761C78.7387 64.0258 78.8687 64 79 64C79.1313 64 79.2613 64.0258 79.3827 64.0761C79.504 64.1264 79.6142 64.2001 79.707 64.293L82.5356 67.1211ZM47.4644 60.8789C47.3692 60.7866 47.2933 60.6762 47.2412 60.5543C47.1891 60.4324 47.1617 60.3013 47.1607 60.1687C47.1597 60.0361 47.185 59.9047 47.2353 59.782C47.2856 59.6593 47.3598 59.5478 47.4535 59.454C47.5473 59.3602 47.6587 59.2861 47.7814 59.2358C47.9041 59.1855 48.0356 59.1601 48.1682 59.1611C48.3008 59.1621 48.4319 59.1895 48.5538 59.2416C48.6757 59.2938 48.7861 59.3696 48.8784 59.4648L50 60.5862V53C50.0016 51.6744 50.5288 50.4035 51.4662 49.4662C52.4035 48.5288 53.6744 48.0016 55 48H62C62.2652 48 62.5196 48.1054 62.7071 48.2929C62.8946 48.4804 63 48.7348 63 49C63 49.2652 62.8946 49.5196 62.7071 49.7071C62.5196 49.8946 62.2652 50 62 50H55C54.2046 50.0009 53.4421 50.3172 52.8796 50.8796C52.3172 51.4421 52.0009 52.2046 52 53V60.5862L53.1216 59.4648C53.2139 59.3696 53.3243 59.2938 53.4462 59.2416C53.5681 59.1895 53.6992 59.1621 53.8318 59.1611C53.9644 59.1601 54.0959 59.1855 54.2186 59.2358C54.3413 59.2861 54.4527 59.3602 54.5465 59.454C54.6402 59.5478 54.7144 59.6593 54.7647 59.782C54.815 59.9047 54.8403 60.0361 54.8393 60.1687C54.8383 60.3013 54.8109 60.4324 54.7588 60.5543C54.7067 60.6762 54.6308 60.7866 54.5356 60.8789L51.707 63.707C51.6142 63.7999 51.504 63.8736 51.3827 63.9238C51.2613 63.9741 51.1313 64 51 64C50.8687 64 50.7387 63.9741 50.6173 63.9238C50.496 63.8736 50.3858 63.7999 50.293 63.707L47.4644 60.8789ZM84 44H80V43C80 42.7348 79.8946 42.4804 79.7071 42.2929C79.5196 42.1054 79.2652 42 79 42C78.7348 42 78.4804 42.1054 78.2929 42.2929C78.1054 42.4804 78 42.7348 78 43V44H74C73.7348 44 73.4804 44.1054 73.2929 44.2929C73.1054 44.4804 73 44.7348 73 45C73 45.2652 73.1054 45.5196 73.2929 45.7071C73.4804 45.8946 73.7348 46 74 46H75.2145C75.6891 47.6378 76.4932 49.1614 77.5775 50.4774C76.7149 51.1712 75.7347 51.7045 74.6836 52.0518C74.5556 52.0905 74.4367 52.1545 74.3338 52.2399C74.231 52.3254 74.1464 52.4306 74.0849 52.5494C74.0235 52.6682 73.9864 52.798 73.9761 52.9313C73.9657 53.0646 73.9821 53.1987 74.0245 53.3255C74.0668 53.4524 74.1341 53.5694 74.2225 53.6698C74.3108 53.7701 74.4184 53.8518 74.5389 53.9098C74.6593 53.9679 74.7902 54.0012 74.9237 54.0078C75.0573 54.0144 75.1908 53.9941 75.3164 53.9482C76.6628 53.505 77.9128 52.8101 79 51.9005C80.0872 52.8101 81.3372 53.505 82.6836 53.9482C82.8092 53.9941 82.9427 54.0144 83.0763 54.0078C83.2098 54.0012 83.3407 53.9679 83.4611 53.9098C83.5816 53.8518 83.6892 53.7701 83.7775 53.6698C83.8659 53.5694 83.9332 53.4524 83.9755 53.3255C84.0179 53.1987 84.0343 53.0646 84.0239 52.9313C84.0136 52.798 83.9765 52.6682 83.9151 52.5494C83.8536 52.4306 83.769 52.3254 83.6662 52.2399C83.5633 52.1545 83.4444 52.0905 83.3164 52.0518C82.2653 51.7045 81.2851 51.1712 80.4225 50.4774C81.5068 49.1614 82.3109 47.6378 82.7855 46H84C84.2652 46 84.5196 45.8946 84.7071 45.7071C84.8946 45.5196 85 45.2652 85 45C85 44.7348 84.8946 44.4804 84.7071 44.2929C84.5196 44.1054 84.2652 44 84 44ZM79 49.0676C78.2663 48.1487 77.6947 47.1112 77.31 46H80.69C80.3052 47.1112 79.7337 48.1486 79 49.0676Z" fill="#EB3D50"/>
</svg>
