<svg width="129" height="129" viewBox="0 0 129 129" fill="none" xmlns="http://www.w3.org/2000/svg">
<circle cx="64.5" cy="64.5" r="64.5" fill="#E1EDFF"/>
<path d="M49.79 47.0006H54.8315C55.2484 52.8513 59.3041 57.0006 64.79 57.0006C70.276 57.0006 74.3317 52.8513 74.7486 47.0006H79.79C79.9999 47.0006 80.2045 46.9346 80.3747 46.8119C80.545 46.6892 80.6724 46.5161 80.7388 46.317C80.8051 46.1179 80.8072 45.9029 80.7446 45.7026C80.6821 45.5023 80.558 45.3267 80.3901 45.2008L72.6958 39.4303L71.7705 34.8043C71.7206 34.5492 71.5728 34.3237 71.3589 34.1761C71.1449 34.0285 70.8817 33.9704 70.6255 34.0143L64.79 34.9869L58.9546 34.0143C58.6984 33.9707 58.4353 34.0288 58.2214 34.1764C58.0075 34.324 57.8598 34.5493 57.8096 34.8043L56.8843 39.4303L49.1899 45.2008C49.022 45.3267 48.898 45.5023 48.8354 45.7026C48.7728 45.9029 48.7749 46.1179 48.8413 46.317C48.9077 46.5161 49.035 46.6892 49.2053 46.8119C49.3756 46.9346 49.5801 47.0006 49.79 47.0006ZM64.79 55.0006C60.4565 55.0006 57.2339 51.692 56.832 47.0006H72.748C72.3462 51.692 69.1235 55.0006 64.79 55.0006ZM58.3901 40.8004C58.5869 40.6529 58.7223 40.438 58.7705 40.1969L59.5806 36.1461L64.6255 36.9869C64.7345 37.0045 64.8456 37.0045 64.9546 36.9869L69.9995 36.1461L70.8096 40.1969C70.8578 40.438 70.9932 40.6529 71.1899 40.8004L76.79 45.0006H52.79L58.3901 40.8004Z" fill="#5796E0"/>
<path d="M89.2114 60.2252C89.0962 60.1316 88.9617 60.0647 88.8176 60.0294C88.6735 59.9941 88.5233 59.9913 88.3779 60.0211L75.9804 62.5849L73.5898 59.4C73.5093 59.2927 73.4079 59.2027 73.2918 59.1354C73.1757 59.0681 73.0472 59.0249 72.914 59.0084L64.914 58.0084C64.8316 57.9987 64.7484 57.9987 64.666 58.0084L56.666 59.0084C56.5328 59.0249 56.4043 59.0681 56.2882 59.1354C56.1721 59.2027 56.0708 59.2927 55.9902 59.4L53.5996 62.5849L41.2021 60.0211C41.0567 59.9912 40.9065 59.994 40.7623 60.0293C40.6181 60.0646 40.4835 60.1316 40.3684 60.2254C40.2534 60.3192 40.1606 60.4374 40.0969 60.5715C40.0331 60.7056 40 60.8521 40 61.0006V88.0807C40 88.3107 40.0793 88.5338 40.2246 88.7122C40.3698 88.8906 40.5721 89.0135 40.7974 89.0602L64.5874 93.9801C64.7211 94.0074 64.8589 94.0074 64.9926 93.9801L88.7826 89.0602C89.0079 89.0135 89.2102 88.8906 89.3554 88.7122C89.5007 88.5338 89.58 88.3107 89.58 88.0807V61.0006C89.5801 60.8521 89.547 60.7054 89.4833 60.5713C89.4195 60.4371 89.3266 60.3189 89.2114 60.2252ZM57.3349 60.9401L64.79 60.0084L72.2451 60.9401L73.8144 63.0309L64.79 64.899L55.7656 63.0309L57.3349 60.9401ZM42 62.2281L63.79 66.735V91.7731L42 87.2662V62.2281ZM87.58 87.2662L65.79 91.7731V66.735L87.58 62.2281V87.2662Z" fill="#5796E0"/>
<path d="M74.79 85.0006C74.9213 85.0006 75.0514 84.9748 75.1727 84.9246C75.2941 84.8743 75.4043 84.8007 75.4972 84.7078C75.5901 84.6149 75.6637 84.5047 75.714 84.3833C75.7642 84.262 75.79 84.1319 75.79 84.0006V75.0006C75.79 74.7354 75.6847 74.481 75.4971 74.2935C75.3096 74.106 75.0552 74.0006 74.79 74.0006C74.5248 74.0006 74.2704 74.106 74.0829 74.2935C73.8954 74.481 73.79 74.7354 73.79 75.0006V84.0006C73.79 84.1319 73.8158 84.262 73.8661 84.3833C73.9163 84.5047 73.99 84.6149 74.0828 84.7078C74.1757 84.8007 74.2859 84.8743 74.4073 84.9246C74.5286 84.9748 74.6587 85.0006 74.79 85.0006Z" fill="#5796E0"/>
<path d="M81.79 81.0006C81.9213 81.0006 82.0514 80.9748 82.1727 80.9246C82.2941 80.8743 82.4043 80.8007 82.4972 80.7078C82.5901 80.6149 82.6637 80.5047 82.714 80.3833C82.7642 80.262 82.79 80.1319 82.79 80.0006V71.0006C82.79 70.7354 82.6847 70.481 82.4971 70.2935C82.3096 70.106 82.0552 70.0006 81.79 70.0006C81.5248 70.0006 81.2704 70.106 81.0829 70.2935C80.8954 70.481 80.79 70.7354 80.79 71.0006V80.0006C80.79 80.1319 80.8158 80.262 80.8661 80.3833C80.9163 80.5047 80.99 80.6149 81.0828 80.7078C81.1757 80.8007 81.2859 80.8743 81.4073 80.9246C81.5286 80.9748 81.6587 81.0006 81.79 81.0006Z" fill="#5796E0"/>
<path d="M54.79 74.0006C54.6587 74.0006 54.5286 74.0264 54.4073 74.0767C54.2859 74.1269 54.1757 74.2006 54.0828 74.2934C53.99 74.3863 53.9163 74.4965 53.8661 74.6179C53.8158 74.7392 53.79 74.8693 53.79 75.0006V84.0006C53.79 84.2658 53.8954 84.5202 54.0829 84.7077C54.2704 84.8953 54.5248 85.0006 54.79 85.0006C55.0552 85.0006 55.3096 84.8953 55.4971 84.7077C55.6847 84.5202 55.79 84.2658 55.79 84.0006V75.0006C55.79 74.8693 55.7642 74.7392 55.714 74.6179C55.6637 74.4965 55.5901 74.3863 55.4972 74.2934C55.4043 74.2006 55.2941 74.1269 55.1727 74.0767C55.0514 74.0264 54.9213 74.0006 54.79 74.0006Z" fill="#5796E0"/>
<path d="M47.79 70.0006C47.6587 70.0006 47.5286 70.0264 47.4073 70.0767C47.2859 70.1269 47.1757 70.2006 47.0828 70.2934C46.99 70.3863 46.9163 70.4965 46.8661 70.6179C46.8158 70.7392 46.79 70.8693 46.79 71.0006V80.0006C46.79 80.2658 46.8954 80.5202 47.0829 80.7077C47.2704 80.8953 47.5248 81.0006 47.79 81.0006C48.0552 81.0006 48.3096 80.8953 48.4971 80.7077C48.6847 80.5202 48.79 80.2658 48.79 80.0006V71.0006C48.79 70.8693 48.7642 70.7392 48.714 70.6179C48.6637 70.4965 48.5901 70.3863 48.4972 70.2934C48.4043 70.2006 48.2941 70.1269 48.1727 70.0767C48.0514 70.0264 47.9213 70.0006 47.79 70.0006Z" fill="#5796E0"/>
</svg>
