<svg width="129" height="129" viewBox="0 0 129 129" fill="none" xmlns="http://www.w3.org/2000/svg">
<circle cx="64.5" cy="64.5" r="64.5" fill="#F8E7FA"/>
<path d="M62.2613 71.5558H66.3612C66.8254 71.5558 67.1348 71.2464 67.1348 70.7822C67.1348 70.3181 66.8254 70.0087 66.3612 70.0087H62.3387C61.8746 70.0087 61.5651 70.3181 61.5651 70.7822C61.5651 71.2464 61.8746 71.5558 62.2613 71.5558Z" fill="#C53DCF"/>
<path d="M88.021 71.169C83.2249 71.169 79.3571 75.0368 79.3571 79.8329C79.3571 84.629 83.2249 88.4969 88.021 88.4969C92.8171 88.4969 96.685 84.629 96.685 79.8329C96.685 79.0594 96.6076 78.2858 96.3755 77.5122C95.3699 73.7991 91.9662 71.169 88.021 71.169ZM88.021 87.0271C84.0759 87.0271 80.9042 83.8555 80.9042 79.9103C80.9042 75.9651 84.0759 72.7161 88.021 72.7161C91.27 72.7161 94.0548 74.8821 94.9058 77.9764C95.0605 78.5952 95.1378 79.2141 95.1378 79.8329C95.1378 83.8555 91.9662 87.0271 88.021 87.0271Z" fill="#C53DCF"/>
<path d="M88.021 77.1255C86.4738 77.1255 85.2361 78.3632 85.2361 79.9103C85.2361 81.4575 86.4738 82.6952 88.021 82.6952C89.5681 82.6952 90.8058 81.4575 90.8058 79.9103C90.8058 78.3632 89.5681 77.1255 88.021 77.1255ZM88.021 81.0707C87.3248 81.0707 86.7833 80.5292 86.7833 79.833C86.7833 79.1368 87.3248 78.5953 88.021 78.5953C88.7172 78.5953 89.2587 79.1368 89.2587 79.833C89.2587 80.5292 88.7172 81.0707 88.021 81.0707Z" fill="#C53DCF"/>
<path d="M50.8899 79.833C50.8899 79.0594 50.8126 78.2858 50.5805 77.5123C49.5749 73.7218 46.0938 71.0917 42.1487 71.0917C37.3526 71.0917 33.4847 74.9595 33.4847 79.7556C33.4847 84.5517 37.3526 88.4195 42.1487 88.4195C46.9448 88.4195 50.8899 84.7064 50.8899 79.833ZM42.226 87.0271C38.2808 87.0271 35.1092 83.8555 35.1092 79.9103C35.1092 75.9651 38.2808 72.7935 42.226 72.7935C45.475 72.7935 48.2598 74.9595 49.1107 78.0538C49.2655 78.6726 49.3428 79.2915 49.3428 79.9103C49.3428 83.7781 46.1712 87.0271 42.226 87.0271Z" fill="#C53DCF"/>
<path d="M42.226 77.1255C40.6789 77.1255 39.4412 78.3632 39.4412 79.9103C39.4412 81.4575 40.6789 82.6952 42.226 82.6952C43.7731 82.6952 45.0108 81.4575 45.0108 79.9103C45.0108 78.3632 43.6958 77.1255 42.226 77.1255ZM42.226 81.0707C41.5298 81.0707 40.9883 80.5292 40.9883 79.833C40.9883 79.1368 41.5298 78.5953 42.226 78.5953C42.9222 78.5953 43.4637 79.1368 43.4637 79.833C43.4637 80.5292 42.8448 81.0707 42.226 81.0707Z" fill="#C53DCF"/>
<path d="M31.3961 74.9595L36.811 68.0748H46.9447L54.1389 76.3519C54.2162 76.4293 54.2936 76.4293 54.371 76.5066C54.371 76.5066 54.371 76.5066 54.4483 76.5066C54.5257 76.584 54.6804 76.584 54.7577 76.584H76.4175H76.4949H76.5723C76.8043 76.584 77.0364 76.4293 77.1911 76.2745L82.6061 68.0748H92.6624L96.3755 73.7218C96.4529 73.7991 96.4529 73.8765 96.5302 73.8765C96.6849 74.1086 96.917 74.2633 97.2264 74.2633C97.6906 74.2633 98 73.9539 98 73.4897V42.5471C98 41.6962 97.3038 41 96.4529 41H57.0784C56.2275 41 55.5313 41.6962 55.5313 42.5471V55.6977H33.0979C32.247 55.6977 31.5508 56.3939 31.5508 57.2449V72.0199C31.5508 72.0973 31.5508 72.0973 31.5508 72.1747L30.1584 73.9539C29.9263 74.2633 29.9263 74.8048 30.3131 75.0368C30.6225 75.3463 31.0867 75.2689 31.3961 74.9595ZM71.0026 42.5471H96.5302V58.0184H71.0026V42.5471ZM69.4555 42.5471V58.0184H57.0784V42.5471H69.4555ZM33.0979 57.2449H55.5313V72.4067C55.5313 72.8709 55.8407 73.1803 56.3049 73.1803C56.769 73.1803 57.0784 72.8709 57.0784 72.4067V59.5656H96.5302V71.0143L93.8227 66.9144C93.668 66.6823 93.436 66.5276 93.1265 66.5276H82.2966C82.0646 66.5276 81.8325 66.6823 81.6778 66.8371L76.2628 75.0368H55.1445L47.9504 66.7597C47.7957 66.605 47.5636 66.5276 47.3315 66.5276H36.5016C36.2695 66.5276 36.0375 66.605 35.8828 66.8371L33.0979 70.2407V57.2449Z" fill="#C53DCF"/>
<path d="M88.4078 46.415H78.3514C77.7326 46.415 77.1911 47.0338 77.1911 47.73V52.062C77.1911 52.7582 77.7326 53.3771 78.3514 53.3771H88.3304C88.9493 53.3771 89.4908 52.7582 89.4908 52.062V47.73C89.5681 47.0338 89.0266 46.415 88.4078 46.415ZM88.021 51.8299H78.7382V47.9621H88.021V51.8299Z" fill="#C53DCF"/>
</svg>
