<svg width="129" height="129" viewBox="0 0 129 129" fill="none" xmlns="http://www.w3.org/2000/svg">
<circle cx="64.5" cy="64.5" r="64.5" fill="#FEF8DA"/>
<path fill-rule="evenodd" clip-rule="evenodd" d="M43.1256 95.6627C43.1256 94.3719 44.1752 93.3255 45.4698 93.3255H82.9771C84.2717 93.3255 85.3213 94.3719 85.3213 95.6627C85.3213 96.9535 84.2717 97.9999 82.9771 97.9999H45.4698C44.1752 97.9999 43.1256 96.9535 43.1256 95.6627Z" fill="#4CCC49"/>
<path fill-rule="evenodd" clip-rule="evenodd" d="M57.1909 61.3838C57.1909 60.093 58.2404 59.0466 59.5351 59.0466H68.9119C70.2065 59.0466 71.2561 60.093 71.2561 61.3838V95.6628C71.2561 96.9536 70.2065 98 68.9119 98H59.5351C58.2404 98 57.1909 96.9536 57.1909 95.6628V61.3838ZM61.8793 63.721V93.3256H66.5677V63.721H61.8793Z" fill="#4CCC49"/>
<path fill-rule="evenodd" clip-rule="evenodd" d="M61.8792 33.3372C61.8792 32.0464 62.9288 31 64.2234 31C77.6017 31 88.4469 41.8128 88.4469 55.1511C88.4469 66.716 80.2963 76.3773 69.412 78.7467C68.147 79.0218 66.8977 78.2228 66.6217 76.9617C66.3454 75.7005 67.1468 74.4549 68.4118 74.1798C77.1885 72.2692 83.7585 64.4722 83.7585 55.1511C83.7585 44.3944 75.0124 35.6744 64.2234 35.6744C62.9288 35.6744 61.8792 34.628 61.8792 33.3372ZM54.9554 35.2472C55.6236 36.3529 55.2663 37.7892 54.1574 38.4553C48.4782 41.8672 44.6884 48.069 44.6884 55.1511C44.6884 64.4722 51.2583 72.2692 60.0351 74.1798C61.3001 74.4549 62.1015 75.7005 61.8252 76.9617C61.5492 78.2228 60.2999 79.0218 59.0349 78.7467C48.1505 76.3773 40 66.716 40 55.1511C40 46.3631 44.7092 38.674 51.7377 34.4516C52.8466 33.7854 54.2872 34.1416 54.9554 35.2472Z" fill="#4CCC49"/>
</svg>
