<svg width="67" height="50" viewBox="0 0 67 50" fill="none" xmlns="http://www.w3.org/2000/svg">
<path d="M4.53673 50H15.1224V24.2487L0 12.8879V45.4557C0 47.9664 2.03019 50 4.53673 50Z" fill="#4285F4"/>
<path d="M51.4163 50H62.002C64.5085 50 66.5387 47.9664 66.5387 45.4557V12.8879L51.4163 24.2487V50Z" fill="#34A853"/>
<path d="M51.4163 4.55661V24.2487L66.5387 12.8879V6.82878C66.5387 1.21273 60.1381 -1.99481 55.6505 1.37557L51.4163 4.55661Z" fill="#FBBC04"/>
<path d="M15.1224 24.2487V4.55661L33.2693 18.1896L51.4163 4.55661V24.2487L33.2693 37.8818L15.1224 24.2487Z" fill="#EA4335"/>
<path d="M0 6.82875V12.8879L15.1224 24.2487V4.55658L10.8881 1.37555C6.40057 -1.99484 0 1.21271 0 6.82875Z" fill="#C5221F"/>
</svg>
