<svg width="61" height="62" viewBox="0 0 61 62" fill="none" xmlns="http://www.w3.org/2000/svg">
<path d="M52.7795 0H8.21987C3.68025 0 0 3.74043 0 8.35462V53.6451C0 58.2593 3.6801 61.9997 8.21987 61.9997H30.1965L30.2339 39.8444H24.5708C23.8349 39.8444 23.2375 39.2395 23.2347 38.4915L23.2075 31.3499C23.2047 30.5978 23.8038 29.9866 24.5438 29.9866H30.1966V23.086C30.1966 15.0779 35.0086 10.7175 42.0371 10.7175H47.8045C48.5424 10.7175 49.1408 11.3255 49.1408 12.0756V18.0975C49.1408 18.8473 48.5428 19.4552 47.8052 19.4557L44.2658 19.4573C40.4435 19.4573 39.7034 21.3034 39.7034 24.0127V29.9867H48.1023C48.9026 29.9867 49.5235 30.697 49.4292 31.5048L48.5964 38.6463C48.5167 39.3298 47.9465 39.8447 47.2695 39.8447H39.7408L39.7034 62H52.7798C57.3194 62 60.9995 58.2596 60.9995 53.6455V8.35462C60.9994 3.74043 57.3193 0 52.7795 0Z" fill="#475993"/>
</svg>
