<?xml version="1.0" encoding="UTF-8" standalone="no"?>
<!-- Created with Inkscape (http://www.inkscape.org/) -->

<svg
   width="90.068695mm"
   height="65.682289mm"
   viewBox="0 0 90.068694 65.682289"
   version="1.1"
   id="svg1"
   xml:space="preserve"
   xmlns:inkscape="http://www.inkscape.org/namespaces/inkscape"
   xmlns:sodipodi="http://sodipodi.sourceforge.net/DTD/sodipodi-0.dtd"
   xmlns="http://www.w3.org/2000/svg"
   xmlns:svg="http://www.w3.org/2000/svg"><sodipodi:namedview
     id="namedview1"
     pagecolor="#ffffff"
     bordercolor="#000000"
     borderopacity="0.25"
     inkscape:showpageshadow="2"
     inkscape:pageopacity="0.0"
     inkscape:pagecheckerboard="0"
     inkscape:deskcolor="#d1d1d1"
     inkscape:document-units="mm"><inkscape:page
       x="7.4312214e-07"
       y="-1.3395648e-06"
       width="90.068695"
       height="65.682289"
       id="page7"
       margin="0"
       bleed="0" /></sodipodi:namedview><defs
     id="defs1" /><g
     id="g1"
     inkscape:groupmode="layer"
     inkscape:label="1"
     transform="matrix(0.26458333,0,0,0.26458333,-60.760333,-48.382069)"><path
       id="path26"
       d="M 299.983,591.388 H 228.927 L 299.793,704.774 338.37,643.05 Z"
       style="fill:#000000;fill-opacity:1;fill-rule:evenodd;stroke:none"
       transform="matrix(1.3333333,0,0,-1.3333333,0,1122.56)" /><path
       id="path27"
       d="m 348.263,627.221 22.396,-35.833 h -49.022 z"
       style="fill:#000000;fill-opacity:1;fill-rule:evenodd;stroke:none"
       transform="matrix(1.3333333,0,0,-1.3333333,0,1122.56)" /><path
       id="path28"
       d="m 193.888,591.148 h -21.654 l 63.779,85.835 63.78,-85.835 h -21.654 l -42.126,56.693 z"
       style="fill:#000000;fill-opacity:1;fill-rule:evenodd;stroke:none"
       transform="matrix(1.3333333,0,0,-1.3333333,0,1122.56)" /><path
       id="path29"
       d="m 338.37,643.05 25.392,34.173 63.78,-85.835 h -21.654 l -42.126,56.693 -15.499,-20.86 z"
       style="fill:#000000;fill-opacity:1;fill-rule:evenodd;stroke:none"
       transform="matrix(1.3333333,0,0,-1.3333333,0,1122.56)" /><path
       id="path30"
       d="m 40.078951,-21.430543 -5.633376,14.6951945 c -0.248167,0.6623971 -0.719683,1.3888073 -1.414548,2.1820138 -0.694866,0.7959897 -1.498305,1.5251831 -2.407214,2.1931465 -0.902705,0.6679634 -1.845737,1.230166 -2.829096,1.68104128 C 26.808255,-0.22548844 25.89004,-5.0790394e-5 25.04007,-5.0790394e-5 H 8.7851743 C 8.0716961,-5.0790394e-5 7.4450761,-0.14755938 6.8991101,-0.44535973 6.3531441,-0.74872644 5.8816281,-1.1467213 5.4845619,-1.6365611 5.0874958,-2.1319673 4.783492,-2.6830371 4.5787547,-3.2842042 4.3709154,-3.8853713 4.2685468,-4.5004542 4.2685468,-5.1322363 c 0,-0.7124943 0.093062,-1.246865 0.2853913,-1.6031122 L 10.187314,-21.430543 c 0.23886,-0.659614 0.707274,-1.386024 1.40214,-2.182014 0.70107,-0.793207 1.504509,-1.525183 2.407214,-2.193147 0.908909,-0.667963 1.855043,-1.227382 2.841504,-1.681041 0.98336,-0.450875 1.898473,-0.679096 2.742239,-0.679096 h 16.267304 c 0.676253,0 1.296669,0.153075 1.861247,0.456442 0.561477,0.2978 1.042299,0.695795 1.439365,1.191201 0.397066,0.48984 0.697968,1.043693 0.905807,1.658776 0.204737,0.617866 0.310208,1.224599 0.310208,1.825766 0,0.712495 -0.09616,1.246865 -0.285391,1.603113 z m -11.626594,0.322849 h -6.936249 c -0.545966,0 -1.172586,0.153075 -1.873656,0.456441 -0.694866,0.30615 -1.262546,0.768158 -1.699939,1.391591 l -3.98307,10.3534325 v 0.1558581 c 0,0.5789016 0.223349,1.0075115 0.670049,1.2802632 0.452903,0.2755349 0.95544,0.4119107 1.501406,0.4119107 h 7.109966 c 0.545966,0 1.144667,-0.1558581 1.799206,-0.4675743 0.660743,-0.3172827 1.197403,-0.7792907 1.613081,-1.3804577 l 3.98307,-10.3534325 v -0.155858 c 0,-0.578902 -0.229554,-1.004729 -0.682457,-1.280264 -0.456006,-0.272751 -0.955441,-0.41191 -1.501407,-0.41191 z m 36.865112,-5.866946 c 0.521149,-0.467574 0.998869,-0.782074 1.439364,-0.946281 0.437394,-0.161425 0.763112,-0.24492 0.980257,-0.24492 h 5.050186 c 0.874786,0 1.315281,0.384079 1.315281,1.14667 0,0.417478 -0.192329,1.199551 -0.570782,2.349005 L 55.217098,-1.1912522 c -0.521149,0.46757439 -1.01438,0.784857 -1.47659,0.94628149 -0.465312,0.16420767 -0.80654,0.244919919606 -1.02989,0.244919919606 h -5.583743 c -0.217145,0 -0.502537,-0.08071224961 -0.856174,-0.244919919606 -0.356739,-0.16142449 -0.604905,-0.4787071 -0.744499,-0.94628149 L 45.116728,-24.670166 c 0.46221,-1.180069 0.958542,-2.053987 1.488998,-2.627323 0.53666,-0.578901 1.203607,-0.868352 1.997739,-0.868352 h 2.95318 c 0.223349,0 0.496332,0.08349 0.818948,0.24492 0.328821,0.164207 0.564579,0.478707 0.707275,0.946281 l -0.03722,16.053388 z m 5.25182,20.2392915 6.328242,-16.4652975 c 0.248166,-0.601168 0.561476,-1.202335 0.943032,-1.803502 0.378454,-0.601167 0.812745,-1.135537 1.302873,-1.603112 0.496333,-0.467574 1.017482,-0.84052 1.563448,-1.124405 0.55217,-0.289451 1.116749,-0.434176 1.687531,-0.434176 h 23.823965 c 0.21405,0 0.32262,0.194823 0.32262,0.578902 0,0.2978 -0.0558,0.645697 -0.16131,1.046476 -0.10857,0.395211 -0.19233,0.673529 -0.24816,0.834954 -0.19233,0.498189 -0.4436,1.021427 -0.75691,1.569714 -0.31641,0.54272 -0.66695,1.040909 -1.05471,1.491785 -0.38155,0.453658 -0.77862,0.823821 -1.1912,1.113272 -0.40637,0.283885 -0.81584,0.423044 -1.22842,0.423044 H 85.719844 c -0.241962,0 -0.465311,0.07793 -0.670049,0.233787 -0.207839,0.150292 -0.393964,0.342331 -0.558374,0.578901 -0.167512,0.231004 -0.310208,0.475924 -0.434291,0.73476 -0.124083,0.261619 -0.229554,0.49819 -0.310208,0.712494 -0.02482,0.141943 -0.04653,0.25327 -0.06204,0.333982 -0.0093,0.0835 -0.01241,0.150292 -0.01241,0.200389 0,0.164208 0.03102,0.317283 0.09927,0.456442 0.06514,0.133592 0.17992,0.200389 0.347433,0.200389 h 14.741081 c 0.223349,0 0.335024,0.194822 0.335024,0.578901 0,0.297801 -0.05894,0.645698 -0.173716,1.046476 -0.108573,0.395212 -0.186125,0.67353 -0.235758,0.834955 -0.198533,0.498189 -0.456006,1.021427 -0.769316,1.569714 -0.316412,0.54272 -0.657641,1.046476 -1.02989,1.51405 -0.366046,0.467574 -0.753806,0.854437 -1.166382,1.157803 -0.406373,0.297801 -0.803439,0.445309 -1.191199,0.445309 H 81.736775 c -0.440496,0 -0.781724,0.13081 -1.029891,0.389646 -0.241962,0.2616186 -0.483924,0.6651798 -0.732091,1.2134665 l -0.08686,0.4453089 c 0,0.4981894 0.226452,0.8572197 0.682458,1.0798742 0.452903,0.2170881 0.924419,0.3228489 1.414548,0.3228489 H 97.91722 c 0.22335,0 0.335025,0.2310041 0.335025,0.6902289 0,0.3562472 -0.04963,0.7514588 -0.1489,1.1800687 -0.09927,0.4230435 -0.173716,0.7180606 -0.223349,0.8794851 -0.248167,0.6317821 -0.601804,1.2134669 -1.054707,1.7478376 -0.4467,0.5288044 -0.964747,0.985246 -1.55104,1.369325 -0.589395,0.38686214 -1.212913,0.68466249 -1.873656,0.89061788 C 92.746054,-0.1002453 92.088413,-5.0790394e-5 91.42767,-5.0790394e-5 H 74.800525 c -0.713478,0 -1.340098,-0.147508589606 -1.886064,-0.445308939606 -0.545966,-0.30336671 -1.017482,-0.70136157 -1.414548,-1.19120137 -0.397066,-0.4954062 -0.70107,-1.046476 -0.905807,-1.6476431 -0.20784,-0.6011671 -0.310208,-1.21625 -0.310208,-1.8480321 0,-0.7124943 0.09306,-1.246865 0.285391,-1.6031122 z M 115.28576,-16.788198 c -0.13339,0.48984 -0.19853,0.832171 -0.19853,1.024211 0,0.439742 0.11788,0.656831 0.35984,0.656831 h 9.28142 c 0.54597,0 1.12296,-0.155859 1.73717,-0.467575 0.62041,-0.317282 1.14777,-0.793206 1.58826,-1.424988 l 0.7445,-1.881431 c 0.0807,-0.222654 0.16441,-0.47314 0.24817,-0.757025 0.0806,-0.289451 0.12408,-0.545503 0.12408,-0.768158 0,-0.467574 -0.20784,-0.701361 -0.62042,-0.701361 h -10.79523 c -0.30711,0.03061 -0.58319,0.217088 -0.83136,0.556636 -0.24196,0.342331 -0.47152,0.762591 -0.69487,1.257997 z m 22.01236,-11.377643 c 0.76931,0 1.33079,0.253269 1.68753,0.757025 0.35364,0.506539 0.53356,1.129972 0.53356,1.870298 0,0.743109 -0.16752,1.5224 -0.49634,2.337872 l -3.20134,8.38294 c -0.24817,0.623433 -0.68246,1.291396 -1.30288,2.003891 -0.61421,0.712494 -1.31528,1.39159 -2.10941,2.037288 -0.79413,0.645698 -1.6441,1.2106836 -2.5437,1.6921739 -0.90271,0.4759239 -1.7806,0.7792906 -2.63057,0.9128833 0.87479,1.3971568 1.77439,2.7024686 2.69261,3.9187187 0.91821,1.2190332 1.81471,2.4825973 2.6926,3.79625865 l -0.0496,0.16699085 c -0.10857,0.19482266 -0.20474,0.289450809606 -0.28539,0.289450809606 h -5.78228 c -1.01748,0 -1.93259,-0.317282619606 -2.74224,-0.957414219606 -0.80343,-0.64569799 -1.55724,-1.41385589 -2.25831,-2.30447379 -0.69487,-0.8906178 -1.35871,-1.7840189 -1.98533,-2.6829863 -0.62972,-0.9045338 -1.27185,-1.6198113 -1.92329,-2.1486156 h -4.60349 c -0.73829,0.089062 -1.36491,0.832171 -1.88606,2.2265447 l -0.90581,2.3824028 c -0.46531,1.1745023 -0.95234,2.0484211 -1.46418,2.6273227 -0.50564,0.57333526 -1.15397,0.857219709606 -1.9481,0.857219709606 h -4.51663 c -0.87789,0 -1.31528,-0.381295779606 -1.31528,-1.146670509606 0,-0.3033667 0.0527,-0.645698 0.1613,-1.0242106 0.11478,-0.3840789 0.26678,-0.8238215 0.45911,-1.3136613 l 8.12745,-21.1855728 c 0.46221,-1.260781 0.94303,-2.159748 1.43936,-2.694119 0.49634,-0.534371 1.14157,-0.801556 1.9357,-0.801556 z m 17.1545,3.495675 -6.27861,16.4541653 c -0.0838,0.1725572 -0.12409,0.3506808 -0.12409,0.5343707 0,0.1642077 0.0372,0.3089331 0.11168,0.4341763 0.0807,0.1280263 0.20474,0.1892562 0.37225,0.1892562 h 15.39872 c 0.22335,0 0.33503,0.2310041 0.33503,0.6902289 0,0.3562472 -0.0496,0.7514588 -0.1489,1.1800687 -0.0993,0.4230435 -0.17372,0.7180606 -0.22335,0.8794851 -0.24817,0.6317821 -0.60181,1.2134669 -1.05471,1.7478376 -0.4467,0.5288044 -0.96475,0.985246 -1.55104,1.369325 -0.5894,0.38686214 -1.21291,0.68466249 -1.87366,0.89061788 -0.65454,0.20038902 -1.31218,0.300583529606 -1.97292,0.300583529606 h -19.00954 c -0.87789,0 -1.31528,-0.381295779606 -1.31528,-1.146670509606 0,-0.3033667 0.0527,-0.645698 0.16131,-1.0242106 0.11477,-0.3840789 0.26677,-0.8238215 0.4591,-1.3136613 l 8.12745,-21.1855728 c 0.46221,-1.260781 0.94303,-2.159748 1.43937,-2.694119 0.49633,-0.534371 1.14156,-0.801556 1.93569,-0.801556 h 4.51663 c 0.86858,0 1.30287,0.356247 1.30287,1.068741 0,0.55107 -0.20473,1.358193 -0.608,2.426934 z m 34.39275,21.1855728 1.15397,-3.0058354 c 0.16441,-0.4369593 0.24817,-0.7792906 0.24817,-1.0242105 0,-0.384079 -0.26057,-0.5789016 -0.78172,-0.5789016 H 179.0428 c -0.39086,0 -0.69487,0.086279 -0.91822,0.2560526 -0.21714,0.1642077 -0.41878,0.4341762 -0.608,0.8126888 l -1.35251,3.5402061 c -0.49633,1.2552145 -0.99267,2.1486156 -1.489,2.68298632 -0.49013,0.53437073 -1.12915,0.801556089606 -1.92329,0.801556089606 h -4.51662 c -0.90271,0 -1.35251,-0.356247149606 -1.35251,-1.068741409606 0,-0.6289989 0.21714,-1.4361214 0.65764,-2.415801 l 6.8618,-17.9459498 c 0.23886,-0.659614 0.70727,-1.386024 1.40214,-2.182014 0.70107,-0.793207 1.50451,-1.525183 2.40721,-2.193147 0.90891,-0.667963 1.85505,-1.227382 2.84151,-1.681041 0.98336,-0.450875 1.89847,-0.679096 2.74224,-0.679096 h 16.2673 c 0.67625,0 1.29667,0.153075 1.86125,0.456442 0.56147,0.2978 1.0423,0.695795 1.43936,1.191201 0.39707,0.48984 0.69797,1.043693 0.90581,1.658776 0.20474,0.617866 0.31021,1.224599 0.31021,1.825766 0,0.712495 -0.0962,1.246865 -0.28539,1.603113 l -6.8618,17.9459498 c -0.49634,1.2552145 -0.99267,2.1486156 -1.489,2.68298632 -0.49013,0.53437073 -1.12916,0.801556089606 -1.92329,0.801556089606 h -4.51663 c -0.87789,0 -1.31528,-0.356247149606 -1.31528,-1.068741409606 0,-0.6289989 0.21715,-1.4361214 0.65764,-2.415801 z m 3.69768,-11.7450228 c 0.22335,0 0.43429,-0.09463 0.63282,-0.289451 0.20474,-0.19204 0.37846,-0.395212 0.52115,-0.6123 l 1.1912,-3.128295 v -0.155858 c 0,-0.578902 -0.22955,-1.004729 -0.68246,-1.280264 -0.4467,-0.272751 -0.94923,-0.41191 -1.5014,-0.41191 h -7.09756 c -0.54597,0 -1.15087,0.161424 -1.81161,0.478707 -0.65454,0.311716 -1.1881,0.768158 -1.60068,1.369325 l -1.26565,3.284153 c 0,0.194823 0.0248,0.36738 0.0745,0.523238 0.0558,0.150292 0.17992,0.222655 0.37225,0.222655 z m 17.44609,11.7450228 c -0.46531,1.1745023 -0.95233,2.0484211 -1.46418,2.6273227 -0.50564,0.57333526 -1.15397,0.857219709606 -1.9481,0.857219709606 h -4.51663 c -0.87789,0 -1.31528,-0.381295779606 -1.31528,-1.146670509606 0,-0.3033667 0.0527,-0.645698 0.16131,-1.0242106 0.11477,-0.3840789 0.26677,-0.8238215 0.4591,-1.3136613 l 8.12745,-21.1855728 c 0.46221,-1.180069 0.94303,-2.053987 1.43937,-2.627323 0.49633,-0.578901 1.14156,-0.868352 1.93569,-0.868352 h 21.01969 c 0.67626,0 1.29667,0.153075 1.86125,0.456442 0.56148,0.2978 1.0423,0.695795 1.43937,1.191201 0.39706,0.48984 0.69796,1.043693 0.9058,1.658776 0.20474,0.617866 0.31021,1.224599 0.31021,1.825766 0,0.712495 -0.0962,1.246865 -0.28539,1.603113 l -6.8618,17.9459498 c -0.46531,1.1745023 -0.95234,2.0484211 -1.46418,2.6273227 -0.50564,0.57333526 -1.15398,0.857219709606 -1.94811,0.857219709606 h -4.42977 c -0.87789,0 -1.31528,-0.381295779606 -1.31528,-1.146670509606 0,-0.3033667 0.0527,-0.645698 0.16131,-1.0242106 0.11478,-0.3840789 0.26678,-0.8238215 0.45911,-1.3136613 l 6.03044,-15.7750688 v -0.155858 c 0,-0.578902 -0.22955,-1.004729 -0.68246,-1.280264 -0.4467,-0.272751 -0.94303,-0.41191 -1.489,-0.41191 h -9.03325 c -0.22335,0 -0.46842,0.130809 -0.73209,0.389645 -0.25747,0.261619 -0.4405,0.528804 -0.54597,0.801556 z m 54.68346,-3.2507553 c -0.24817,0.6623971 -0.72589,1.3888073 -1.42696,2.1820138 -0.69486,0.7959897 -1.4952,1.5251831 -2.3948,2.1931465 -0.90271,0.6679634 -1.84574,1.230166 -2.8291,1.68104128 -0.98646,0.45365848 -1.90468,0.679096129606 -2.75465,0.679096129606 H 235.8853 c -0.87789,0 -1.31528,-0.381295779606 -1.31528,-1.146670509606 0,-0.3033667 0.0527,-0.645698 0.16131,-1.0242106 0.11478,-0.3840789 0.26678,-0.8238215 0.45911,-1.3136613 l 8.12744,-21.1855728 c 0.46221,-1.260781 0.94304,-2.159748 1.43937,-2.694119 0.49633,-0.534371 1.14156,-0.801556 1.9357,-0.801556 h 22.58313 c 0.76001,0 1.31839,0.253269 1.67513,0.757025 0.35363,0.506539 0.53355,1.129972 0.53355,1.870298 0,0.743109 -0.16751,1.5224 -0.49633,2.337872 z m -4.14438,-14.3723455 h -9.15734 c -0.22335,0 -0.46841,0.130809 -0.73209,0.389645 -0.25747,0.261619 -0.44049,0.528804 -0.54596,0.801556 l -4.467,11.6670941 c -0.0589,0.2755349 -0.0869,0.4397426 -0.0869,0.4898399 0,0.1948226 0.031,0.3618135 0.0993,0.5009725 0.0651,0.1335927 0.17992,0.200389 0.34743,0.200389 h 7.35813 c 0.54597,0 1.16639,-0.1475085 1.86125,-0.4453089 0.70107,-0.3033667 1.26875,-0.7709411 1.69994,-1.4027231 l 3.8714,-9.9749205 c 0.0745,-0.222654 0.152,-0.47314 0.23575,-0.757025 0.0807,-0.289451 0.12409,-0.545503 0.12409,-0.768158 0,-0.467574 -0.20474,-0.701361 -0.60801,-0.701361 z m 0,0"
       style="fill:#000000;fill-opacity:1;fill-rule:nonzero;stroke:none"
       aria-label="OVERLAND"
       transform="matrix(1.259236,0,0,1.40352,228.17958,383.18757)" /><path
       id="path31"
       d="m 12.79302,-2.7370776 c 0.152016,-0.5284821 0.210485,-0.8690595 0.16371,-1.0217321 l -0.01169,-6.048184 c 0,-0.5402263 0,-1.1861483 -0.02339,-1.9025353 -0.01169,-0.775107 -0.01169,-1.233125 -0.01169,-1.36231 -0.02339,-0.02349 -0.04677,-0.05872 -0.04677,-0.140928 l 0.02339,-0.01174 v -0.03523 c 0,-0.01174 0.01169,-0.02349 0.02339,-0.04698 -0.07016,-3.206124 -0.105243,-4.979475 -0.105243,-5.320053 0.01169,-0.974756 0.04678,-1.879047 0.116936,-2.736363 -0.02339,-0.516738 -0.128629,-0.939523 -0.315727,-1.256613 -0.12863,-0.352321 -0.304034,-0.540226 -0.526213,-0.540226 -0.08185,0 -0.16371,0.02349 -0.245565,0.07046 -0.315728,0.164417 -0.771779,0.176161 -1.356459,0.05872 -0.385889,-0.03523 -0.654842,-0.05872 -0.8536334,-0.09395 -0.3157274,0.31709 -0.4911316,0.610691 -0.5612932,0.833828 -0.2806466,1.068708 -0.5729868,1.961255 -0.8887143,2.712874 v 1.714631 c -0.3508082,1.256613 -0.6080676,2.196137 -0.7834718,2.818571 -0.046774,0.9865 -0.1052424,1.714631 -0.1870977,2.184393 -0.1637105,0.164417 -0.2806466,0.317089 -0.3625019,0.481506 -0.2221785,-0.01174 -0.3741955,-0.152673 -0.4209699,-0.43453 -0.058468,-0.340577 -0.1520169,-0.540226 -0.268953,-0.598946 -0.1987913,-0.49325 -0.2923402,-0.963012 -0.2923402,-1.374054 0,-0.105696 0,-0.199648 0.011694,-0.281857 0.046774,-0.458017 -0.011694,-1.092196 -0.1754041,-1.914279 -0.081855,-0.387554 -0.1520169,-0.798595 -0.1987914,-1.233125 -0.2455658,-0.681155 -0.4209699,-1.221381 -0.5262124,-1.620679 0.1637105,0.04698 0.3157275,0.07047 0.4326635,0.117441 l 0.9121015,-0.164417 0.093549,0.516738 c 0.058468,0 0.1870977,-0.234881 0.3858891,-0.66941 v -0.258369 L 6.5486325,-20.56454 6.3147603,-20.411868 H 5.6131438 v -0.152672 c 0.6782293,-0.469762 1.0875056,-0.833828 1.2395225,-1.056965 v -0.09395 l -0.058468,-0.08221 c 0.081855,-0.164417 0.1987913,-0.246625 0.3625019,-0.246625 -0.1987914,-0.340578 -0.4326636,-0.504994 -0.748391,-0.504994 -0.3508083,0.140928 -0.537906,0.258369 -0.537906,0.352321 v 0.152673 l 0.4443571,-0.152673 0.2806466,0.05872 v 0.09395 H 6.4901645 c 0,0.223137 -0.058468,0.422785 -0.1754042,0.575458 -0.596374,0.43453 -0.9004078,0.704643 -0.9121015,0.822083 v 0.446274 l 0.093549,0.07046 h -0.596374 c -0.1052425,-0.411041 -0.1637106,-0.786851 -0.1754042,-1.127428 0.058468,-0.211393 0.152017,-0.458018 0.2806466,-0.716387 v -0.07046 H 4.771204 c -0.058468,0 -0.1052425,0.05872 -0.1403233,0.187904 -0.023387,-0.152672 -0.070162,-0.293601 -0.1520169,-0.434529 h 0.5262123 v 0.246625 h 0.2455658 l 0.2455658,-0.246625 v -0.164417 l -0.2455658,-0.09395 -0.6080676,0.09395 -0.268953,-0.05872 c -0.058468,-0.105697 -0.1052425,-0.176161 -0.1403233,-0.211393 -0.748391,-0.211393 -1.7306541,-0.387554 -2.958483,-0.49325 -0.1052425,0.08221 -0.2455658,0.152673 -0.40927635,0.211393 -0.4092763,0.140928 -0.56129322,0.49325 -0.45605074,1.033476 0.058468,0.305345 0.0935489,0.563714 0.0935489,0.786851 v 13.6818144 l 0.0467744,-0.3288333 0.18709774,0.011744 -0.11693609,0.8338273 0.0818553,0.2231369 -0.0935489,0.035232 H 0.50303678 v 0.49325 H 0.526424 l 0.17540413,0.093952 v 0.070464 l -0.19879135,0.046976 c 0,-0.070464 0,-0.05872 -0.0233872,0.035232 v 1.4797499 l -0.0350808,0.093952 c -0.0233872,0.2701131 -0.0233872,0.5402261 -0.0233872,0.7985952 0,1.3740534 0.18709774,2.3605534 0.56129322,2.92426759 0.5028252,0.18790475 0.806859,0.28185712 0.9004079,0.28185712 0.1403233,0 0.2923402,-0.0587202 0.4443571,-0.19964879 0.4911316,-0.18790475 0.7016166,-0.68115472 0.6548421,-1.44451772 -0.046774,-0.7633631 -0.070162,-1.4562618 -0.070162,-2.0904403 0,-0.8338273 -0.023387,-2.1021844 -0.070162,-3.7815831 -0.023387,-1.6793986 -0.046774,-2.9477562 -0.046774,-3.7815832 0,-0.446274 -0.035081,-0.92778 -0.1286297,-1.491494 -0.046774,-0.234881 -0.058468,-0.422786 -0.058468,-0.540226 0,-0.352322 0.058468,-0.622435 0.1870977,-0.845572 0.081855,-0.199649 0.1520169,-0.317089 0.1987913,-0.399297 h 0.1987914 c 0.1403233,0.422785 0.3625019,1.174404 0.6548421,2.243113 0.1052425,0.375809 0.2221785,0.798595 0.3858891,1.303589 0.2338721,1.256613 0.3508082,2.2078811 0.3741955,2.8538036 0.1052424,0.4462738 0.1637105,1.0921964 0.1754041,1.9729999 0.011694,0.3523214 0.058468,0.8573154 0.1637105,1.5619582 0.1052425,0.6928987 0.1754041,1.2213808 0.1754041,1.5854463 0,0.1409285 -0.023387,0.2818571 -0.035081,0.4345297 -0.046774,0.3640654 0.011694,0.7398749 0.210485,1.1274285 0.1987913,0.3758095 0.4560507,0.6576666 0.7717781,0.8338273 0.5145188,0.011744 0.8653271,-0.046976 1.0407312,-0.1996488 0.4092763,-0.1409286 0.6080677,-0.4110416 0.6080677,-0.7868511 0,-0.1056964 -0.011694,-0.2113929 -0.046774,-0.3405774 -0.116936,-0.4815059 -0.1052424,-1.0452201 0.035081,-1.6559106 0.011694,-0.05872 0.1754041,-0.5989463 0.4794379,-1.6089344 0,-0.1996487 0.058468,-0.4932499 0.1870978,-0.8808035 0.1286297,-0.3758094 0.1987913,-0.6811547 0.1987913,-0.8690594 0.1286297,-1.0452202 0.210485,-1.8203272 0.2338722,-2.3488093 0.081855,-0.2231369 0.1286297,-0.469762 0.1403233,-0.763364 -0.070162,0 -0.1052425,-0.03523 -0.1052425,-0.129184 v -0.211393 c -0.081855,0 -0.1169361,-0.03523 -0.1169361,-0.105696 v -0.37581 c 0,-0.08221 0.023387,-0.129184 0.081855,-0.129184 0.081855,0 0.1754041,0.02349 0.2455658,0.03523 l 0.058468,-0.634179 v -0.02349 l -0.011694,-0.01174 c -0.035081,-0.02349 -0.046774,-0.05872 -0.046774,-0.09395 0,-0.02349 0.011694,-0.05872 0.046774,-0.08221 l 0.058468,-0.05872 c 0.081855,-0.469762 0.1987913,-0.833827 0.3508082,-1.092196 0,-0.657667 0.070162,-1.103941 0.210485,-1.338821 0.070162,0.02349 0.1987913,0.04698 0.3625011,0.09395 0.04678,0.293601 0.08186,0.61069 0.08186,0.939524 0,0.211392 -0.02339,0.528482 -0.04678,0.963011 -0.02339,0.446274 -0.03508,0.763363 -0.03508,0.974756 v 0.481506 h 0.666536 c 0.09355,0 0.140323,0.04698 0.140323,0.140929 v 0.04698 c 0,0.08221 -0.04677,0.129185 -0.140323,0.129185 -0.29234,0 -0.514519,0.01174 -0.666536,0.03523 v 0.916035 c 0.09355,0 0.140324,0.03523 0.140324,0.1056972 v 0.082208 c 0,0.05872 -0.04678,0.1056965 -0.140324,0.1291845 v 4.8385473 c 0,0.504994 -0.02339,1.1744046 -0.07016,1.9729998 -0.046775,0.6576666 0.02339,1.1861487 0.210485,1.5971904 0.233872,0.54022612 0.666535,0.75161896 1.286297,0.64592254 0.561293,-0.10569642 0.993956,-0.22313689 1.286297,-0.37580954 0.02339,-0.1409285 0.04677,-0.270113 0.04677,-0.4110416 0,-0.1409286 -0.02339,-0.2818571 -0.04677,-0.4580178 -0.05847,-0.3288333 -0.05847,-0.5989464 0,-0.8103392 z M 1.2865086,-13.130559 l 0.035081,-0.140929 0.1754041,0.04698 -0.1754041,1.280101 -0.1870977,-0.02349 0.1052424,-0.775107 -0.058468,-0.246625 z m -0.54959964,4.6858747 -0.0701616,-0.258369 0.0467744,-0.3523214 0.17540413,0.035232 0.0467744,0.5284821 v 0.082208 z m 0.19879135,-1.3740535 0.14032329,0.2936012 -0.14032329,0.1996488 -0.17540413,-0.011744 -0.0467744,-0.1879047 v -0.1409286 l 0.0935489,-0.023488 -0.0701617,-0.046976 0.1403233,-0.5049939 0.0935489,-0.575459 0.17540422,0.02349 -0.046774,0.352322 0.035081,0.5872025 z m 0.29234019,4.8268032 0.046774,-0.3053452 h 0.058468 l -0.046774,0.3288333 z m 0.058468,-0.4462738 0.046774,-0.2936011 h 0.070162 l -0.046775,0.2936011 z m 0.035081,-0.4815059 0.035081,-0.2231369 h 0.070162 l -0.023387,0.2231369 z M 1.4268319,-7.4581844 H 1.333283 l -0.046774,-0.093952 c 0.070162,0.035232 0.1169361,-0.011744 0.1403233,-0.1526726 l 0.023387,0.011744 0.023387,0.1761607 h -0.046774 z m -0.070162,-1.1274285 v -0.070464 l 0.1870978,0.035232 v 0.082208 z m 0.7366974,3.8990235 0.081855,-0.082208 0.046775,0.093952 -0.058468,0.046976 z m 2.0580751,-7.2108446 -0.081855,-0.07046 0.035081,-0.04698 h 0.011694 l 0.081855,0.09395 v 0.02349 z m 1.2395225,0.716387 0.046774,0.04698 v 0.03523 l -0.081855,0.09395 -0.058468,-0.01174 v -0.140928 l 0.046774,-0.152673 -0.035081,-0.08221 0.046774,-0.09395 -0.011694,-0.105697 h 0.046774 c 0.046774,0.01174 0.058468,0.164417 0.046774,0.43453 z m 0.9705696,2.3722972 v -0.070464 h 0.046774 l 0.1286297,0.1644166 h -0.046774 z m 1.0056503,1.3975416 H 7.250249 l 0.1870978,-0.8690595 h 0.081855 z M 7.601057,-9.3372319 v -0.1174404 l 0.093549,0.023488 -0.035081,0.093952 z m 0.011694,-0.2113928 0.046774,-0.3523214 0.070162,0.035232 -0.035081,0.3405774 z m 3.215742,4.286577 c 0.01169,0 0.01169,0 0.01169,0.011744 0.07016,0.070464 0.105242,0.1291845 0.105242,0.1996488 0,0.1056964 -0.09355,0.1644166 -0.29234,0.1644166 -0.116936,0 -0.175404,-0.082208 -0.175404,-0.246625 0.01169,-0.011744 0.09355,-0.070464 0.198791,-0.1644166 -0.105242,0 -0.152017,-0.046976 -0.152017,-0.1526726 0,-0.1056964 0.07016,-0.1644167 0.222179,-0.1644167 0,0 0.05847,0.035232 0.163711,0.093952 0.03508,0.023488 0.04677,0.05872 0.04677,0.082208 0,0.035232 -0.01169,0.070464 -0.04677,0.093952 0.02339,-0.011744 -0.02339,0.011744 -0.116937,0.082208 z m 0.175404,-7.4692133 c -0.07016,0.05872 -0.16371,0.09395 -0.257259,0.09395 -0.09355,0 -0.140323,-0.04698 -0.140323,-0.140929 0,-0.07046 0.03508,-0.140928 0.09355,-0.211392 0.03508,0 0.05847,0 0.08186,-0.01174 h 0.04677 c 0.140324,0 0.222179,0.05872 0.222179,0.187904 0,0.02349 -0.01169,0.05872 -0.04678,0.08221 z m 0.456051,4.3805291 c -0.03508,0.023488 -0.05847,0.046976 -0.09355,0.05872 -0.02339,0 -0.04677,-0.035232 -0.05847,-0.082208 -0.105242,-0.070464 -0.09355,-0.1761607 0.04678,-0.3288333 0.04677,-0.046976 0.105242,-0.046976 0.152017,0 h 0.02339 c 0.04677,0.05872 0.08185,0.1174404 0.12863,0.1644166 0,0.035232 -0.03508,0.082208 -0.08186,0.1291845 z m 0.397583,-6.2126011 c -0.140323,0.176161 -0.25726,0.211393 -0.374196,0.105697 -0.105242,-0.105697 -0.105242,-0.211393 0.02339,-0.340578 h 0.02339 c 0,-0.02349 0.02339,-0.02349 0.04677,-0.02349 0,-0.01174 0,-0.01174 0.02339,-0.02349 h 0.02339 c 0.08186,0 0.152017,0.02349 0.233872,0.09395 0.02339,0.04698 0.03508,0.07046 0.05847,0.11744 0,0.03523 -0.02339,0.05872 -0.05847,0.07046 z m 0.619761,5.684119 c -0.07016,-0.070464 -0.07016,-0.1291846 0,-0.1879048 0.03508,-0.046976 0.105243,-0.070464 0.163711,-0.070464 0.01169,0 0.02339,0.011744 0.05847,0.046976 h 0.03508 c 0.01169,0.011744 0.04677,0.023488 0.05847,0.035232 0.07016,0.082208 0.05847,0.1526726 -0.04678,0.2113928 -0.08186,0.082208 -0.16371,0.070464 -0.268953,-0.035232 z M 6.4901645,-23.606249 6.3147603,-23.770665 h -0.046774 l -0.1052425,0.07046 0.1520169,0.164417 h 0.093549 z m 1.6487988,2.46625 v 0.09395 c 0,0.55197 -0.268953,0.845571 -0.8302462,0.845571 l 0.1520169,0.164417 c 0.5729868,0 0.9354887,-0.481506 1.075812,-1.432774 l -0.046774,-0.575458 c 0.1403233,0 0.2104849,-0.04698 0.2104849,-0.152673 0,-0.152673 -0.1987913,-0.281857 -0.596374,-0.352321 -0.3741955,0 -0.5495996,0.140928 -0.5495996,0.411041 H 7.460734 l -0.070162,-0.05872 v 0.05872 l 0.4560508,0.775107 v 0.05872 c -0.3040339,0 -0.4560508,-0.164417 -0.4560508,-0.49325 V -22.04429 H 7.250249 l -0.1637105,0.164416 c 0.070162,0.55197 0.3040338,0.833828 0.6899229,0.833828 z m -2.6427556,-0.575458 0.210485,-0.164417 -0.1637105,-0.164416 -0.1403234,0.164416 v 0.08221 z M 21.7474,-1.8915063 l -0.02339,0.035232 c 0,0.035232 0.01169,0.1409285 0.04678,0.2936011 l 0.07016,-0.070464 v -0.2583691 z m 3.519777,1.26835707 c 0.03508,-0.0469762 0.07016,-0.10569642 0.07016,-0.1761607 V -1.057679 l -0.07016,-0.082208 c -0.07016,0 -0.116936,0.023488 -0.140324,0.035232 l -0.210485,-0.7868512 c -0.02339,-0.6224344 -0.02339,-1.1039404 0.02339,-1.4680058 -0.01169,-0.258369 -0.116936,-0.6224345 -0.304034,-1.1039404 -0.163711,-0.504994 -0.25726,-0.8808035 -0.268953,-1.1509166 -0.04678,-0.093952 -0.05847,-0.1996488 -0.05847,-0.3288333 0,-0.035232 0.01169,-0.1056964 0.03508,-0.246625 0.02339,-0.1996487 0.02339,-0.4227856 -0.02339,-0.6459225 -0.16371,-0.9630118 -0.315727,-1.6793987 -0.45605,-2.1491606 -0.01169,-0.046976 -0.02339,-0.093952 -0.02339,-0.1526726 0,-0.1291845 0.09355,-0.4227857 0.09355,-0.5519702 0,-0.1056964 -0.105242,-0.3640658 -0.105242,-0.4697618 l -0.03508,0.03523 -0.07016,0.5754584 -0.187097,-0.011744 0.04677,-0.3523214 -0.01169,-0.610691 0.12863,-0.01174 -0.04677,-0.129184 -0.02339,-0.152673 -0.02339,-0.02349 v -0.02349 c -0.03508,-0.105696 -0.08186,-0.305345 -0.128629,-0.575458 -0.05847,-0.681155 -0.09355,-1.197893 -0.08186,-1.550214 -0.233872,-1.009988 -0.385889,-1.691143 -0.432663,-2.043465 -0.08186,-0.446273 -0.09355,-0.810339 -0.05847,-1.10394 -0.198792,-0.681155 -0.339115,-1.186149 -0.444357,-1.53847 -0.04678,-0.504994 -0.05847,-0.880804 -0.07016,-1.115684 -0.08186,-1.397542 -0.105243,-2.113929 -0.105243,-2.149161 -0.385889,-1.491494 -0.561293,-2.360553 -0.561293,-2.654155 0,-0.199648 0.01169,-0.411041 0.04678,-0.598946 -0.02339,-0.04698 -0.04678,-0.105696 -0.09355,-0.211393 -0.654842,-0.140928 -1.882671,-0.223137 -3.683487,-0.223137 -0.04677,0.04698 -0.12863,0.117441 -0.304034,0.223137 l -0.561293,3.441006 c -0.116936,0.622434 -0.210485,1.04522 -0.268953,1.280101 l -0.245566,1.59719 c -0.187098,1.268357 -0.42097,2.454506 -0.701616,3.546702 -0.07016,0.49325 -0.12863,0.857316 -0.175404,1.056965 l -0.596374,3.9812317 c -0.04677,0.258369 -0.07016,0.6224345 -0.07016,1.0687082 0,0.2583691 -0.01169,0.6224345 -0.04678,1.0921964 l -0.280646,1.1156844 h 0.02339 l -0.03508,0.070464 -0.128629,0.4462738 c -0.05847,0.3758095 -0.105243,0.6576666 -0.116937,0.8455713 -0.08185,0.5989464 -0.187097,1.2918452 -0.339114,2.0786963 0.152017,-0.1056964 0.233872,-0.1879048 0.233872,-0.258369 l -0.05847,-0.093952 c 0.105242,0 0.152017,-0.1174405 0.152017,-0.3405774 l 0.222178,0.2583691 -0.09355,0.082208 0.09355,0.3523214 h 0.526213 l 0.245566,0.1644166 c -0.25726,0.8338273 -0.572987,1.244869 -0.958876,1.244869 0,0.1526726 -0.105243,0.2818571 -0.292341,0.38755352 l -0.14032,-0.16441462 c 0.268953,-0.3758095 0.409276,-0.6341786 0.397583,-0.7985952 -0.03508,-0.3758095 -0.152017,-0.6106904 -0.350808,-0.6576666 -0.05847,0.1996488 -0.09355,0.3640654 -0.105243,0.4697618 l -0.257259,0.9160357 c -0.04678,0.1761607 -0.08186,0.38755353 -0.08186,0.64592256 0,0.10569642 0,0.22313688 0.02339,0.36406544 0.01169,0.0352321 0.05847,0.0704643 0.105242,0.11744047 1.029038,0.05872023 1.648799,0.0939523744 1.84759,0.10569642 l -0.08185,0.09395237 v 0.0939524 h 1.087506 l 1.391539,0.0587202 0.245566,-0.0587202 0.678229,0.0587202 h 0.12863 l 0.339115,-0.0587202 0.187097,0.0587202 0.725004,-0.0587202 h 0.08186 l -0.128629,-0.41104164 -0.222179,0.24662498 -0.456051,-0.1761607 -0.07016,0.09395238 h -0.07016 l -0.04677,-0.09395238 0.04677,-0.0704643 -0.08186,-0.8220833 0.03508,-0.258369 -0.03508,-0.3170893 v -1.3975415 l -0.08186,-1.4327737 h 0.08186 v -0.1644167 l -0.08186,-0.070464 v -0.093952 l 0.08186,-0.093952 -0.08186,-0.2231369 0.03508,-0.4110416 c 0.152017,-0.011744 0.280647,-0.011744 0.42097,-0.011744 0.432664,0 0.771778,0.05872 0.97057,0.1996487 0.385889,0.1644167 0.666535,0.7633631 0.818552,1.8320713 0.280647,0.070464 0.514519,0.3640655 0.666536,0.8573154 0,0.5637143 -0.152017,0.9747559 -0.444357,1.244869 0.05847,0.49324994 0.152017,0.85731539 0.29234,1.06870823 0.163711,0.0587202 0.479438,0.0939524 0.982263,0.0822083 0.456051,-0.0234881 0.771778,0.0234881 0.947183,0.12918451 0.619761,0 1.075812,-0.07046428 1.333071,-0.21139284 z m -10.266989,-3.58193427 -0.09355,-0.093952 v -0.070464 l 0.163711,-0.1879048 h 0.09355 v 0.1879048 z m 3.344372,-7.3282855 v 0.04698 h -0.04677 l -0.152017,-0.152673 h 0.05847 z m -1.017344,-1.421029 h 0.105243 l -0.175404,0.880803 h -0.09355 v -0.04698 z m -0.222178,1.937767 v 0.105697 l -0.105243,-0.01174 0.02339,-0.09395 z m -0.03508,0.199649 -0.04677,0.340578 -0.08186,-0.01174 0.03508,-0.352322 z M 15.923983,-7.1475558e-4 h 0.140324 C 16.040919,0.01102929 16.040919,0.01102929 16.040919,0.03451738 Z M 16.064307,-0.98721468 C 15.666724,-1.0341909 15.467933,-1.1398873 15.467933,-1.316048 c 0,-0.1056964 0.08185,-0.1526726 0.222178,-0.1526726 l -0.07016,-0.5754583 c 0.140324,-0.9512678 0.502826,-1.4327737 1.087506,-1.4327737 l 0.140323,0.1644167 c -0.561293,0 -0.830246,0.2818571 -0.830246,0.8455713 v 0.093952 l 0.385889,-0.093952 c 0.362502,0 0.596374,0.2701131 0.666536,0.8338274 l -0.163711,0.1644166 h -0.140323 v -0.258369 c 0,-0.3170893 -0.152017,-0.4815059 -0.444357,-0.4815059 v 0.070464 l 0.444357,0.7633631 v 0.05872 l -0.05847,-0.05872 h -0.09355 c 0,0.258369 -0.175404,0.38755352 -0.549599,0.38755352 z m 2.993563,0.68115471 -0.08186,-0.0939524 -0.105242,0.18790474 h -0.07016 l 0.07016,-0.41104163 v -0.0939524 c -0.07016,0 -0.116936,0.14092856 -0.116936,0.41104163 h -0.04678 c -0.116936,-0.0469762 -0.175404,-0.21139284 -0.175404,-0.49324996 V -1.1986075 h -0.08186 l -0.105243,0.1644166 v 0.72813093 L 18.227624,0.10498166 H 18.18085 V -0.2121076 l -0.187098,0.0704643 -0.116936,-0.38755354 -0.152017,0.0704643 h -0.08186 l -0.03508,-0.0704643 -0.08185,0.0704643 h -0.04678 l -0.05847,-0.0704643 c 0,-0.22313688 -0.04677,-0.3523214 -0.116936,-0.3523214 h -0.04677 l -0.105243,0.57545829 v 0.0939524 l 0.04678,0.0704643 -0.175404,0.09395238 c -0.12863,0 -0.25726,-0.0234881 -0.362502,-0.07046428 0.08186,-0.0234881 0.140323,-0.0469762 0.198791,-0.0939524 h 0.210485 c 0.04677,-0.25836902 0.08186,-0.62243447 0.08186,-1.05696415 -0.08186,-0.1056964 -0.140323,-0.1644167 -0.152017,-0.1996488 0.01169,0 0.05847,-0.011744 0.152017,-0.046976 0.01169,-0.6694107 0.05847,-1.0687083 0.12863,-1.2448689 0.02339,-0.05872 0.04677,-0.2701131 0.09355,-0.6341785 l 0.04677,0.035232 0.05847,0.093952 h 0.04678 v -0.1879048 h 0.08185 l 0.03508,1.0804522 -0.116936,0.1644167 c 0.04677,0.8925475 0.116936,1.32707729 0.257259,1.32707729 h 0.04678 V -2.5256848 l 0.04677,-0.4227857 h -0.04677 l -0.187098,-1.514982 c 0.04677,-0.1879047 0.128629,-0.3640654 0.233872,-0.5284821 0.105242,-0.2348809 0.537906,-0.3758095 1.309684,-0.4815059 0.02339,0.05872 0.02339,0.1644166 0.02339,0.2936012 v 0.5754582 l -0.105242,0.6694107 0.105242,1.4680058 -0.05847,0.6694107 0.05847,0.082208 h -0.05847 v 0.1761607 h -0.04677 v -0.258369 h -0.12863 v 0.1879047 c 0.198792,0.4227857 0.304034,0.72813094 0.304034,0.8925476 l -0.07016,0.41104163 z m 1.508476,-8.04467193 -0.05847,-0.05872 v -0.070464 h 0.04677 l 0.04678,0.1056965 v 0.023488 z m 0.08186,-0.5284821 c -0.05847,0.1644166 -0.140323,0.2936011 -0.210485,0.3992975 H 19.26836 c -0.409276,0 -0.725003,-0.05872 -0.970569,-0.1879047 0,-0.3053452 0.04677,-0.6341785 0.152017,-0.9864999 0.09355,-0.3053452 0.187098,-0.6106909 0.268953,-0.9277799 -0.01169,-0.176161 -0.01169,-0.387553 -0.01169,-0.634178 v -0.634179 c 0.105243,-0.469762 0.163711,-0.833827 0.210485,-1.068708 0.233872,-0.657667 0.397583,-1.150917 0.502825,-1.491494 h 0.409277 c 0.198791,0.974756 0.327421,1.761607 0.42097,2.348809 0.374195,2.4662501 0.572986,3.3470536 0.572986,2.6658989 0,0.1056964 -0.05847,0.2818571 -0.175404,0.5167381 z m 0.97057,4.2513449 h -0.175404 v -0.093952 l 0.175404,-0.1526726 0.08186,0.093952 v 0.05872 z m 0.84194,-11.0394039 0.05847,-0.07046 0.08185,0.07046 -0.09355,0.05872 z m 0.806859,2.759851 h 0.07016 l 0.05847,0.09395 c -0.07016,0 -0.116936,0.05872 -0.128629,0.164417 h -0.03508 l -0.01169,-0.187905 h 0.04678 z m 0.07016,1.127428 v 0.07047 l -0.198791,-0.02349 v -0.07047 z m 0.05847,4.5566905 -0.01169,0.1409286 -0.198792,-0.035232 0.198792,-1.2918452 0.187097,0.011744 -0.128629,0.7868511 0.08186,0.2231369 z m -3.262517,3.4527498 v 0.1526726 l 0.175405,0.258369 h 0.245565 l 0.152017,-0.258369 -0.233872,-0.3170893 h -0.222178 z m -0.725003,5.2730769 h 0.105242 l 0.04678,-0.093952 v -0.093952 l -0.04678,-0.05872 -0.105242,0.1526726 z m 2.245173,1.5737023 0.198791,-0.093952 V 2.8178564 H 21.58369 v 0.1644167 z m -5.425835,-2.5602022 0.09355,-0.16441666 v -0.0939524 h -0.222179 v 0.0939524 z m 8.010122,-10.6753383 -0.233872,0.1761606 v 0.1761607 h 0.04677 l 0.245566,-0.3523213 z M 24.109509,2.8178564 V 2.6534398 h -0.45605 V 2.8178564 Z M 20.02844,-9.3254878 v -0.082208 l -0.08186,-0.070464 -0.09355,0.1526726 z m 1.906058,11.074636 V 1.5847315 h -0.233872 v 0.1644167 z m 0.05847,1.2331249 h 0.29234 l 0.05847,-0.082208 v 0.082208 l 0.268953,-0.082208 h 0.701616 v -0.164417 l -1.321378,0.082208 z M 24.98653,2.7356481 V 2.5829755 H 24.635722 V 2.7356481 Z M 35.352914,-19.89513 c -0.02339,-0.140928 -0.03508,-0.43453 -0.02339,-0.857315 0.01169,-0.340578 -0.03508,-0.598947 -0.105242,-0.739875 -0.5496,-0.963012 -1.414927,-1.550214 -2.607675,-1.773351 -0.666536,-0.117441 -1.765735,-0.117441 -3.297598,0.02349 -0.257259,0.01174 -0.619761,-0.02349 -1.087505,-0.09395 -0.502826,-0.09395 -0.865328,-0.140928 -1.075812,-0.140928 -0.268953,0.446274 -0.409277,1.197893 -0.397583,2.290089 l 0.01169,2.842059 c 0.02339,-0.01174 0.08186,-0.04698 0.175405,-0.05872 l 0.01169,0.09395 h 0.116936 c 0.09355,0 0.175404,-0.03523 0.233872,-0.09395 l 0.25726,0.09395 0.01169,-0.03523 h 0.03508 l 0.222179,0.09395 0.03508,-0.04698 h 0.01169 l 0.03508,0.04698 h 0.01169 l 0.116936,-0.09395 0.05847,0.09395 0.514519,0.03523 c 0.327421,-0.02349 0.561293,-0.07046 0.748391,-0.129185 v -0.04698 c -0.04678,0 -0.08186,-0.02349 -0.08186,-0.105696 -0.07016,0 -0.152017,-0.05872 -0.210485,-0.164417 l -0.128629,0.04698 h -0.666536 l -0.140323,0.03523 -0.116936,-0.03523 H 27.8339 v -0.04698 h 1.087505 v -0.04698 c -0.105242,0 -0.16371,-0.02349 -0.16371,-0.07046 l 0.116936,-0.152673 -0.02339,-0.03523 v -0.01174 c 0.02339,-0.01174 0.07016,-0.129185 0.116936,-0.352322 h 0.09355 l 0.05847,0.07047 h 0.08186 c 0,-0.08221 0.02339,-0.140929 0.08185,-0.187905 l 0.175404,0.03523 h 0.03508 c 0.02339,-0.469762 0.08186,-0.786851 0.187098,-0.92778 0.198791,-0.105696 0.327421,-0.17616 0.444357,-0.211392 0.362502,0.04698 0.795166,0.187904 1.309684,0.434529 0.561294,0.281857 0.923795,0.55197 1.087506,0.81034 0.385889,0.575458 0.643148,1.749862 0.771778,3.558446 -0.12863,-0.04698 -0.257259,-0.07047 -0.339115,-0.08221 -0.385889,0 -0.561293,0.140929 -0.561293,0.411042 h -0.09355 l -0.05847,-0.09395 v 0.09395 l 0.456051,0.739875 v 0.09395 c -0.304034,0 -0.456051,-0.164416 -0.456051,-0.504994 v -0.234881 h -0.152017 l -0.152017,0.164417 c 0.04678,0.528482 0.268953,0.798595 0.666536,0.798595 l 0.397583,-0.05872 v 0.05872 c 0,0.575458 -0.280647,0.86906 -0.84194,0.86906 l 0.140323,0.17616 c 0.526213,0 0.877021,-0.375809 1.040732,-1.150916 0,0.904291 -0.02339,1.679398 -0.105243,2.313577 v 0.04698 -0.01174 h -0.01169 c 0,0.05872 -0.03508,0.234881 -0.03508,0.305345 v 0.03523 c -0.04677,0.199649 -0.07016,0.352322 -0.08186,0.458018 -0.105242,0.9865 -0.152017,1.7146311 -0.140323,2.1843929 -0.105242,0.9395238 -0.152017,1.6324225 -0.152017,2.1021844 l 0.01169,0.046976 -0.01169,0.011744 c -0.08186,0.2701131 -0.116936,0.5402262 -0.116936,0.7985952 0,0.082208 0.01169,0.1996488 0.02339,0.3405773 0.04678,0.3405774 -0.02339,0.6811548 -0.245566,0.998244 -0.339114,0.3992976 -0.572986,0.6811547 -0.678229,0.8103392 -0.268953,0.3523214 -0.514519,0.5637143 -0.736697,0.6341786 -0.09355,0.082208 -0.25726,0.1409285 -0.514519,0.1761607 -0.257259,0.023488 -0.456051,0 -0.561293,-0.093952 -0.04678,0.011744 -0.140323,-0.035232 -0.304034,-0.1409286 -0.152017,-0.7751071 -0.245566,-1.2213808 -0.268953,-1.3740534 0,-0.1644167 0.01169,-0.3523214 0.05847,-0.5167381 0,-0.046976 0.02339,-0.1056964 0.02339,-0.1526726 v -0.3288333 l 0.02339,-0.5284821 -0.02339,-0.1056964 v -0.3405774 l -0.03508,-0.1056964 c 0,0.082208 0,0.070464 0.01169,-0.023488 v -1.2448689 l -0.362502,0.035232 v -0.046976 c 0.07016,0 0.198792,-0.046976 0.362502,-0.1174405 l 0.04677,-0.9277796 c 0,-0.011744 0,-0.070464 -0.02339,-0.1526727 h -0.03508 v -0.3523214 l -0.09355,0.093952 h -0.04678 l -0.08186,-0.1644166 v -0.05872 c 0.08186,-0.1174404 0.152017,-0.1879053 0.257259,-0.1879053 0,-0.681154 0.02339,-1.04522 0.04678,-1.080452 v -0.105696 l -0.04678,-0.446274 v -0.02349 c -0.01169,-0.03523 -0.03508,-0.140929 -0.07016,-0.305346 l 0.03508,-0.199648 -0.03508,-0.469762 v -0.317089 l 0.07016,-0.09395 -0.03508,-0.02349 v -0.04698 c 0.362502,0 0.631455,0.05872 0.795166,0.164417 l 0.900408,-0.164417 0.08186,0.481506 c 0.08186,0 0.210485,-0.211393 0.397583,-0.634179 v -0.258369 l -0.222179,-0.270113 -0.257259,0.152673 h -0.689923 v -0.152673 c 0.701616,-0.504994 1.110893,-0.857315 1.239522,-1.092196 v -0.05872 l -0.07016,-0.09395 c 0.07016,-0.164416 0.198791,-0.234881 0.362502,-0.234881 -0.175405,-0.340577 -0.432664,-0.504994 -0.760085,-0.504994 -0.339115,0.140929 -0.526212,0.246625 -0.526212,0.31709 v 0.187904 l 0.444357,-0.187904 0.29234,0.09395 v 0.09395 h -0.12863 c 0,0.258369 -0.05847,0.446274 -0.16371,0.575459 -0.596374,0.434529 -0.877021,0.704642 -0.900408,0.810339 v 0.446274 l 0.05847,0.08221 h -0.84194 v -0.02349 l 0.02339,-0.02349 h -0.02339 v -0.55197 c 0,-0.340578 0.140323,-0.739875 0.397583,-1.244869 v -0.07047 h -0.25726 c -0.07016,0 -0.116936,0.05872 -0.140323,0.187905 l -0.01169,-0.02349 v -0.01174 l 0.03508,-0.105696 c 0,-0.07047 -0.03508,-0.09395 -0.116936,-0.09395 l -0.01169,-0.01174 v -0.04698 h 0.04677 l -0.03508,-0.04698 v -0.03523 l 0.03508,-0.01174 h -0.152017 v -0.04698 h 0.608068 v 0.246625 h 0.222178 l 0.222179,-0.246625 v -0.164416 l -0.222179,-0.09395 -0.619761,0.09395 -0.105242,-0.01174 v -0.03523 l 0.128629,-0.03523 v -0.08221 c -0.05847,0 -0.08186,-0.03523 -0.08186,-0.09395 l -0.152017,-0.04698 v -0.05872 l 0.233872,-0.03523 v -0.03523 c -0.105242,-0.09395 -0.16371,-0.234881 -0.16371,-0.399298 l -0.01169,-0.04698 0.09355,-0.129184 -0.08186,-0.140929 -0.01169,0.04698 h -0.03508 l -0.04677,-0.08221 c 0.08186,0 0.12863,-0.11744 0.140323,-0.364065 h 0.03508 c 0,-0.129185 -0.03508,-0.223137 -0.08186,-0.270114 v -0.17616 c -0.222179,-0.234881 -0.374196,-0.352322 -0.456051,-0.399298 l -0.02339,0.02349 -0.409277,-0.04698 -0.04677,0.02349 -0.923795,-0.08221 c -0.163711,-0.02349 -0.409276,0.07046 -0.701617,0.293601 l -0.02339,5.637142 c -0.01169,3.2061255 -0.03508,5.0851729 -0.03508,5.6371431 v 2.4075296 c 0,0.7751071 -0.07016,1.4797499 -0.233872,2.1609046 -0.04677,0.1761607 -0.04677,0.3405773 -0.02339,0.504994 0.04677,0.2113928 0.05847,0.3523214 0.05847,0.4227857 0,0.1409285 -0.05847,0.258369 -0.175404,0.39929756 0,0.1761607 0.04677,0.34057735 0.140323,0.49324996 0.374196,0.0939524 0.900408,0.1526726 1.590331,0.18790474 0.643148,0.0234881 1.239523,0 1.765735,-0.10569642 0.58468,-0.10569642 1.192748,-0.0939524 1.812509,0.0352321 0.654842,0.15267261 1.181055,0.09395238 1.590331,-0.1761607 0.210485,-0.27011307 0.339115,-0.48150591 0.385889,-0.64592256 0.12863,-0.12918448 0.25726,-0.19964878 0.362502,-0.23488088 0.257259,-0.3758095 0.42097,-0.6576666 0.514519,-0.8808035 0.315727,-0.3170893 0.561293,-0.5402262 0.725004,-0.7046428 0.198791,-0.504994 0.233872,-1.0804523 0.16371,-1.6911427 -0.07016,-0.5402262 -0.105242,-1.1391726 -0.09355,-1.8085832 0.03508,-2.3253213 0.04677,-3.7698396 0.04677,-4.2983216 h 0.04677 v -0.187905 h -0.04677 l 0.01169,-2.278345 c 0.02339,-0.892547 0.07016,-2.055208 0.152017,-3.51147 0.09355,-1.362309 0.04678,-2.477993 -0.152017,-3.335309 z m -6.688744,4.568434 h 0.02339 v 0.02349 l -0.04677,0.05872 H 28.6174 v -0.03523 z m 0,2.442762 -0.04677,0.07046 -0.03508,-0.07046 0.03508,-0.03523 z m -0.16371,4.3218092 -0.01169,-0.05872 0.12863,-0.093952 c -0.02339,0.070464 -0.05847,0.1174405 -0.07016,0.1526726 z m 0.222178,-3.1943802 c -0.01169,0.09395 -0.05847,0.129184 -0.12863,0.129184 l -0.01169,-0.03523 v -0.02349 c 0,-0.129185 0.01169,-0.223137 0.05847,-0.234881 h 0.04677 l 0.03508,0.03523 z m 0.257259,-1.632423 -0.03508,-0.07046 0.02339,-0.02349 v -0.01174 c 0.04677,0.01174 0.08186,0.03523 0.09355,0.08221 l -0.03508,0.02349 z m 0.08186,-4.380529 0.05847,0.09395 -0.01169,0.03523 h -0.04677 l -0.04678,-0.08221 z m 3.893971,11.3095166 h -0.04677 v -0.3053452 l -0.04677,-0.093952 v -0.023488 l 0.01169,-0.023488 -0.01169,-0.035232 v -0.046976 h 0.01169 c 0.05847,0 0.09355,0.046976 0.09355,0.1291845 h -0.01169 l 0.01169,0.023488 z m 0.187098,-1.6793987 -0.01169,-0.035232 v -0.011744 l 0.04677,-0.082208 h 0.01169 v 0.082208 z m 3.847197,-7.7863029 h 0.140324 l 0.16371,-0.164417 h -0.304034 z m -6.67705,0.92778 0.245566,-0.164417 -0.163711,-0.164417 -0.140323,0.164417 v 0.07046 z m 0.84194,-2.078697 h -0.04678 l -0.09355,0.09395 0.140324,0.164416 h 0.08186 l 0.08186,-0.105696 z m 11.63514,14.8914516 c -0.502825,0.046976 -0.958876,-0.082208 -1.391539,-0.3875536 -0.163711,-0.7751071 -0.257259,-1.7850951 -0.268953,-3.0417081 l -0.03508,0.1761607 h -0.05847 l 0.01169,-0.2936011 h 0.08185 v -0.1879048 h -0.08185 l 0.04677,-0.2231369 h 0.03508 v -1.3153332 h -0.04677 l -0.08186,-0.093952 c 0.05847,0 0.105243,-0.011744 0.12863,-0.046976 v -0.9630118 l -0.04677,-0.023488 0.01169,-0.070464 h 0.03508 c -0.03508,-0.3288333 -0.04677,-0.7163868 -0.07016,-1.1156844 -0.01169,-0.4110414 0.07016,-0.7046424 0.198792,-0.8925474 0.140323,-0.140929 0.233872,-0.234881 0.304033,-0.293601 0.116937,0 0.374196,0.03523 0.502826,0.03523 l -0.04678,0.223137 0.210485,0.03523 0.01169,-0.246625 c 0.409276,0.04698 0.771778,0.04698 1.110893,0.03523 0.315727,-0.02349 0.678229,-0.129184 1.052424,-0.305345 0.12863,-0.481506 0.175405,-0.892548 0.152017,-1.244869 -0.01169,-0.328833 -0.08186,-0.728131 -0.210485,-1.174405 -0.105242,-0.02349 -0.222178,-0.02349 -0.327421,-0.02349 -0.152017,0 -0.385889,0.02349 -0.701616,0.05872 -0.315728,0.04698 -0.537906,0.07047 -0.689923,0.07047 v -0.152673 l -0.187098,-0.02349 -0.02339,0.176161 c -0.233872,-0.03523 -0.397583,-0.07047 -0.502825,-0.105697 -0.268953,-0.176161 -0.467745,-0.317089 -0.572987,-0.43453 -0.08185,-0.281857 -0.12863,-0.645922 -0.152017,-1.080452 l 0.374195,0.04698 0.105243,-0.09395 0.03508,-0.01174 -0.12863,-0.03523 -0.222178,-0.07046 -0.187098,0.02349 c -0.02339,-0.458018 -0.02339,-0.963012 -0.01169,-1.538471 0.01169,-0.598946 0.03508,-1.10394 0.03508,-1.550214 0,-0.164416 -0.02339,-0.422785 -0.03508,-0.763363 -0.01169,-0.352321 -0.02339,-0.622434 -0.02339,-0.786851 0.187098,-0.387553 0.362502,-0.645922 0.491132,-0.810339 0.865327,-0.07046 1.356458,-0.117441 1.473394,-0.129185 0.116936,0 0.222179,0 0.327421,0.01174 l -0.08185,0.164417 0.03508,0.223137 -0.116936,0.786851 0.187097,0.02349 0.163711,-1.174404 c 0.175404,0.07046 0.304034,0.129184 0.362502,0.187904 0.362502,-0.01174 0.608068,-0.211393 0.736697,-0.575458 0.07016,-0.09395 0.09355,-0.270113 0.09355,-0.540226 0,-0.281857 -0.02339,-0.458018 -0.09355,-0.55197 0.02339,-0.528482 -0.105242,-0.951268 -0.362502,-1.280101 -0.280646,0 -0.678229,0.04698 -1.145973,0.129184 l -0.631455,-0.05872 c -0.245566,-0.01174 -0.456051,-0.04698 -0.654842,-0.07046 -0.771778,0 -1.333072,0 -1.660493,0.01174 -0.654842,0.01174 -1.169361,0.01174 -1.566943,-0.01174 -0.116936,0.11744 -0.210485,0.211392 -0.280647,0.270113 -0.08186,0.17616 -0.09355,0.458018 -0.04677,0.810339 0.04677,0.399297 0.08185,0.645922 0.116936,0.716387 l -0.04677,1.644166 c -0.01169,0.751619 -0.02339,1.291845 -0.02339,1.644167 v 10.4874335 h 0.163711 l 0.02339,0.035232 -0.08186,0.046976 h -0.03508 l -0.07016,-0.011744 v 0.3640654 l 0.5496,-0.046976 0.222178,0.082208 0.105243,0.011744 v 0.023488 l -0.140324,0.093952 -0.736697,-0.1174405 v 4.3570413 c 0,0.2583691 0.01169,0.5284821 0.02339,0.7985952 0.01169,0.3170893 -0.01169,0.5519702 -0.09355,0.7046428 -0.02339,0.73987495 0.07016,1.26835705 0.280647,1.57370226 1.099199,0.03523214 2.327028,0.03523214 3.6601,0 0.198791,-0.02348809 0.467744,-0.03523214 0.783471,-0.07046428 0.280647,-0.0234881 0.514519,0.0234881 0.713311,0.14092856442 C 44.298525,0.01102929 44.602559,-0.10641118 44.707801,-0.3647802 c 0.08185,-0.14092856 0.12863,-0.3523214 0.105243,-0.6694107 -0.01169,-0.4227856 -0.02339,-0.6811547 -0.02339,-0.763363 -0.187097,-0.2348809 -0.304033,-0.3992976 -0.385889,-0.504994 z m 1.075812,-9.8297676 0.04677,0.09395 v 0.02349 h -0.03508 l -0.05847,-0.07046 v -0.04698 z m -2.829853,-1.115684 v -0.140929 l 0.175404,0.04698 -0.16371,1.280101 -0.175404,-0.02349 0.08185,-0.775107 -0.04677,-0.246625 z m -1.181054,4.9912199 h 0.07016 c 0.09355,-0.258369 0.175404,-0.3640654 0.210485,-0.3523214 l -0.187098,0.4815059 0.07016,0.023488 v 0.082208 l -0.09355,0.070464 h -0.07016 v 0.011744 l 0.09355,0.070464 c -0.02339,0.05872 -0.08185,0.093952 -0.152016,0.1056965 h -0.04678 l 0.05847,-0.1761607 z m 0.16371,0.4345297 c -0.04677,0.1879048 -0.105242,0.2701131 -0.175404,0.2701131 v -0.070464 c 0.07016,0.023488 0.12863,-0.082208 0.152017,-0.3170892 h 0.03508 z m -0.222178,0.093952 0.01169,0.046976 -0.09355,0.05872 0.03508,-0.1056964 z m -0.304034,-2.5484576 c 0.152017,0.105696 0.222178,0.1996483 0.222178,0.2583685 l -0.04677,0.035232 h -0.01169 c -0.04677,-0.1056964 -0.105242,-0.1644175 -0.16371,-0.1644175 z m -0.187098,-2.677643 h -0.04677 v -0.164416 l 0.09355,0.140928 z m -0.350808,0.09395 -0.07016,-0.09395 v -0.02349 l 0.105243,0.04698 v 0.07047 z m 0.09355,3.9459989 0.491131,0.082208 -0.03508,0.011744 c 0,0.046976 -0.02339,0.082208 -0.105242,0.082208 l -0.362502,-0.093952 z m 0.491131,1.3153332 h -0.12863 l 0.03508,-0.070464 h 0.09355 z m 0.175404,5.8720233 -0.175404,-0.023488 c 0.04678,-0.3405774 -0.04677,-0.5754583 -0.280646,-0.7163869 l 0.07016,0.023488 0.116936,0.035232 h 0.05847 l 0.03508,-0.05872 -0.04677,-0.3405773 0.09355,-0.023488 0.116936,0.023488 0.05847,0.023488 -0.04678,0.246625 0.25726,0.4227857 -0.175404,-0.035232 z m -0.05847,-1.6793986 0.198792,0.023488 -0.04677,0.270113 -0.187098,-0.011744 z m 0.5496,-1.2213809 -0.350808,1.1861487 -0.187098,-0.035232 0.08185,-0.4815059 -0.385889,-0.093952 v -0.035232 l 0.198791,-0.035232 0.105243,0.035232 0.08185,0.035232 0.280647,-2.0434641 0.198791,0.011744 z m 0.02339,-1.514982 -0.198791,-0.023488 0.152017,-0.1879047 h 0.07016 l 0.175404,0.093952 v 0.070464 z m 0.09355,-0.7046428 -0.187098,-0.035232 c 0.02339,-0.1996488 -0.05847,-0.3053453 -0.210485,-0.3523214 l 0.140324,-0.1761607 -0.140324,0.023488 -0.02339,-0.035232 0.04677,-0.1056964 0.116937,0.1174405 0.187097,-0.2231369 0.03508,-0.3170893 0.187098,0.011744 -0.105243,0.8338273 0.05847,0.2231369 z m 0.152017,-1.7146308 -0.05847,-0.258369 0.04677,-0.3523214 0.175404,0.035232 0.04678,0.5284821 -0.03508,0.082208 z m 0.175404,-1.3740535 0.175404,0.2936012 -0.140323,0.1996488 -0.175404,-0.011744 -0.08186,-0.1879047 0.03508,-0.1409286 0.08186,-0.023488 -0.07016,-0.046976 0.140323,-0.5049935 0.105243,-0.575459 0.175404,0.02349 -0.04678,0.352322 0.02339,0.5872021 z m 0.304034,4.8268032 0.04677,-0.3053452 h 0.08186 l -0.04677,0.3288333 z m -3.157275,-9.571398 v -0.02349 l -0.09355,-0.11744 h -0.01169 z m 0.105243,0.09395 h -0.08186 l 0.07016,0.140928 0.105243,0.01174 v -0.04698 z m -0.350808,-5.601911 h 0.05847 l 0.08186,-0.434529 h -0.08186 z m 12.196434,2.830316 0.09355,0.03523 0.04677,-0.352322 -0.09355,-0.02349 z m 0.08186,0.234881 v -0.105697 l -0.08186,-0.03523 -0.01169,0.117441 z m -11.904094,4.838547 v 0.140928 h 0.116936 l 0.02339,-0.04698 -0.07016,-0.129184 -0.04677,-0.01174 z m -0.514519,-2.196137 h 0.04677 l 0.04677,-0.105696 v -0.02349 h -0.04677 l -0.04677,0.02349 z m -0.16371,0.563714 0.08186,0.01174 0.105243,-0.411041 v -0.07046 h -0.04677 l -0.05847,0.04698 z m 0.09355,-1.949511 -0.01169,0.03523 0.152017,0.02349 v -0.04698 z m -1.590331,-1.714631 v 0.09395 l 0.187098,0.223137 0.07016,0.03523 0.140324,-0.09395 0.01169,-0.117441 -0.152017,-0.211392 -0.116936,-0.02349 z m -1.029038,6.09516 0.09355,-0.07046 -0.09355,-0.105697 -0.03508,0.129185 z m 3.297598,-6.142136 -0.07016,-0.07046 -0.05847,0.04698 0.03508,0.164416 h 0.07016 z m -1.964526,-1.268357 v 0.02349 l 0.09355,0.105696 0.04677,0.03523 0.116936,-0.09395 v -0.04698 l -0.09355,-0.117441 h -0.02339 z m 0.619761,-1.162661 c 0.04677,0.281857 0.116936,0.446274 0.210485,0.481506 l -0.09355,-0.516738 h -0.07016 z m 12.816195,4.850291 0.175404,-0.833827 v -0.03523 h -0.08186 l -0.198791,0.869059 z m -12.956518,2.759851 h 0.07016 l 0.02339,-0.01174 v -0.199649 h -0.07016 z m 5.601238,-2.842059 0.09355,-0.08221 -0.02339,-0.04698 h -0.04677 z m 0.327421,1.432774 0.175404,0.03523 0.187098,-0.04698 0.02339,-0.08221 -0.175404,-0.08221 h -0.09355 z m 0.175404,-1.468006 -0.152016,0.223137 -0.152017,-0.105697 -0.04677,0.09395 0.03508,0.04698 0.140323,-0.03523 -0.140323,0.187904 c 0.163711,0.02349 0.245566,0.152673 0.222179,0.340578 l 0.187097,0.03523 0.116936,-0.03523 -0.07016,-0.223137 0.116936,-0.833827 -0.210485,-0.01174 z M 42.462628,-15.5146 h -0.04677 c -0.04678,0.246625 -0.105243,0.352321 -0.175404,0.340577 v 0.05872 c 0.04677,0 0.128629,-0.09395 0.198791,-0.270113 z m 0.572987,-2.40753 -0.175404,0.504994 0.08185,0.04698 -0.08185,0.02349 -0.01169,0.140929 0.04677,0.176161 0.210485,0.02349 0.105242,-0.199649 -0.128629,-0.305345 0.175404,-0.02349 -0.01169,-0.598947 0.04678,-0.340577 -0.187098,-0.02349 z m -0.795165,2.40753 v -0.01174 l 0.09355,0.01174 0.08186,-0.05872 0.02339,-0.09395 -0.07016,-0.02349 0.175405,-0.481506 c -0.07016,-0.02349 -0.12863,0.105696 -0.210485,0.340577 h -0.05847 l -0.04678,0.31709 -0.07016,0.187904 h 0.04677 c 0.07016,-0.02349 0.12863,-0.04698 0.16371,-0.105696 z m 6.244387,-0.9865 0.152017,0.09395 h 0.04677 l -0.152017,-0.164417 h -0.02339 z m -4.981477,0.17616 v 0.08221 l 0.175404,0.02349 0.02339,-0.09395 z m 0.04677,2.724619 0.01169,-0.234881 h -0.05847 l -0.03508,0.234881 z m 0.01169,-1.785095 c -0.01169,0.129185 -0.05847,0.176161 -0.140324,0.140929 l 0.08186,0.105696 h 0.05847 v -0.07046 h 0.04677 l -0.01169,-0.164417 z m -1.379846,5.6723746 0.187097,0.023488 -0.233872,-0.3992976 0.02339,-0.246625 -0.07016,-0.04698 -0.08186,-0.01174 -0.09355,0.01174 0.01169,0.352321 v 0.070465 h -0.09355 l -0.08185,-0.046977 -0.09355,-0.02349 c 0.245566,0.1291848 0.350809,0.3640657 0.304034,0.7046431 l 0.175404,0.035232 z m 0.87702,-6.9994516 -0.198791,-0.01174 -0.03508,0.328833 0.07016,0.258369 0.187098,0.03523 z m 4.443572,-2.571946 v 0.105696 l -0.04678,0.105696 0.02339,0.09395 -0.05847,0.140928 v 0.129185 l 0.105243,0.02349 0.04677,-0.09395 v -0.04698 l -0.03508,-0.04698 0.03508,0.03523 c 0.01169,-0.270113 0,-0.422785 -0.04677,-0.446273 z m -5.414141,1.726374 0.04677,-0.02349 c 0,-0.04698 -0.07016,-0.140928 -0.222178,-0.246625 l -0.03508,0.105697 c 0.08185,0 0.140323,0.05872 0.175404,0.164416 z m 4.139537,-2.09044 0.07016,0.07046 h 0.03508 v -0.02349 l -0.08185,-0.08221 h -0.02339 z m -4.431877,3.335309 c 0.08186,0.01174 0.128629,0 0.128629,-0.08221 v -0.01174 l -0.479438,-0.07046 v 0.07046 z m 0.03508,1.068709 v 0.08221 h 0.12863 v -0.04698 z m -0.175404,-5.437494 0.01169,0.164417 h 0.04677 l 0.03508,-0.03523 z m 8.127058,17.4633975 c 0.07016,-0.3288334 0.105243,-0.5402262 0.09355,-0.6224345 -0.08185,-0.3523214 -0.128629,-0.5519702 -0.140323,-0.6224345 v -1.1509166 c -0.05847,-0.258369 -0.07016,-0.5637142 -0.04677,-0.9277797 0.01169,-0.2348809 0.03508,-0.5519701 0.03508,-0.9630118 v -0.504994 c -0.05847,-0.258369 -0.08185,-0.5519702 -0.05847,-0.9160356 0.01169,-0.4580179 0.02339,-0.7751071 0.02339,-0.9395238 l -0.02339,-1.796839 c -0.02339,-1.197893 -0.03508,-2.231369 -0.03508,-3.088684 -0.01169,-0.105697 -0.03508,-0.234881 -0.01169,-0.364066 0.01169,-0.140928 0.01169,-0.258369 0.01169,-0.364065 l -0.198792,-0.03523 h -0.572987 c -0.09355,0 -0.140323,-0.04698 -0.140323,-0.129185 v -0.04698 c 0,-0.09395 0.04677,-0.140929 0.140323,-0.140929 h 0.725004 v -0.411041 c 0,-0.05872 0,-0.152673 0.01169,-0.258369 v -0.246625 h -0.07016 c -0.09355,0 -0.140323,-0.04698 -0.140323,-0.140929 v -0.07046 c 0,-0.09395 0.04677,-0.140929 0.140323,-0.140929 h 0.105243 c 0,-0.504994 -0.03508,-0.869059 -0.07016,-1.056964 0.01169,-0.187905 0.02339,-0.458018 0.02339,-0.810339 -0.01169,-0.07046 -0.02339,-0.328833 -0.02339,-0.786851 v -1.47975 c 0,-0.105697 0.01169,-0.305345 0.05847,-0.587202 0.02339,-0.223137 0,-0.399298 -0.09355,-0.504994 -0.105242,-0.164417 -0.409276,-0.223137 -0.912101,-0.187905 -0.07016,0.03523 -0.198792,0.07046 -0.374196,0.07046 -0.03508,0 -0.140323,-0.01174 -0.304034,-0.03523 -0.257259,-0.02349 -0.514519,-0.02349 -0.771778,0 -0.350808,0.04698 -0.631455,0.140928 -0.830246,0.293601 -0.03508,0.317089 -0.04678,0.49325 -0.05847,0.575458 0.08185,0.681155 0.128629,0.951268 0.128629,0.81034 0,0.08221 -0.01169,0.17616 -0.02339,0.246625 -0.02339,0.11744 -0.04677,0.399297 -0.05847,0.798595 -0.02339,0.352321 0,0.645922 0.03508,0.869059 0.04677,0.481506 0.08185,0.798595 0.07016,0.963012 -0.02339,0.422786 -0.03508,0.739875 -0.04677,0.963012 -0.02339,0.61069 0.04677,1.174405 0.163711,1.679399 0.03508,0.129184 0.04677,0.352321 0.03508,0.681154 -0.02339,0.223137 -0.03508,0.43453 -0.07016,0.634179 v 0.129184 c 0.04677,-0.01174 0.09355,-0.01174 0.140323,0 0.07016,0.08221 0.105243,0.140929 0.105243,0.211393 0,0.03523 -0.01169,0.04698 -0.03508,0.04698 0,0.03523 -0.01169,0.04698 -0.02339,0.04698 v 0.01174 l -0.01169,0.02349 h -0.04677 c -0.02339,0.01174 -0.02339,0.01174 -0.03508,0.01174 h -0.05847 v 2.325321 c 0.05847,0.575458 0.09355,1.021732 0.105242,1.3035891 -0.03508,0.1996488 -0.04677,0.3170892 -0.04677,0.3758095 0.08186,0.2348809 0.152017,0.4580178 0.198791,0.6811547 l 0.01169,1.503238 c 0.02339,1.1391725 0.02339,1.9260236 0.03508,2.3957855 0.01169,0.3170892 0,0.5989464 -0.04678,0.8220832 -0.04677,0.1996488 -0.03508,0.4697619 0.04678,0.8103393 v 0.4815059 c 0.04677,0.1761607 0.05847,0.3758095 0.05847,0.5989464 v 0.6694106 c 0.304033,0.3053452 0.619761,0.4110417 0.935488,0.3288333 0.280647,-0.070464 0.5496,-0.070464 0.830247,-0.011744 0.140323,0.035232 0.339114,0.046976 0.596374,0.05872 0.222178,0.023488 0.397582,-0.023488 0.502825,-0.1291845 0.210485,-0.1056964 0.257259,-0.4227857 0.152017,-0.9395237 -0.12863,-0.5637143 -0.175404,-0.9042916 -0.140324,-1.009988 z M 47.128378,-17.769457 c -0.03508,0.04698 -0.08185,0.05872 -0.128629,0.08221 -0.05847,0 -0.08186,-0.03523 -0.09355,-0.03523 -0.01169,0 -0.01169,0 -0.01169,-0.01174 l -0.04677,-0.04698 c -0.09355,-0.05872 -0.09355,-0.140929 0.01169,-0.211393 0.08185,-0.05872 0.163711,-0.04698 0.268953,0.04698 0.07016,0.05872 0.07016,0.11744 0,0.176161 z m 1.672186,-3.793327 h -0.03508 c -0.07016,-0.08221 -0.105242,-0.140929 -0.105242,-0.187905 0,-0.117441 0.105242,-0.176161 0.304034,-0.176161 0.116936,0 0.187098,0.07046 0.187098,0.223137 0,0.105696 -0.08186,0.164417 -0.222179,0.164417 l 0.12863,0.07046 c 0.02339,0.02349 0.04677,0.05872 0.04677,0.105696 0,0.105697 -0.08186,0.140929 -0.245566,0.140929 h -0.04677 c 0,-0.01174 -0.01169,-0.01174 -0.04677,-0.01174 l -0.04677,-0.07046 c -0.02339,-0.03523 -0.04677,-0.05872 -0.05847,-0.09395 0,-0.03523 0.01169,-0.05872 0.05847,-0.09395 0.02339,-0.01174 0.04677,-0.02349 0.09355,-0.07046 z m -0.444357,17.0053791 v -0.1174404 h -0.07016 l -0.04677,0.070464 h -0.05847 l -0.04677,-0.070464 v -0.05872 c 0,-0.05872 0.07016,-0.093952 0.222178,-0.093952 v -0.070464 l -0.07016,-0.046976 v -0.070464 l 0.07016,-0.035232 h 0.04678 l 0.04677,0.1526726 -0.04677,0.070464 v 0.046976 l 0.04677,0.2231369 z m 0.04678,-0.5637142 h -0.09355 v -0.1291845 h 0.02339 c -0.02339,-0.082208 -0.105243,-0.1526726 -0.245566,-0.1996488 v -0.070464 l 0.05847,-0.046976 h 0.09355 l 0.07016,0.046976 h 0.04677 v -0.258369 h -0.04677 v -0.1879048 h 0.09355 v 0.1291845 h 0.08185 v 0.6576667 h -0.08185 z m -0.09355,-1.1391725 0.09355,0.1409285 -0.04678,0.046976 h -0.04677 z m 0.04677,-0.246625 0.05847,0.093952 v 0.046976 l -0.08186,0.1056965 -0.105243,-0.1056965 0.04678,-0.046976 v -0.046976 l -0.04678,-0.082208 h 0.08186 c 0,-0.082208 -0.02339,-0.1291845 -0.08186,-0.1291845 v -0.1644166 h 0.105243 l 0.08186,0.1056964 v 0.2231369 z m -0.04677,-1.1509166 h 0.09355 v 0.2701131 h -0.09355 z m 0,-0.258369 v -0.2231369 h 0.09355 v 0.2231369 z M 48.145722,-18.4741 c 0.05847,-0.03523 0.12863,-0.02349 0.187098,0.02349 0.105242,0.09395 0.07016,0.199649 -0.05847,0.317089 -0.07016,0.05872 -0.12863,0.05872 -0.175404,0 h -0.01169 c -0.07016,-0.07046 -0.116936,-0.129184 -0.140323,-0.152672 z m -0.385889,6.212601 c 0.175404,-0.129185 0.29234,-0.164417 0.374196,-0.08221 0.105242,0.08221 0.09355,0.187905 -0.03508,0.317089 v 0.01174 h -0.04677 c -0.01169,0.01174 -0.01169,0.02349 -0.02339,0.02349 h -0.03508 c -0.105242,0 -0.198791,-0.02349 -0.233872,-0.08221 -0.03508,-0.03523 -0.04677,-0.05872 -0.04677,-0.09395 0,-0.03523 0.01169,-0.05872 0.04677,-0.09395 z m 0.140323,10.6518498 -0.05847,-0.035232 v -0.082208 l 0.12863,-0.1174405 0.07016,0.046976 v 0.070464 z m 0.631455,-0.7398749 h -0.04677 l -0.08185,-0.2113928 H 48.23928 v 0.046976 l 0.09355,0.1644166 v 0.1644167 h -0.09355 v 0.070464 l 0.09355,0.1174405 0.152017,-0.1174405 h 0.04677 v 0.7985952 l -0.198791,0.046976 -0.198791,-0.2701131 v -0.1056964 c 0.175404,0 0.268953,-0.046976 0.268953,-0.1291845 v -0.070464 c -0.12863,0 -0.222179,-0.082208 -0.268953,-0.2348809 v -0.1056964 l 0.105242,-0.1644167 c -0.140323,0 -0.222178,-0.1291845 -0.268953,-0.3875535 h -0.12863 v -0.1291845 h 0.05847 l 0.116937,0.1291845 0.03508,-0.05872 h 0.08186 l 0.268953,0.1761607 v -0.046976 l -0.07016,-0.5754582 0.07016,-0.3875536 -0.163711,0.1761607 h -0.05847 l -0.04677,-0.3053452 0.105242,-0.035232 -0.01169,-0.023488 v -0.1879048 l 0.152017,-0.070464 -0.04677,-0.035232 V -4.346012 h 0.08186 v 0.4580178 l 0.07016,-0.011744 h 0.04677 v 0.8103393 l 0.05847,0.2231369 -0.05847,0.2466249 0.05847,0.2231369 z m 0.374196,-11.4974219 c -0.01169,0.01174 -0.01169,0.01174 -0.03508,0.01174 h -0.01169 c -0.01169,0 -0.03508,0.03523 -0.04677,0.03523 h -0.01169 c -0.140323,-0.04698 -0.210485,-0.105696 -0.233872,-0.199648 0,-0.140929 0.09355,-0.199649 0.29234,-0.199649 0.105243,0 0.152017,0.04698 0.152017,0.140928 0,0.07047 -0.03508,0.140929 -0.105242,0.211393 z m 9.749546,6.9642199 c 0,-1.6089344 -0.01169,-2.4897379 -0.03508,-2.6541546 -0.128629,-1.0452203 -0.526212,-1.7733513 -1.181054,-2.1961363 0.02339,-0.340578 0.09355,-0.575459 0.233872,-0.681155 0.304034,-0.258369 0.467744,-0.399298 0.514519,-0.469762 l 0.268953,-0.751619 c 0.09355,-0.258369 0.187097,-0.516738 0.268953,-0.786851 v -3.159149 c 0,-0.739875 0.03508,-1.620678 0.09355,-2.665898 0.05847,-1.04522 -0.07016,-1.796839 -0.409277,-2.266601 -0.526212,-0.751619 -1.71896,-1.139173 -3.613325,-1.197893 -1.26291,-0.04698 -2.631062,-0.04698 -4.162925,-0.03523 l -0.16371,0.164417 c -0.116936,0.152672 -0.152017,0.387553 -0.116936,0.66941 0.03508,0.223137 0.04677,0.516738 0.04677,0.86906 v 3.828559 l -0.152017,4.591922 0.02339,-0.02349 0.05847,0.11744 v 0.04698 l -0.08186,-0.01174 -0.257259,8.4792013 v 4.4744818 c 0,0.25836902 0.02339,0.55197019 0.03508,0.89254754 0.01169,0.32883331 -0.04677,0.5519702 -0.187098,0.69289876 0.175404,0.2818571 0.643149,0.4227857 1.414927,0.3758095 0.374195,-0.011744 0.654842,-0.023488 0.818552,-0.023488 0.374196,0 0.67823,0.011744 0.900408,0.05872 0.08185,-0.1056964 0.12863,-0.1996488 0.175404,-0.2466249 0.05847,-0.1526727 0.08186,-0.42278573 0.08186,-0.83382736 v 0.0234881 h 0.04677 v -0.0939524 h 0.04677 l 0.01169,0.57545829 -0.05847,0.0704643 c 0.04677,0.46976187 0.09355,0.71638687 0.152017,0.71638687 h 0.04677 V 0.78613637 l 0.03508,-0.22313689 h -0.03508 L 53.32305,-0.43524448 h -0.04677 l 0.02339,-0.0469762 c 0,0.0469762 -0.02339,0.10569642 -0.07016,0.21139284 -0.01169,-0.37580949 -0.01169,-0.79859516 0,-1.24486896 0.02339,-0.4110416 0.08185,-0.6811547 0.152017,-0.8338273 v -6.9289875 l -0.01169,0.2113928 h -0.09355 l 0.04677,-0.3053452 h 0.05847 v -0.1291845 h -0.04677 l 0.04677,-0.3053452 h 0.04677 c 0.140323,-0.1996493 0.362502,-0.3053453 0.678229,-0.3053453 0.140324,0 0.245566,0 0.304034,0.02349 0.456051,0.07046 0.818553,0.1644168 1.099199,0.2818573 0.05847,0.3170892 0.07016,0.5872023 0.05847,0.7868511 -0.04677,0.3758095 -0.05847,0.6459226 -0.05847,0.8455714 l -0.03508,1.4210296 c -0.01169,0.4697619 -0.01169,0.9395237 -0.01169,1.4092856 h -0.362502 v 0.093952 l 0.339115,0.023488 c 0,1.6089344 -0.01169,2.6071783 -0.05847,2.9829878 -0.02339,0.2936012 -0.01169,0.5284821 0.03508,0.7281309 v 1.35056538 c 0.304034,0.69289875 0.537906,1.20963682 0.736698,1.52672612 0.128629,-0.011744 0.257259,-0.011744 0.397582,-0.011744 0.152017,0 0.374196,0.011744 0.666536,0.023488 0.304034,0.035232 0.526213,0.046976 0.678229,0.046976 0.397583,0 0.701617,-0.070464 0.923796,-0.2113928 h 0.16371 C 58.667047,0.25765427 58.51503,-0.78756588 58.51503,-1.9267384 c 0,-0.5519702 0.01169,-1.3740535 0.05847,-2.4779939 0.04677,-1.1039403 0.08185,-1.9260236 0.08185,-2.4779938 z m -6.466566,-5.3552849 0.08186,0.02349 c 0.03508,-0.258369 0.105242,-0.37581 0.175404,-0.37581 l -0.175404,0.516738 h 0.08185 l -0.02339,0.105697 -0.09355,0.04698 h -0.05847 v 0.02349 l 0.105242,0.08221 c -0.05847,0.05872 -0.105242,0.08221 -0.152017,0.105697 l -0.04677,-0.02349 0.05847,-0.164417 z m 0.163711,0.434529 c -0.07016,0.199649 -0.152017,0.305346 -0.210485,0.305346 l 0.03508,-0.08221 c 0.04677,0 0.105242,-0.105696 0.152017,-0.317089 h 0.02339 z m -0.257259,0.117441 0.03508,0.04698 -0.08185,0.04698 v -0.09395 z m -0.268953,-2.536714 c 0.140323,0.11744 0.198791,0.187904 0.210485,0.234881 l -0.02339,0.04698 -0.04677,-0.02349 c -0.04677,-0.08221 -0.105243,-0.140929 -0.175404,-0.176161 z m -0.210485,-2.701131 -0.01169,-0.01174 -0.03508,-0.140929 0.09355,0.117441 z m 0.222178,4.133904 v 0.01174 c -0.01169,0.03523 -0.02339,0.04698 -0.07016,0.07047 -0.01169,0 -0.03508,0 -0.05847,-0.02349 l -0.350808,-0.05872 v -0.07046 z m 0,1.244869 -0.08185,-0.03523 v -0.04698 h 0.116936 z m -0.526212,-5.378773 -0.01169,0.105696 -0.03508,-0.02349 -0.05847,-0.08221 v -0.03523 z m -0.42097,4.850291 0.01169,0.04698 -0.09355,0.05872 -0.02339,-0.02349 -0.187097,-0.03523 v -0.03523 z m -0.385889,0.340578 0.03508,-0.07047 0.105242,0.02349 -0.01169,0.07047 z m 0.187098,0.152672 v -0.05872 l 0.572986,-0.02349 0.210485,0.07046 h 0.12863 v 0.04698 l -0.12863,0.09395 z m 1.356458,5.8720236 -0.175404,-0.023488 c 0.04677,-0.3053452 -0.05847,-0.5284821 -0.304034,-0.6811547 h 0.09355 l 0.09355,0.046976 0.08185,0.011744 -0.01169,-0.4110416 0.05847,-0.035232 h 0.128629 l 0.07016,0.070464 -0.03508,0.2348809 0.233872,0.4227857 -0.187097,-0.023488 z m -0.05847,-1.6676547 0.187098,0.035232 -0.04677,0.270113 -0.198791,-0.011744 z m 0.5496,-1.2096368 -0.362502,1.1744047 -0.187098,-0.023488 0.05847,-0.4815059 -0.362502,-0.093952 v -0.023488 l 0.198792,-0.046976 0.105242,0.046976 h 0.09355 l 0.268953,-2.0199759 0.187098,0.02349 z m 0.02339,-1.5032381 -0.210485,-0.07046 0.140323,-0.176161 0.09355,0.02349 0.163711,0.09395 v 0.05872 z m 0.09355,-0.728131 -0.198792,-0.02349 c 0.02339,-0.187905 -0.05847,-0.317089 -0.222178,-0.340577 l 0.140323,-0.187905 h -0.140323 l -0.01169,-0.02349 0.04677,-0.105696 0.128629,0.129184 0.163711,-0.223137 0.04677,-0.328833 0.187098,0.02349 -0.116936,0.798595 0.08186,0.258369 z m 0.152017,-1.726375 -0.09355,-0.246625 0.04677,-0.328833 0.187098,0.02349 0.04677,0.528482 v 0.07047 z m 0.187097,-1.350565 0.152017,0.293601 -0.152017,0.211393 -0.187097,-0.04698 -0.04677,-0.164417 0.03508,-0.140928 0.05847,-0.04698 -0.05847,-0.01174 0.152017,-0.516738 0.07016,-0.575458 0.187097,0.03523 -0.04677,0.340578 0.03508,0.598946 z m 0.38589,3.9107676 0.03508,-0.2348806 h 0.05847 l -0.01169,0.2348806 z m 0.09355,-1.5502146 -0.05847,-0.01174 -0.08185,-0.08221 c 0.08185,0 0.12863,-0.03523 0.140323,-0.152673 h 0.03508 l 0.01169,0.187905 h -0.04677 z m -0.05847,-1.115684 v -0.08221 l 0.175404,0.03523 v 0.05872 z m 2.093156,-1.10394 c -0.04677,0.04698 -0.140323,0.17616 -0.187097,0.223136 -0.163711,0 -0.304034,0.03523 -0.397583,0.09395 -0.736697,0 -1.239523,-0.05872 -1.461701,-0.164417 0,-0.387553 -0.01169,-0.822083 -0.03508,-1.291845 -0.02339,-0.716387 -0.04677,-1.150917 -0.04677,-1.303589 l -0.01169,0.187905 -0.175404,-0.03523 0.105242,-0.775107 -0.07016,-0.234881 0.105242,-0.152672 0.03508,-0.140929 h 0.01169 c 0,-1.573702 0.175404,-2.536714 0.491131,-2.900779 0.315728,0 0.643149,0.02349 0.993957,0.09395 0.596374,0.105697 0.865327,0.422786 0.830246,0.974756 -0.01169,0.364065 -0.02339,0.622434 -0.02339,0.786851 0,0.49325 0.01169,1.315333 0.05847,2.489738 0.04677,1.174405 -0.03508,1.890792 -0.222179,2.149161 z m 0.689923,-2.207881 -0.04677,-0.09395 v -0.04698 l 0.09355,0.09395 v 0.04698 z m 1.157667,0.716387 0.03508,-0.129185 -0.02339,-0.09395 0.04677,-0.105697 -0.02339,-0.09395 h 0.04677 c 0.04677,0.02349 0.05847,0.152673 0.04677,0.411042 h -0.04677 l 0.04677,0.04698 v 0.04698 l -0.07016,0.07046 h -0.05847 z m -2.490738,12.4486891 h 0.105242 v -0.070464 l -0.04677,-0.035232 z m -0.163711,4.8502913 -0.04677,0.046976 h -0.04678 l -0.02339,-0.046976 0.02339,-0.046976 -0.07016,-0.4345297 0.04677,-0.1409286 -0.04677,-0.1644166 v -0.751619 l -0.04678,-0.7281309 h 0.04678 v -0.0939524 l -0.04678,-0.0469762 v -0.0469762 l 0.04678,-0.0352321 -0.04678,-0.10569642 0.04678,-0.52848208 -0.04678,-0.3875535 h -0.05847 c 0,0.1409285 -0.04677,0.270113 -0.128629,0.3875535 v 0.05872 c 0.08185,0.12918452 0.128629,0.27011308 0.128629,0.3992976 v 0.30534521 l -0.09355,0.34057735 0.09355,0.79859518 -0.04677,0.35232146 0.04677,0.035232 h -0.04677 v 0.093952 h -0.04677 V 1.185434 h -0.08186 v 0.082208 c 0.140323,0.1996488 0.198792,0.3523214 0.187098,0.4815059 l -0.01169,0.2231369 h -0.128629 l -0.04678,-0.046976 -0.07016,0.082208 h -0.04677 L 54.188394,1.796124 V 1.749148 c -0.05847,0 -0.09355,0.082208 -0.09355,0.2231369 h -0.04677 C 53.97791,1.9253089 53.942829,1.8431006 53.942829,1.7139161 v -0.234881 h -0.04678 l -0.07016,0.093952 v 0.399298 L 53.767425,2.195422 H 53.72065 V 2.0075172 l -0.12863,0.046976 -0.08185,-0.2113928 -0.128629,0.046976 h -0.04677 l -0.01169,-0.046976 -0.04677,0.046976 h -0.04677 l -0.02339,-0.046976 c 0,-0.1174405 -0.03508,-0.1761607 -0.09355,-0.1761607 h -0.03508 l -0.08186,0.3053452 v 0.035232 l 0.04677,0.046976 -0.140323,0.046976 c -0.187098,0 -0.315728,-0.046976 -0.409277,-0.1291845 h -0.04677 v 0.082208 c -0.116936,0 -0.175404,0.035232 -0.175404,0.093952 l -0.222179,-0.046976 h -0.03508 l -0.08185,0.093952 v 0.046976 h 0.748391 l 0.935489,0.046976 0.198791,-0.046976 0.444357,0.046976 h 0.08186 l 0.245566,-0.046976 0.116936,0.046976 0.502825,-0.046976 h 0.04678 L 55.158993,2.0075154 55.01867,2.148444 Z m -0.16371,-7.2578208 -0.572987,-0.093952 c -0.140323,0.035232 -0.233872,0.070464 -0.245566,0.1174405 v 0.046976 h 0.05847 l 0.561293,0.1409286 c 0,-0.093952 0.02339,-0.1409286 0.105243,-0.1409286 v 0.046976 l 0.09355,-0.093952 z m 0.514519,5.32005311 v 0.0939524 l 0.105242,0.11744047 h 0.163711 L 55.439611,0.21067808 55.2759,0.03451738 h -0.12863 z m -2.677837,2.30183319 0.07016,-0.093952 v -0.035232 h -0.163711 v 0.035232 z m 2.163318,0.516738 h 0.07016 l 0.04678,-0.046976 v -0.046976 l -0.04678,-0.023488 -0.07016,0.070464 z m 3.82381,0.6694107 v -0.093952 h -0.233872 v 0.093952 z m -0.572987,0.046976 v -0.093952 h -0.327421 v 0.093952 z m 0.456051,-1.8203273 0.04677,0.046976 c 0.210485,-0.035232 0.315728,-0.093952 0.315728,-0.1644166 V 1.5729875 l -0.04677,-0.046976 c -0.152017,0 -0.257259,0.082208 -0.315727,0.2231369 z m -2.163318,1.9495118 0.163711,-0.046976 v -0.082208 h -0.210485 v 0.082208 z m 0.222179,-0.046976 h 0.210485 l 0.03508,-0.046976 v 0.046976 l 0.198792,-0.046976 h 0.467744 V 3.6047081 L 56.30494,3.6516841 Z M 56.29325,3.0762255 v -0.093952 h -0.187098 v 0.093952 z m 11.193707,-4.9677318 -0.02339,0.035232 c 0,0.035232 0.01169,0.1409285 0.04677,0.2936011 l 0.07016,-0.070464 v -0.2583691 z m 3.519776,1.26835707 c 0.03508,-0.0469762 0.07016,-0.10569642 0.07016,-0.1761607 V -1.057679 l -0.07016,-0.082208 c -0.07016,0 -0.116936,0.023488 -0.140323,0.035232 l -0.210485,-0.7868512 c -0.02339,-0.6224344 -0.02339,-1.1039404 0.02339,-1.4680058 -0.01169,-0.258369 -0.116936,-0.6224345 -0.304034,-1.1039404 -0.16371,-0.504994 -0.257259,-0.8808035 -0.268953,-1.1509166 -0.04677,-0.093952 -0.05847,-0.1996488 -0.05847,-0.3288333 0,-0.035232 0.01169,-0.1056964 0.03508,-0.246625 0.02339,-0.1996487 0.02339,-0.4227856 -0.02339,-0.6459225 -0.163711,-0.9630118 -0.315727,-1.6793987 -0.456051,-2.1491606 -0.01169,-0.046976 -0.02339,-0.093952 -0.02339,-0.1526726 0,-0.1291845 0.09355,-0.4227857 0.09355,-0.5519702 0,-0.1056964 -0.105243,-0.3640658 -0.105243,-0.4697618 l -0.03508,0.03523 -0.07016,0.5754584 -0.187098,-0.011744 0.04677,-0.3523214 -0.01169,-0.610691 0.12863,-0.01174 -0.04677,-0.129184 -0.02339,-0.152673 -0.02339,-0.02349 v -0.02349 c -0.03508,-0.105696 -0.08185,-0.305345 -0.12863,-0.575458 -0.05847,-0.681155 -0.09355,-1.197893 -0.08186,-1.550214 -0.233872,-1.009988 -0.385889,-1.691143 -0.432664,-2.043465 -0.08186,-0.446273 -0.09355,-0.810339 -0.05847,-1.10394 -0.198791,-0.681155 -0.339114,-1.186149 -0.444357,-1.53847 -0.04677,-0.504994 -0.05847,-0.880804 -0.07016,-1.115684 -0.08186,-1.397542 -0.105243,-2.113929 -0.105243,-2.149161 -0.385889,-1.491494 -0.561293,-2.360553 -0.561293,-2.654155 0,-0.199648 0.01169,-0.411041 0.04677,-0.598946 -0.02339,-0.04698 -0.04677,-0.105696 -0.09355,-0.211393 -0.654842,-0.140928 -1.882671,-0.223137 -3.683486,-0.223137 -0.04677,0.04698 -0.12863,0.117441 -0.304034,0.223137 l -0.561293,3.441006 c -0.116936,0.622434 -0.210485,1.04522 -0.268953,1.280101 l -0.245566,1.59719 c -0.187098,1.268357 -0.42097,2.454506 -0.701617,3.546702 -0.07016,0.49325 -0.128629,0.857316 -0.175404,1.056965 l -0.596374,3.9812317 c -0.04677,0.258369 -0.07016,0.6224345 -0.07016,1.0687082 0,0.2583691 -0.01169,0.6224345 -0.04677,1.0921964 l -0.280647,1.1156844 h 0.02339 l -0.03508,0.070464 -0.12863,0.4462738 c -0.05847,0.3758095 -0.105242,0.6576666 -0.116936,0.8455713 -0.08185,0.5989464 -0.187098,1.2918452 -0.339115,2.0786963 0.152017,-0.1056964 0.233873,-0.1879048 0.233873,-0.258369 l -0.05847,-0.093952 c 0.105242,0 0.152016,-0.1174405 0.152016,-0.3405774 l 0.222179,0.2583691 -0.09355,0.082208 0.09355,0.3523214 h 0.526212 l 0.245566,0.1644166 c -0.257259,0.8338273 -0.572987,1.244869 -0.958876,1.244869 0,0.1526726 -0.105242,0.2818571 -0.29234,0.38755352 l -0.14032,-0.16441462 c 0.268953,-0.3758095 0.409276,-0.6341786 0.397582,-0.7985952 -0.03508,-0.3758095 -0.152016,-0.6106904 -0.350808,-0.6576666 -0.05847,0.1996488 -0.09355,0.3640654 -0.105242,0.4697618 l -0.25726,0.9160357 c -0.04677,0.1761607 -0.08186,0.38755353 -0.08186,0.64592256 0,0.10569642 0,0.22313688 0.02339,0.36406544 0.01169,0.0352321 0.05847,0.0704643 0.105243,0.11744047 1.029037,0.05872023 1.648799,0.0939523744 1.84759,0.10569642 l -0.08186,0.09395237 v 0.0939524 h 1.087505 l 1.39154,0.0587202 0.245565,-0.0587202 0.67823,0.0587202 h 0.128629 l 0.339115,-0.0587202 0.187098,0.0587202 0.725004,-0.0587202 h 0.08186 l -0.12863,-0.41104164 -0.222178,0.24662498 -0.456051,-0.1761607 -0.07016,0.09395238 h -0.07016 l -0.04677,-0.09395238 0.04677,-0.0704643 -0.08186,-0.8220833 0.03508,-0.258369 -0.03508,-0.3170893 v -1.3975415 l -0.08186,-1.4327737 h 0.08186 v -0.1644167 l -0.08186,-0.070464 v -0.093952 l 0.08186,-0.093952 -0.08186,-0.2231369 0.03508,-0.4110416 c 0.152017,-0.011744 0.280646,-0.011744 0.42097,-0.011744 0.432663,0 0.771778,0.05872 0.970569,0.1996487 0.385889,0.1644167 0.666536,0.7633631 0.818553,1.8320713 0.280647,0.070464 0.514519,0.3640655 0.666536,0.8573154 0,0.5637143 -0.152017,0.9747559 -0.444358,1.244869 0.05847,0.49324994 0.152017,0.85731539 0.292341,1.06870823 0.16371,0.0587202 0.479438,0.0939524 0.982263,0.0822083 0.456051,-0.0234881 0.771778,0.0234881 0.947182,0.12918451 0.619761,0 1.075812,-0.07046428 1.333072,-0.21139284 z M 60.739739,-4.2050835 60.64619,-4.2990358 v -0.070464 l 0.16371,-0.1879048 h 0.09355 v 0.1879048 z m 3.344372,-7.3282855 v 0.04698 h -0.04677 l -0.152016,-0.152673 h 0.05847 z m -1.017344,-1.421029 h 0.105242 l -0.175404,0.880803 h -0.09355 v -0.04698 z m -0.222179,1.937767 v 0.105697 l -0.105242,-0.01174 0.02339,-0.09395 z m -0.03508,0.199649 -0.04678,0.340578 -0.08185,-0.01174 0.03508,-0.352322 z M 61.663534,-7.1475558e-4 h 0.140323 C 61.78047,0.01102929 61.78047,0.01102929 61.78047,0.03451738 Z M 61.803857,-0.98721468 C 61.406275,-1.0341909 61.207483,-1.1398873 61.207483,-1.316048 c 0,-0.1056964 0.08185,-0.1526726 0.222179,-0.1526726 L 61.3595,-2.0441789 c 0.140323,-0.9512678 0.502825,-1.4327737 1.087506,-1.4327737 l 0.140323,0.1644167 c -0.561293,0 -0.830246,0.2818571 -0.830246,0.8455713 v 0.093952 l 0.385889,-0.093952 c 0.362502,0 0.596374,0.2701131 0.666536,0.8338274 l -0.163711,0.1644166 h -0.140323 v -0.258369 c 0,-0.3170893 -0.152017,-0.4815059 -0.444357,-0.4815059 v 0.070464 l 0.444357,0.7633631 v 0.05872 l -0.05847,-0.05872 h -0.09355 c 0,0.258369 -0.175404,0.38755352 -0.5496,0.38755352 z m 2.993564,0.68115471 -0.08186,-0.0939524 -0.105243,0.18790474 h -0.07016 l 0.07016,-0.41104163 v -0.0939524 c -0.07016,0 -0.116936,0.14092856 -0.116936,0.41104163 h -0.04677 c -0.116936,-0.0469762 -0.175404,-0.21139284 -0.175404,-0.49324996 V -1.1986075 h -0.08186 l -0.105242,0.1644166 v 0.72813093 L 63.967175,0.10498166 H 63.9204 V -0.2121076 l -0.187097,0.0704643 -0.116936,-0.38755354 -0.152017,0.0704643 h -0.08186 l -0.03508,-0.0704643 -0.08186,0.0704643 h -0.04677 l -0.05847,-0.0704643 c 0,-0.22313688 -0.04678,-0.3523214 -0.116936,-0.3523214 h -0.04677 l -0.105242,0.57545829 v 0.0939524 l 0.04677,0.0704643 -0.175404,0.09395238 c -0.12863,0 -0.257259,-0.0234881 -0.362502,-0.07046428 0.08186,-0.0234881 0.140324,-0.0469762 0.198792,-0.0939524 h 0.210485 c 0.04677,-0.25836902 0.08185,-0.62243447 0.08185,-1.05696415 -0.08185,-0.1056964 -0.140323,-0.1644167 -0.152017,-0.1996488 0.01169,0 0.05847,-0.011744 0.152017,-0.046976 0.01169,-0.6694107 0.05847,-1.0687083 0.12863,-1.2448689 0.02339,-0.05872 0.04677,-0.2701131 0.09355,-0.6341785 l 0.04678,0.035232 0.05847,0.093952 h 0.04677 v -0.1879048 h 0.08186 l 0.03508,1.0804522 -0.116936,0.1644167 c 0.04678,0.8925475 0.116936,1.32707729 0.25726,1.32707729 h 0.04677 V -2.5256848 l 0.04677,-0.4227857 h -0.04677 l -0.187098,-1.514982 c 0.04677,-0.1879047 0.12863,-0.3640654 0.233873,-0.5284821 0.105242,-0.2348809 0.537906,-0.3758095 1.309684,-0.4815059 0.02339,0.05872 0.02339,0.1644166 0.02339,0.2936012 v 0.5754582 l -0.105243,0.6694107 0.105243,1.4680058 -0.05847,0.6694107 0.05847,0.082208 h -0.05847 v 0.1761607 h -0.04677 v -0.258369 h -0.128629 v 0.1879047 c 0.198791,0.4227857 0.304034,0.72813094 0.304034,0.8925476 l -0.07016,0.41104163 z m 1.508476,-8.04467193 -0.05847,-0.05872 v -0.070464 h 0.04677 l 0.04677,0.1056965 v 0.023488 z m 0.08186,-0.5284821 c -0.05847,0.1644166 -0.140323,0.2936011 -0.210485,0.3992975 h -1.169361 c -0.409276,0 -0.725004,-0.05872 -0.97057,-0.1879047 0,-0.3053452 0.04677,-0.6341785 0.152017,-0.9864999 0.09355,-0.3053452 0.187098,-0.6106909 0.268953,-0.9277799 -0.01169,-0.176161 -0.01169,-0.387553 -0.01169,-0.634178 v -0.634179 c 0.105242,-0.469762 0.16371,-0.833827 0.210485,-1.068708 0.233872,-0.657667 0.397582,-1.150917 0.502825,-1.491494 h 0.409276 c 0.198792,0.974756 0.327421,1.761607 0.42097,2.348809 0.374196,2.4662501 0.572987,3.3470536 0.572987,2.6658989 0,0.1056964 -0.05847,0.2818571 -0.175404,0.5167381 z m 0.970569,4.2513449 h -0.175404 v -0.093952 l 0.175404,-0.1526726 0.08186,0.093952 v 0.05872 z m 0.84194,-11.0394039 0.05847,-0.07046 0.08186,0.07046 -0.09355,0.05872 z m 0.806859,2.759851 h 0.07016 l 0.05847,0.09395 c -0.07016,0 -0.116936,0.05872 -0.12863,0.164417 h -0.03508 l -0.01169,-0.187905 h 0.04677 z m 0.07016,1.127428 v 0.07047 l -0.198792,-0.02349 v -0.07047 z m 0.05847,4.5566905 -0.01169,0.1409286 -0.198791,-0.035232 0.198791,-1.2918452 0.187098,0.011744 -0.12863,0.7868511 0.08186,0.2231369 z m -3.262517,3.4527498 v 0.1526726 l 0.175404,0.258369 h 0.245566 l 0.152017,-0.258369 -0.233872,-0.3170893 h -0.222179 z m -0.725004,5.2730769 h 0.105243 l 0.04677,-0.093952 v -0.093952 l -0.04677,-0.05872 -0.105243,0.1526726 z m 2.245173,1.5737023 0.198792,-0.093952 V 2.8178564 h -0.268953 v 0.1644167 z m -5.425834,-2.5602022 0.09355,-0.16441666 v -0.0939524 h -0.222179 v 0.0939524 z m 8.010122,-10.6753383 -0.233872,0.1761606 v 0.1761607 h 0.04677 l 0.245566,-0.3523213 z M 69.84906,2.8178564 V 2.6534398 H 69.393009 V 2.8178564 Z M 65.767991,-9.3254878 v -0.082208 l -0.08186,-0.070464 -0.09355,0.1526726 z m 1.906058,11.074636 V 1.5847315 h -0.233872 v 0.1644167 z m 0.05847,1.2331249 h 0.29234 l 0.05847,-0.082208 v 0.082208 l 0.268953,-0.082208 h 0.701617 v -0.164417 l -1.321378,0.082208 z m 2.993564,-0.246625 V 2.5829755 h -0.350809 v 0.1526726 z m 0,0"
       style="fill:#000000;fill-opacity:1;fill-rule:nonzero;stroke:none"
       aria-label="Madeira"
       transform="matrix(1.3362,0,0,1.3304613,475.07394,426.07908)" /></g></svg>
