<?xml version="1.0" encoding="UTF-8" standalone="no"?>
<svg
   version="1.1"
   x="0px"
   y="0px"
   viewBox="0 0 27.353445 27.619659"
   xml:space="preserve"
   id="svg1960"
   sodipodi:docname="close.svg"
   width="27.353445"
   height="27.619659"
   inkscape:version="1.2.2 (1:1.2.2+202305151915+b0a8486541)"
   xmlns:inkscape="http://www.inkscape.org/namespaces/inkscape"
   xmlns:sodipodi="http://sodipodi.sourceforge.net/DTD/sodipodi-0.dtd"
   xmlns="http://www.w3.org/2000/svg"
   xmlns:svg="http://www.w3.org/2000/svg"><defs
     id="defs1964" /><sodipodi:namedview
     id="namedview1962"
     pagecolor="#ffffff"
     bordercolor="#666666"
     borderopacity="1.0"
     inkscape:showpageshadow="2"
     inkscape:pageopacity="0.0"
     inkscape:pagecheckerboard="0"
     inkscape:deskcolor="#d1d1d1"
     showgrid="false"
     inkscape:zoom="1.888"
     inkscape:cx="-64.353814"
     inkscape:cy="26.483051"
     inkscape:window-width="1920"
     inkscape:window-height="1009"
     inkscape:window-x="0"
     inkscape:window-y="34"
     inkscape:window-maximized="1"
     inkscape:current-layer="svg1960" /><path
     d="M 26.821019,24.425097 16.172475,13.80983 26.787742,3.194563 l 0.03328,-0.03328 c 0.598981,-0.665534 0.598981,-1.697111 -0.03328,-2.296092 -0.332767,-0.332767 -0.765364,-0.49915 -1.231237,-0.49915 -0.432598,0 -0.831918,0.19966 -1.131408,0.49915 L 13.80983,11.480461 2.861796,0.49915 C 2.529029,0.166383 2.096432,0 1.630558,0 1.197961,0 0.798641,0.19966 0.49915,0.49915 0.19966,0.831917 0,1.264515 0.033276,1.697112 c 0,0.432597 0.199661,0.831917 0.499151,1.131407 L 11.480461,13.80983 0.49915,24.791141 C 0.166383,25.123908 0,25.556505 0,26.022379 c 0,0.432597 0.19966,0.831917 0.49915,1.131407 0.232937,0.19966 0.598981,0.465874 1.164685,0.465874 0.59898,0 0.965024,-0.266214 1.197961,-0.465874 l 10.98131,-10.98131 10.615267,10.615267 c 0.232937,0.232936 0.598981,0.465873 1.197962,0.465873 0.59898,0 0.965024,-0.266213 1.197961,-0.465873 0.332767,-0.332767 0.49915,-0.765364 0.49915,-1.231238 -0.03328,-0.432597 -0.19966,-0.831918 -0.532427,-1.131408 z"
     id="path1954"
     style="stroke-width:0.332767" /></svg>
