<?xml version="1.0" encoding="UTF-8" standalone="no"?>
<svg
   width="50pt"
   height="50pt"
   version="1.1"
   viewBox="0 0 50 50"
   id="svg177"
   sodipodi:docname="noun-loading-2135467.svg"
   inkscape:version="1.2 (1:1.2+202206011327+fc4e4096c5)"
   xmlns:inkscape="http://www.inkscape.org/namespaces/inkscape"
   xmlns:sodipodi="http://sodipodi.sourceforge.net/DTD/sodipodi-0.dtd"
   xmlns="http://www.w3.org/2000/svg"
   xmlns:svg="http://www.w3.org/2000/svg">
  <sodipodi:namedview
     id="namedview179"
     pagecolor="#ffffff"
     bordercolor="#666666"
     borderopacity="1.0"
     inkscape:showpageshadow="2"
     inkscape:pageopacity="0.0"
     inkscape:pagecheckerboard="0"
     inkscape:deskcolor="#d1d1d1"
     inkscape:document-units="pt"
     showgrid="false"
     inkscape:zoom="2.860752"
     inkscape:cx="-54.705895"
     inkscape:cy="116.40296"
     inkscape:window-width="1920"
     inkscape:window-height="1009"
     inkscape:window-x="0"
     inkscape:window-y="34"
     inkscape:window-maximized="1"
     inkscape:current-layer="g175" />
  <defs
     id="defs71">
    <symbol
       id="w"
       overflow="visible">
      <path
         d="M 3.6562,-0.21875 C 3.4687,-0.125 3.26948,-0.05078 3.06245,0 2.86323,0.050781 2.6562,0.078125 2.43745,0.078125 c -0.66797,0 -1.1992,-0.17969 -1.5938,-0.54688 -0.38672,-0.375 -0.57812,-0.87891 -0.57812,-1.5156 0,-0.64453 0.19141,-1.1484 0.57812,-1.5156 0.39453,-0.375 0.92578,-0.5625 1.5938,-0.5625 0.21875,0 0.42578,0.027344 0.625,0.078125 0.20703,0.054687 0.40625,0.125 0.59375,0.21875 v 0.82812 c -0.1875,-0.125 -0.375,-0.21875 -0.5625,-0.28125 -0.17969,-0.0625 -0.37109,-0.09375 -0.57812,-0.09375 -0.36719,0 -0.65625,0.12109 -0.875,0.35938 -0.21094,0.23047 -0.3125,0.55469 -0.3125,0.96875 0,0.40625 0.10156,0.73047 0.3125,0.96875 0.21875,0.23047 0.50781,0.34375 0.875,0.34375 0.20703,0 0.39844,-0.023437 0.57812,-0.078125 0.1875,-0.0625 0.375,-0.16016 0.5625,-0.29688 z"
         id="path2" />
    </symbol>
    <symbol
       id="d"
       overflow="visible">
      <path
         d="M 2.6875,-2.1719 C 2.601562,-2.210963 2.51953,-2.242213 2.4375,-2.26565 2.351562,-2.285181 2.26953,-2.2969 2.1875,-2.2969 c -0.25,0 -0.44531,0.085937 -0.57812,0.25 -0.125,0.15625 -0.1875,0.38281 -0.1875,0.67188 V -2e-5 H 0.45313 v -2.9844 h 0.96875 v 0.48438 c 0.11328,-0.19531 0.25,-0.33594 0.40625,-0.42188 0.16406,-0.09375 0.35938,-0.14062 0.57812,-0.14062 h 0.10938 c 0.039063,0 0.09375,0.00781 0.15625,0.015625 z"
         id="path5" />
    </symbol>
    <symbol
       id="a"
       overflow="visible">
      <path
         d="m 3.4375,-1.5 v 0.26562 H 1.2031 c 0.03125,0.23047 0.11328,0.40234 0.25,0.51562 0.13281,0.10547 0.32812,0.15625 0.57812,0.15625 0.20703,0 0.41406,-0.023438 0.625,-0.078125 0.20703,-0.0625 0.42188,-0.15625 0.64062,-0.28125 v 0.73438 c -0.21875,0.09375 -0.44531,0.16406 -0.67188,0.20312 -0.23047,0.039062 -0.45312,0.0625 -0.67188,0.0625 -0.54297,0 -0.96484,-0.13281 -1.2656,-0.40625 -0.30469,-0.28125 -0.45312,-0.67188 -0.45312,-1.1719 0,-0.47656 0.14453,-0.85938 0.4375,-1.1406 0.30078,-0.28125 0.70703,-0.42188 1.2188,-0.42188 0.46875,0 0.84375,0.14062 1.125,0.42188 0.28125,0.28126 0.42188,0.66406 0.42188,1.1406 z M 2.46875,-1.82812 C 2.46875,-2.0039 2.410156,-2.14453 2.29687,-2.25 2.1914,-2.36328 2.05468,-2.42188 1.89062,-2.42188 c -0.1875,0 -0.33984,0.054687 -0.45312,0.15625 -0.11719,0.10547 -0.1875,0.25 -0.21875,0.4375 z"
         id="path8" />
    </symbol>
    <symbol
       id="c"
       overflow="visible">
      <path
         d="m 1.7969,-1.3438 c -0.19922,0 -0.35156,0.039062 -0.45312,0.10938 -0.09375,0.0625 -0.14062,0.16406 -0.14062,0.29688 0,0.11719 0.035156,0.21094 0.10938,0.28125 0.082031,0.0625 0.19531,0.09375 0.34375,0.09375 0.17578,0 0.32812,-0.0625 0.45312,-0.1875 0.125,-0.125 0.1875,-0.28516 0.1875,-0.48438 V -1.3438 Z M 3.2657,-1.70318 V -8e-5 H 2.29695 v -0.4375 c -0.125,0.17969 -0.27344,0.30859 -0.4375,0.39062 -0.15625,0.082031 -0.35156,0.125 -0.57812,0.125 -0.3125,0 -0.57031,-0.085938 -0.76562,-0.26562 -0.1875,-0.1875 -0.28125,-0.42188 -0.28125,-0.70312 0,-0.35156 0.11719,-0.61328 0.35938,-0.78125 0.23828,-0.16406 0.61719,-0.25 1.1406,-0.25 h 0.5625 v -0.0625 c 0,-0.15625 -0.0625,-0.26562 -0.1875,-0.32812 -0.11719,-0.070312 -0.29688,-0.10938 -0.54688,-0.10938 -0.21094,0 -0.40234,0.023437 -0.57812,0.0625 -0.17969,0.042969 -0.33984,0.10156 -0.48438,0.17188 v -0.71875 c 0.19531,-0.050781 0.39844,-0.085938 0.60938,-0.10938 0.20703,-0.03125 0.41406,-0.046875 0.625,-0.046875 0.53906,0 0.92969,0.10938 1.1719,0.32812 0.23828,0.21094 0.35938,0.55469 0.35938,1.0312 z"
         id="path11" />
    </symbol>
    <symbol
       id="b"
       overflow="visible">
      <path
         d="m 1.5,-3.8438 v 0.85938 h 0.98438 v 0.67188 H 1.5 v 1.2812 c 0,0.13672 0.023438,0.23047 0.078125,0.28125 0.0625,0.042969 0.17578,0.0625 0.34375,0.0625 h 0.48438 V -9e-5 h -0.8125 c -0.38672,0 -0.65625,-0.078125 -0.8125,-0.23438 -0.15625,-0.156255 -0.23438,-0.42188 -0.23438,-0.79688 v -1.2812 h -0.46875 v -0.67188 h 0.46875 v -0.85938 z"
         id="path14" />
    </symbol>
    <symbol
       id="l"
       overflow="visible">
      <path
         d="M 2.5,-2.5469 V -4.1563 H 3.45312 V -1e-4 H 2.5 v -0.4375 c -0.13672,0.17969 -0.28125,0.30859 -0.4375,0.39062 -0.15625,0.082031 -0.33984,0.125 -0.54688,0.125 -0.375,0 -0.68359,-0.14453 -0.92188,-0.4375 -0.23047,-0.28906 -0.34375,-0.67188 -0.34375,-1.1406 0,-0.45703 0.11328,-0.83203 0.34375,-1.125 0.23828,-0.28906 0.54688,-0.4375 0.92188,-0.4375 0.19531,0 0.375,0.042969 0.53125,0.125 0.16406,0.085938 0.31641,0.21484 0.45312,0.39062 z m -0.64062,1.9375 c 0.20703,0 0.36328,-0.070313 0.46875,-0.21875 0.11328,-0.15625 0.17188,-0.37891 0.17188,-0.67188 0,-0.28125 -0.058594,-0.49219 -0.17188,-0.64062 -0.10547,-0.15625 -0.26172,-0.23438 -0.46875,-0.23438 -0.19922,0 -0.35547,0.078125 -0.46875,0.23438 -0.10547,0.14844 -0.15625,0.35938 -0.15625,0.64062 0,0.29297 0.050781,0.51562 0.15625,0.67188 0.11328,0.14844 0.26953,0.21875 0.46875,0.21875 z"
         id="path17" />
    </symbol>
    <symbol
       id="k"
       overflow="visible">
      <path
         d="m 2.0469,-0.60938 c 0.20703,0 0.36328,-0.070313 0.46875,-0.21875 0.11328,-0.15625 0.17188,-0.37891 0.17188,-0.67188 0,-0.28125 -0.058594,-0.49219 -0.17188,-0.64062 -0.10547,-0.15625 -0.26172,-0.23438 -0.46875,-0.23438 -0.19922,0 -0.35547,0.078125 -0.46875,0.23438 -0.10547,0.14844 -0.15625,0.35938 -0.15625,0.64062 0,0.29297 0.050781,0.51562 0.15625,0.67188 0.11328,0.14844 0.26953,0.21875 0.46875,0.21875 z m -0.625,-1.9375 c 0.125,-0.17578 0.26562,-0.30469 0.42188,-0.39062 0.16406,-0.082031 0.35156,-0.125 0.5625,-0.125 0.36328,0 0.66406,0.14844 0.90625,0.4375 0.23828,0.29297 0.35938,0.66797 0.35938,1.125 0,0.46875 -0.12109,0.85156 -0.35938,1.1406 -0.24219,0.29297 -0.54297,0.4375 -0.90625,0.4375 -0.21094,0 -0.39844,-0.042969 -0.5625,-0.125 C 1.68753,-0.128931 1.5469,-0.25784 1.4219,-0.43752 V -2e-5 H 0.45315 v -4.1562 H 1.4219 Z"
         id="path20" />
    </symbol>
    <symbol
       id="j"
       overflow="visible">
      <path
         d="m 0.0625,-2.9844 h 0.95312 l 0.8125,2.0156 0.6875,-2.0156 H 3.46874 L 2.20314,0.2812 C 2.07814,0.61323 1.9297,0.84761 1.76564,0.98432 1.59767,1.11713 1.37502,1.18744 1.09376,1.18744 H 0.54688 V 0.54682 h 0.29688 c 0.16406,0 0.28516,-0.027344 0.35938,-0.078125 0.070313,-0.054688 0.12891,-0.14062 0.17188,-0.26562 l 0.03125,-0.09375 z"
         id="path23" />
    </symbol>
    <symbol
       id="i"
       overflow="visible">
      <path
         d="m 4.0781,-0.29688 c -0.25,0.125 -0.51562,0.21875 -0.79688,0.28125 -0.27344,0.0625 -0.55469,0.09375 -0.84375,0.09375 -0.66797,0 -1.1992,-0.17969 -1.5938,-0.54688 -0.38672,-0.375 -0.57812,-0.87891 -0.57812,-1.5156 0,-0.64453 0.19531,-1.1484 0.59375,-1.5156 0.39453,-0.375 0.9375,-0.5625 1.625,-0.5625 0.26953,0 0.52344,0.027344 0.76562,0.078125 0.23828,0.054687 0.46875,0.125 0.6875,0.21875 v 0.82812 c -0.21875,-0.125 -0.4375,-0.21875 -0.65625,-0.28125 -0.21875,-0.0625 -0.44531,-0.09375 -0.67188,-0.09375 -0.40625,0 -0.72656,0.11719 -0.95312,0.34375 -0.21875,0.23047 -0.32812,0.55859 -0.32812,0.98438 0,0.41797 0.10156,0.74219 0.3125,0.96875 0.21875,0.23047 0.52344,0.34375 0.92188,0.34375 0.10156,0 0.20312,-0.003906 0.29688,-0.015625 0.09375,-0.007812 0.17578,-0.03125 0.25,-0.0625 v -0.78125 h -0.625 v -0.6875 h 1.5938 z"
         id="path26" />
    </symbol>
    <symbol
       id="f"
       overflow="visible">
      <path
         d="m 3.2344,-2.5 c 0.11328,-0.17578 0.25391,-0.3125 0.42188,-0.40625 0.16406,-0.10156 0.35156,-0.15625 0.5625,-0.15625 0.33203,0 0.58594,0.10938 0.76562,0.32812 0.1875,0.21094 0.28125,0.51172 0.28125,0.90625 V -3e-5 H 4.2969 v -1.5625 c 0.00781,-0.019531 0.015625,-0.039062 0.015625,-0.0625 v -0.10938 c 0,-0.21875 -0.03125,-0.375 -0.09375,-0.46875 -0.0625,-0.09375 -0.16406,-0.14062 -0.29688,-0.14062 -0.1875,0 -0.33594,0.078125 -0.4375,0.23438 -0.09375,0.14844 -0.14062,0.35938 -0.14062,0.64062 V 2e-5 h -0.96875 v -1.5625 c 0,-0.33203 -0.03125,-0.54688 -0.09375,-0.64062 -0.054688,-0.09375 -0.15234,-0.14062 -0.29688,-0.14062 -0.17969,0 -0.32031,0.078125 -0.42188,0.23438 -0.09375,0.14844 -0.14062,0.35938 -0.14062,0.64062 V 8e-5 h -0.96875 v -2.9844 h 0.96875 v 0.4375 c 0.11328,-0.17578 0.24219,-0.30469 0.39062,-0.39062 0.15625,-0.082031 0.32812,-0.125 0.51562,-0.125 0.20703,0 0.39062,0.054688 0.54688,0.15625 0.15625,0.09375 0.27344,0.23047 0.35938,0.40625 z"
         id="path29" />
    </symbol>
    <symbol
       id="v"
       overflow="visible">
      <path
         d="m 1.5312,-3.2031 v 2.4219 h 0.375 c 0.41406,0 0.73438,-0.10156 0.95312,-0.3125 0.21875,-0.20703 0.32812,-0.50781 0.32812,-0.90625 0,-0.39453 -0.10938,-0.69141 -0.32812,-0.89062 C 2.64057,-3.0976 2.32026,-3.20307 1.9062,-3.20307 Z M 0.5,-3.98435 h 1.0938 c 0.60156,0 1.0508,0.042969 1.3438,0.125 0.30078,0.085937 0.55469,0.23047 0.76562,0.4375 0.1875,0.1875 0.32031,0.40234 0.40625,0.64062 0.09375,0.23047 0.14062,0.49219 0.14062,0.78125 0,0.30469 -0.046875,0.57422 -0.14062,0.8125 -0.085937,0.23047 -0.21875,0.4375 -0.40625,0.625 -0.21875,0.19922 -0.48047,0.34375 -0.78125,0.4375 C 2.629,-0.039042 2.18759,2e-5 1.59387,2e-5 h -1.0938 z"
         id="path32" />
    </symbol>
    <symbol
       id="h"
       overflow="visible">
      <path
         d="m 2.7969,-2.8906 v 0.71875 c -0.21094,-0.082031 -0.40625,-0.14453 -0.59375,-0.1875 -0.1875,-0.039063 -0.37109,-0.0625 -0.54688,-0.0625 -0.17969,0 -0.3125,0.023437 -0.40625,0.0625 -0.085938,0.042969 -0.125,0.10938 -0.125,0.20312 0,0.085938 0.03125,0.14844 0.09375,0.1875 0.070312,0.042969 0.19531,0.074219 0.375,0.09375 l 0.15625,0.015625 c 0.48828,0.0625 0.81641,0.16797 0.98438,0.3125 0.17578,0.13672 0.26562,0.35938 0.26562,0.67188 0,0.3125 -0.12109,0.55469 -0.35938,0.71875 -0.23047,0.15625 -0.57812,0.23438 -1.0469,0.23438 -0.19922,0 -0.40625,-0.015625 -0.625,-0.046875 C 0.7578,3e-5 0.54686,-0.046845 0.32812,-0.10934 v -0.71875 c 0.1875,0.085937 0.37891,0.15234 0.57812,0.20312 0.20703,0.042969 0.41406,0.0625 0.625,0.0625 0.1875,0 0.32812,-0.023438 0.42188,-0.078125 0.09375,-0.050781 0.14062,-0.125 0.14062,-0.21875 0,-0.09375 -0.039062,-0.16016 -0.10938,-0.20312 -0.0625,-0.039062 -0.1875,-0.070312 -0.375,-0.09375 L 1.43748,-1.17184 C 1.00779,-1.222621 0.70701,-1.32028 0.53123,-1.46872 c -0.16797,-0.14453 -0.25,-0.36328 -0.25,-0.65625 0,-0.32031 0.10938,-0.55469 0.32812,-0.70312 0.21875,-0.15625 0.55078,-0.23438 1,-0.23438 0.17578,0 0.35938,0.015625 0.54688,0.046875 0.19531,0.023437 0.41016,0.0625 0.64062,0.125 z"
         id="path35" />
    </symbol>
    <symbol
       id="u"
       overflow="visible">
      <path
         d="M 0.45312,-2.9844 H 1.42187 V 0 H 0.45312 Z m 0,-1.1719 h 0.96875 v 0.78125 H 0.45312 Z"
         id="path38" />
    </symbol>
    <symbol
       id="t"
       overflow="visible">
      <path
         d="M 2.5,-0.5 C 2.36328,-0.33203 2.21875,-0.20703 2.0625,-0.125 1.90625,-0.039062 1.72266,0 1.51562,0 1.14843,0 0.84765,-0.14062 0.60937,-0.42188 0.36718,-0.71094 0.24999,-1.08204 0.24999,-1.53128 c 0,-0.44531 0.11719,-0.8125 0.35938,-1.0938 0.23828,-0.28906 0.53906,-0.4375 0.90625,-0.4375 0.20703,0 0.39062,0.042969 0.54688,0.125 0.15625,0.085938 0.30078,0.21484 0.4375,0.39062 v -0.4375 h 0.95312 v 2.6875 C 3.45312,0.1796 3.30078,0.54679 3,0.79684 2.69531,1.05465 2.25391,1.18746 1.6719,1.18746 1.49221,1.18746 1.31643,1.171835 1.14065,1.140585 0.96096,1.109335 0.78518,1.06246 0.6094,0.999965 v -0.73438 c 0.16406,0.09375 0.32812,0.16016 0.48438,0.20312 0.16406,0.050781 0.33203,0.078125 0.5,0.078125 0.3125,0 0.53906,-0.070313 0.6875,-0.20312 0.14453,-0.13672 0.21875,-0.34766 0.21875,-0.64062 z M 1.85938,-2.375 c -0.19922,0 -0.35547,0.074219 -0.46875,0.21875 -0.10547,0.14844 -0.15625,0.35547 -0.15625,0.625 0,0.27344 0.050781,0.48047 0.15625,0.625 0.11328,0.14844 0.26953,0.21875 0.46875,0.21875 0.19531,0 0.35156,-0.070312 0.46875,-0.21875 0.11328,-0.14453 0.17188,-0.35156 0.17188,-0.625 0,-0.26953 -0.058594,-0.47656 -0.17188,-0.625 C 2.21094,-2.30078 2.05469,-2.375 1.85938,-2.375 Z"
         id="path41" />
    </symbol>
    <symbol
       id="g"
       overflow="visible">
      <path
         d="M 3.4688,-1.8281 V 0 H 2.50005 v -1.3906 c 0,-0.25781 -0.00781,-0.4375 -0.015625,-0.53125 -0.011719,-0.10156 -0.03125,-0.17578 -0.0625,-0.21875 -0.03125,-0.0625 -0.085937,-0.10938 -0.15625,-0.14062 -0.0625,-0.039062 -0.13281,-0.0625 -0.20312,-0.0625 -0.21094,0 -0.37109,0.078125 -0.48438,0.23438 -0.10547,0.15625 -0.15625,0.37109 -0.15625,0.64062 V 8e-5 h -0.96875 v -2.9844 h 0.96875 v 0.4375 c 0.13281,-0.17578 0.28516,-0.30469 0.45312,-0.39062 0.16406,-0.082031 0.34375,-0.125 0.53125,-0.125 0.34375,0 0.60156,0.10938 0.78125,0.32812 0.1875,0.21094 0.28125,0.51172 0.28125,0.90625 z"
         id="path44" />
    </symbol>
    <symbol
       id="s"
       overflow="visible">
      <path
         d="m 2.4219,-4.1562 v 0.625 H 1.90628 c -0.13672,0 -0.23438,0.027344 -0.29688,0.078125 -0.054687,0.054687 -0.078125,0.13672 -0.078125,0.25 v 0.21875 h 0.82812 v 0.67188 h -0.82812 v 2.3125 h -0.95312 v -2.3125 h -0.46875 v -0.67188 h 0.46875 v -0.21875 c 0,-0.32031 0.085937,-0.5625 0.26562,-0.71875 0.1875,-0.15625 0.47266,-0.23438 0.85938,-0.23438 z"
         id="path47" />
    </symbol>
    <symbol
       id="e"
       overflow="visible">
      <path
         d="m 1.875,-2.375 c -0.21094,0 -0.37109,0.078125 -0.48438,0.23438 -0.10547,0.14844 -0.15625,0.35938 -0.15625,0.64062 0,0.29297 0.050781,0.51562 0.15625,0.67188 0.11328,0.14844 0.27344,0.21875 0.48438,0.21875 0.20703,0 0.36719,-0.070313 0.48438,-0.21875 C 2.47266,-0.98437 2.53126,-1.20703 2.53126,-1.5 2.53126,-1.78125 2.472666,-1.99219 2.35938,-2.14062 2.24219,-2.29687 2.08204,-2.375 1.875,-2.375 Z m 0,-0.6875 c 0.51953,0 0.92188,0.14062 1.2031,0.42188 0.28906,0.27344 0.4375,0.65234 0.4375,1.1406 0,0.5 -0.14844,0.89062 -0.4375,1.1719 C 2.79685,-0.05468 2.39451,0.07813 1.875,0.07813 1.36328,0.07813 0.96094,-0.05468 0.6719,-0.32812 0.37893,-0.60937 0.2344,-1 0.2344,-1.50002 c 0,-0.48828 0.14453,-0.86719 0.4375,-1.1406 C 0.96096,-2.92187 1.36331,-3.0625 1.875,-3.0625 Z"
         id="path50" />
    </symbol>
    <symbol
       id="r"
       overflow="visible">
      <path
         d="M 3.4688,-1.8281 V 0 H 2.50005 v -1.3906 c 0,-0.25781 -0.00781,-0.4375 -0.015625,-0.53125 -0.011719,-0.10156 -0.03125,-0.17578 -0.0625,-0.21875 -0.03125,-0.0625 -0.085937,-0.10938 -0.15625,-0.14062 -0.0625,-0.039062 -0.13281,-0.0625 -0.20312,-0.0625 -0.21094,0 -0.37109,0.078125 -0.48438,0.23438 -0.10547,0.15625 -0.15625,0.37109 -0.15625,0.64062 V 8e-5 h -0.96875 v -4.1562 h 0.96875 v 1.6094 c 0.13281,-0.17578 0.28516,-0.30469 0.45312,-0.39062 0.16406,-0.082031 0.34375,-0.125 0.53125,-0.125 0.34375,0 0.60156,0.10938 0.78125,0.32812 0.1875,0.21094 0.28125,0.51172 0.28125,0.90625 z"
         id="path53" />
    </symbol>
    <symbol
       id="q"
       overflow="visible">
      <path
         d="M 0.5,-3.9844 H 1.6562 L 3.0937,-1.25 V -3.9844 H 4.07808 V 0 H 2.92188 L 1.48438,-2.7344 V 0 H 0.5 Z"
         id="path56" />
    </symbol>
    <symbol
       id="p"
       overflow="visible">
      <path
         d="m 0.42188,-1.1719 v -1.8125 h 0.96875 v 0.29688 0.60938 0.48438 c 0,0.24219 0.00391,0.41797 0.015625,0.53125 0.00781,0.10547 0.03125,0.17969 0.0625,0.21875 0.039062,0.0625 0.09375,0.11719 0.15625,0.15625 0.0625,0.03125 0.13281,0.046875 0.21875,0.046875 0.19531,0 0.35156,-0.078125 0.46875,-0.23438 0.11328,-0.15625 0.17188,-0.36719 0.17188,-0.64062 v -1.4688 h 0.95312 v 2.9844 h -0.95312 v -0.4375 c -0.14844,0.17969 -0.30469,0.30859 -0.46875,0.39062 -0.15625,0.082031 -0.33594,0.125 -0.53125,0.125 -0.34375,0 -0.60938,-0.10156 -0.79688,-0.3125 -0.17969,-0.21875 -0.26562,-0.53125 -0.26562,-0.9375 z"
         id="path59" />
    </symbol>
    <symbol
       id="o"
       overflow="visible">
      <path
         d="m 0.5,-3.9844 h 1.7031 c 0.50781,0 0.89844,0.11719 1.1719,0.34375 0.26953,0.21875 0.40625,0.53906 0.40625,0.95312 0,0.41797 -0.13672,0.74219 -0.40625,0.96875 -0.27344,0.21875 -0.66406,0.32812 -1.1719,0.32812 H 1.53122 V -6e-5 h -1.0312 z m 1.0312,0.75 v 1.1094 h 0.5625 c 0.19531,0 0.34766,-0.046875 0.45312,-0.14062 C 2.6601,-2.36718 2.7187,-2.50781 2.7187,-2.6875 2.7187,-2.86328 2.660106,-3 2.54682,-3.09375 2.44135,-3.1875 2.28901,-3.23437 2.0937,-3.23437 Z"
         id="path62" />
    </symbol>
    <symbol
       id="n"
       overflow="visible">
      <path
         d="m 0.45312,-2.9844 h 0.96875 v 2.9375 c 0,0.39453 -0.10156,0.69531 -0.29688,0.90625 C 0.93749,1.0781 0.66015,1.18747 0.29687,1.18747 H -0.18751 V 0.54685 h 0.17188 c 0.17578,0 0.29688,-0.042969 0.35938,-0.125 C 0.414062,0.347631 0.45313,0.19138 0.45313,-0.0469 Z m 0,-1.1719 h 0.96875 v 0.78125 H 0.45312 Z"
         id="path65" />
    </symbol>
    <symbol
       id="m"
       overflow="visible">
      <path
         d="m 2.875,-2.8906 v 0.76562 C 2.75,-2.207011 2.61719,-2.26951 2.48438,-2.31248 2.34766,-2.351542 2.21094,-2.37498 2.07813,-2.37498 c -0.27344,0 -0.48047,0.078125 -0.625,0.23438 -0.14844,0.15625 -0.21875,0.37109 -0.21875,0.64062 0,0.28125 0.070313,0.5 0.21875,0.65625 0.14453,0.15625 0.35156,0.23438 0.625,0.23438 0.14453,0 0.28516,-0.019531 0.42188,-0.0625 0.13281,-0.039063 0.25781,-0.10938 0.375,-0.20312 v 0.78125 c -0.14844,0.0625 -0.29688,0.10156 -0.45312,0.125 -0.15625,0.03125 -0.3125,0.046875 -0.46875,0.046875 -0.54297,0 -0.96484,-0.13281 -1.2656,-0.40625 -0.30469,-0.28125 -0.45312,-0.67188 -0.45312,-1.1719 0,-0.48828 0.14844,-0.86719 0.45312,-1.1406 0.30078,-0.28125 0.72266,-0.42188 1.2656,-0.42188 0.15625,0 0.3125,0.015625 0.46875,0.046875 0.15625,0.023437 0.30469,0.0625 0.45312,0.125 z"
         id="path68" />
    </symbol>
  </defs>
  <g
     id="g175">
    <path
       d="m 24.503271,43.936601 c -0.684728,0 -1.240817,0.558861 -1.240817,1.24359 0,0.683184 0.556073,1.240818 1.240817,1.240818 0.684729,0 1.242084,-0.557625 1.242084,-1.240818 0,-0.684729 -0.557625,-1.24359 -1.242084,-1.24359 z"
       id="path73"
       style="stroke-width:0.0791742;fill:#ffffff" />
    <path
       d="m 24.503271,2.0835834 c -0.684728,0 -1.240817,0.5588608 -1.240817,1.2435896 0,0.6847288 0.556073,1.2408173 1.240817,1.2408173 0.684729,0 1.242084,-0.5560725 1.242084,-1.2408173 0,-0.6847288 -0.557625,-1.2435896 -1.242084,-1.2435896 z"
       id="path75"
       style="stroke-width:0.0791742;fill:#ffffff" />
    <path
       d="m 34.960587,41.134631 c -0.216493,0 -0.430201,0.05691 -0.61824,0.165149 -0.288242,0.166392 -0.493911,0.434223 -0.580505,0.754941 -0.08536,0.319484 -0.04206,0.654729 0.124638,0.941775 0.220515,0.382879 0.634628,0.622571 1.077162,0.622571 0.215259,0 0.430201,-0.05814 0.618241,-0.167938 0.59257,-0.342364 0.795779,-1.10408 0.454632,-1.6967 -0.220823,-0.38443 -0.633393,-0.619782 -1.075976,-0.619782 z"
       id="path77"
       style="stroke-width:0.0791742;fill:#ffffff" />
    <path
       d="m 14.665888,7.2063859 c 0.59257,-0.3423643 0.796964,-1.105347 0.454632,-1.6967005 -0.221133,-0.3828759 -0.633083,-0.6210255 -1.076293,-0.6210255 -0.216493,0 -0.430198,0.056906 -0.618855,0.1663922 -0.593498,0.3423643 -0.796966,1.1028952 -0.454634,1.6982069 0.32783,0.5681362 1.116751,0.7806071 1.695117,0.4530885 z"
       id="path79"
       style="stroke-width:0.0791742;fill:#ffffff" />
    <path
       d="m 43.239032,33.638428 c -0.188039,-0.108247 -0.401744,-0.165152 -0.61824,-0.165152 -0.44381,0 -0.85516,0.23814 -1.077162,0.62257 -0.342364,0.592572 -0.137938,1.353087 0.4534,1.695435 0.576481,0.331541 1.365117,0.116291 1.695434,-0.453399 0.342053,-0.593806 0.137935,-1.355539 -0.4534,-1.69947 z"
       id="path81"
       style="stroke-width:0.0791742;fill:#ffffff" />
    <path
       d="m 5.7706767,14.867036 c 0.5702997,0.328756 1.3667044,0.113506 1.6948,-0.455868 0.1651519,-0.28824 0.2096858,-0.62257 0.1237109,-0.942964 C 7.5032127,13.147487 7.2981582,12.879656 7.0114619,12.71574 6.8218781,12.604716 6.6075481,12.54657 6.3916799,12.54657 c -0.4431946,0 -0.8557939,0.239373 -1.0762935,0.62257 -0.3423644,0.592571 -0.1376271,1.352769 0.4552519,1.697889 z"
       id="path83"
       style="stroke-width:0.0791742;fill:#ffffff" />
    <path
       d="m 45.421071,23.00851 c -0.332776,0 -0.644218,0.129894 -0.878041,0.365255 -0.234117,0.235359 -0.36402,0.546484 -0.36402,0.876774 0,0.685973 0.557623,1.244853 1.239234,1.244853 0.684729,0 1.242083,-0.557624 1.243589,-1.243586 -0.0013,-0.684422 -0.55886,-1.243272 -1.240817,-1.243272 z"
       id="path85"
       style="stroke-width:0.0791742;fill:#ffffff" />
    <path
       d="m 3.5917252,23.011677 c -0.3361788,0 -0.647621,0.129894 -0.8814439,0.362774 -0.2347363,0.235362 -0.3633926,0.546486 -0.3627772,0.878044 -6.41e-4,0.332774 0.1280409,0.644213 0.361851,0.879543 0.2334992,0.234117 0.5458645,0.36402 0.8795432,0.36402 0.6838057,0 1.2408172,-0.558857 1.2408172,-1.243589 C 4.8290746,23.56774 4.2730277,23.011655 3.5916706,23.011655 Z"
       id="path87"
       style="stroke-width:0.0791742;fill:#ffffff" />
    <path
       d="m 42.615934,12.547236 c -0.216494,0 -0.428968,0.05691 -0.618241,0.166393 -0.288241,0.166392 -0.492677,0.435765 -0.579271,0.756483 -0.08536,0.319483 -0.04051,0.653495 0.124637,0.938925 0.22175,0.384431 0.634628,0.62257 1.077166,0.62257 0.216493,0 0.430198,-0.05691 0.618237,-0.166392 0.591337,-0.342363 0.796965,-1.102895 0.45587,-1.698206 -0.221753,-0.381643 -0.635865,-0.619783 -1.078431,-0.619783 z"
       id="path89"
       style="stroke-width:0.0791742;fill:#ffffff" />
    <path
       d="m 6.3882345,33.473744 c -0.2158747,0 -0.4289643,0.05691 -0.6170033,0.165149 -0.2882411,0.167936 -0.4932956,0.435768 -0.5792705,0.756486 -0.085975,0.319483 -0.040515,0.653495 0.1252558,0.940509 0.3281372,0.574937 1.1155615,0.787411 1.6954345,0.455867 C 7.6046038,35.448157 7.8090622,34.687674 7.4660472,34.09632 7.2439868,33.711893 6.8314195,33.473753 6.3882505,33.473753 Z"
       id="path91"
       style="stroke-width:0.0791742;fill:#ffffff" />
    <path
       d="m 35.584478,5.0522958 c -0.188039,-0.1082466 -0.403295,-0.163604 -0.619782,-0.163604 -0.443809,0 -0.856348,0.2369062 -1.077161,0.6182405 -0.166397,0.2882411 -0.209686,0.6238044 -0.124638,0.9445444 0.0866,0.3207208 0.292263,0.5857639 0.57927,0.7509189 0.579268,0.3368005 1.366702,0.1190702 1.696701,-0.4518449 0.33865,-0.592879 0.135457,-1.3558585 -0.454326,-1.6982068 z"
       id="path93"
       style="stroke-width:0.0791742;fill:#ffffff" />
    <path
       d="m 14.666679,41.300104 c -0.189581,-0.108248 -0.402363,-0.167935 -0.618237,-0.167935 -0.443195,0 -0.854528,0.238141 -1.075027,0.622571 -0.166393,0.288241 -0.211237,0.622567 -0.124638,0.942961 0.08597,0.319483 0.29103,0.585763 0.577725,0.750919 0.580505,0.338346 1.365122,0.11907 1.695435,-0.453396 0.165777,-0.288241 0.209068,-0.622571 0.123093,-0.942965 -0.08628,-0.320718 -0.291953,-0.587314 -0.578342,-0.752155 z"
       id="path95"
       style="stroke-width:0.0791742;fill:#ffffff" />
  </g>
</svg>
