<svg width="81" height="70" viewBox="0 0 81 70" fill="none" xmlns="http://www.w3.org/2000/svg">
<path d="M57.8701 44H54.2283L52.9376 42.92C57.4552 38.36 60.175 32.44 60.175 26C60.175 11.64 46.7604 0 30.2111 0C13.6617 0 0.24707 11.64 0.24707 26C0.24707 40.36 13.6617 52 30.2111 52C37.6329 52 44.4555 49.64 49.7107 45.72L50.9554 46.84V50L74.0046 69.96L80.8732 64L57.8701 44ZM30.2111 44C18.7325 44 9.46676 35.96 9.46676 26C9.46676 16.04 18.7325 8 30.2111 8C41.6896 8 50.9554 16.04 50.9554 26C50.9554 35.96 41.6896 44 30.2111 44Z" fill="white"/>
</svg>
