<?xml version="1.0" encoding="UTF-8" standalone="no"?>
<!-- Created with Inkscape (http://www.inkscape.org/) -->

<svg
   version="1.1"
   id="svg2"
   xml:space="preserve"
   width="558.48267"
   height="561.16663"
   viewBox="0 0 558.48267 561.16663"
   sodipodi:docname="whatsapp.svg"
   inkscape:version="1.2.2 (1:1.2.2+202305151915+b0a8486541)"
   xmlns:inkscape="http://www.inkscape.org/namespaces/inkscape"
   xmlns:sodipodi="http://sodipodi.sourceforge.net/DTD/sodipodi-0.dtd"
   xmlns="http://www.w3.org/2000/svg"
   xmlns:svg="http://www.w3.org/2000/svg"><defs
     id="defs6"><clipPath
       clipPathUnits="userSpaceOnUse"
       id="clipPath16"><path
         d="M 0,1066.861 H 1280.244 V 0 H 0 Z"
         id="path14" /></clipPath><clipPath
       clipPathUnits="userSpaceOnUse"
       id="clipPath28"><path
         d="M 0,1066.861 H 1280.244 V 0 H 0 Z"
         id="path26" /></clipPath></defs><sodipodi:namedview
     id="namedview4"
     pagecolor="#ffffff"
     bordercolor="#666666"
     borderopacity="1.0"
     inkscape:pageshadow="2"
     inkscape:pageopacity="0.0"
     inkscape:pagecheckerboard="0"
     showgrid="false"
     fit-margin-top="0"
     fit-margin-left="0"
     fit-margin-right="0"
     fit-margin-bottom="0"
     inkscape:zoom="0.14710225"
     inkscape:cx="-1043.4919"
     inkscape:cy="-543.83942"
     inkscape:window-width="1920"
     inkscape:window-height="1009"
     inkscape:window-x="0"
     inkscape:window-y="34"
     inkscape:window-maximized="1"
     inkscape:current-layer="g8"
     inkscape:showpageshadow="2"
     inkscape:deskcolor="#d1d1d1" /><g
     id="g8"
     inkscape:groupmode="layer"
     inkscape:label="WhatsApp_Logo_3"
     transform="matrix(1.3333333,0,0,-1.3333333,-1237.493,2148.339)"><g
       id="g22"
       style="fill:#e4572e;fill-opacity:1"
       transform="translate(497.3286,869.80841)"><g
         id="g24"
         clip-path="url(#clipPath28)"
         style="fill:#e4572e;fill-opacity:1"><g
           id="g30"
           transform="translate(736.1802,489.2339)"
           style="fill:#e4572e;fill-opacity:1"><path
             d="m 0,0 c -5.211,2.608 -30.831,15.213 -35.608,16.954 -4.776,1.739 -8.25,2.607 -11.724,-2.608 -3.474,-5.216 -13.461,-16.955 -16.501,-20.433 -3.039,-3.477 -6.079,-3.914 -11.29,-1.304 -5.211,2.608 -22.002,8.11 -41.906,25.865 -15.491,13.818 -25.95,30.882 -28.989,36.099 -3.04,5.217 -0.325,8.037 2.284,10.635 2.345,2.335 5.212,6.087 7.817,9.13 2.606,3.042 3.474,5.217 5.211,8.693 1.737,3.479 0.869,6.521 -0.435,9.129 -1.302,2.608 -11.724,28.259 -16.066,38.694 -4.23,10.16 -8.526,8.784 -11.725,8.945 -3.036,0.151 -6.514,0.183 -9.987,0.183 -3.474,0 -9.12,-1.304 -13.897,-6.52 -4.776,-5.217 -18.238,-17.825 -18.238,-43.473 0,-25.651 18.672,-50.429 21.278,-53.907 2.606,-3.479 36.745,-56.113 89.021,-78.685 12.432,-5.37 22.139,-8.576 29.707,-10.977 12.483,-3.967 23.843,-3.407 32.822,-2.065 10.012,1.495 30.831,12.605 35.174,24.777 C 11.29,-18.693 11.29,-8.26 9.987,-6.087 8.685,-3.913 5.211,-2.609 0,0 m -95.082,-129.825 h -0.07 c -31.105,0.012 -61.613,8.369 -88.227,24.162 -23.55412,13.992288 -44.02493,31.82592 -58.546,57.072 -17.352,27.598 -26.517,59.496 -26.503,92.25 0.038,95.573 77.8,173.329 173.415,173.329 46.3,-0.016 89.822,-18.07 122.551,-50.836 C 60.265,133.388 78.278,89.836 78.26,43.519 78.221,-52.062 0.46,-129.825 -95.082,-129.825 M 52.446,191.049 c -39.375,39.421 -91.739,61.14 -147.53,61.163 -114.953,0 -208.511,-93.552 -208.557,-208.54 -0.015,-36.758 9.588,-72.635 27.839,-104.264 16.94998,-30.883224 32.52907,-49.44677 80.971,-79.07 31.38126,-17.85758 64.759,-25.373 99.664,-25.384 h 0.085 10e-4 c 114.941,0 208.507,93.561 208.554,208.551 0.021,55.726 -21.652,108.124 -61.027,147.544"
             style="fill:#e4572e;fill-opacity:1;fill-rule:evenodd;stroke:none"
             id="path32"
             sodipodi:nodetypes="cccccccccccccscsccccccccsccccscccccccscscc" /></g></g></g></g></svg>
