<?xml version="1.0" standalone="no"?>
<!DOCTYPE svg PUBLIC "-//W3C//DTD SVG 20010904//EN"
 "http://www.w3.org/TR/2001/REC-SVG-20010904/DTD/svg10.dtd">
<svg version="1.0" xmlns="http://www.w3.org/2000/svg"
 width="1360.000000pt" height="1360.000000pt" viewBox="0 0 1360.000000 1360.000000"
 preserveAspectRatio="xMidYMid meet">
<metadata>
Created by potrace 1.14, written by Peter Selinger 2001-2017
</metadata>
<g transform="translate(0.000000,1360.000000) scale(0.100000,-0.100000)"
fill="#000000" stroke="none">
<path d="M6710 11625 c-47 -74 -89 -142 -95 -152 -31 -55 -111 -178 -117 -181
-5 -2 -8 -7 -8 -12 0 -5 -38 -68 -85 -142 -47 -73 -90 -144 -96 -158 -6 -13
-13 -27 -17 -30 -4 -3 -52 -77 -107 -165 -54 -88 -105 -167 -112 -176 -7 -9
-10 -19 -7 -22 4 -4 -1 -9 -10 -13 -9 -3 -16 -10 -16 -15 0 -5 -20 -40 -45
-79 -25 -39 -45 -74 -45 -79 0 -5 -4 -11 -8 -13 -4 -1 -26 -32 -47 -68 -21
-36 -41 -67 -44 -70 -3 -3 -13 -18 -21 -35 -8 -16 -18 -32 -21 -35 -8 -7 -71
-108 -88 -142 -8 -16 -18 -28 -23 -28 -4 0 -8 -5 -8 -10 0 -12 -52 -94 -63
-98 -4 -2 -5 -8 -1 -13 3 -5 0 -9 -5 -9 -6 0 -11 -4 -11 -10 0 -5 -20 -41 -45
-79 -25 -38 -45 -74 -45 -80 0 -6 -4 -11 -9 -11 -5 0 -16 -12 -24 -27 -26 -52
-131 -218 -142 -225 -5 -4 -6 -8 -2 -8 4 0 3 -6 -3 -12 -14 -17 -140 -216
-154 -245 -6 -13 -14 -23 -18 -23 -5 0 -8 -7 -8 -15 0 -8 -3 -15 -7 -15 -5 0
-17 -18 -27 -40 -11 -22 -23 -40 -28 -40 -4 0 -8 -4 -8 -9 0 -13 -132 -225
-142 -229 -4 -2 -8 -8 -8 -14 0 -5 -15 -33 -34 -61 -89 -138 -126 -198 -126
-207 0 -6 -4 -10 -10 -10 -5 0 -10 -6 -10 -14 0 -26 -28 -25 -47 1 -10 14 -24
31 -30 38 -7 8 -13 17 -13 20 0 4 -11 21 -25 39 -32 40 -33 41 -78 101 -20 28
-40 55 -45 60 -4 6 -18 26 -32 45 -13 19 -27 37 -30 40 -3 3 -30 39 -60 80
-30 41 -57 77 -60 80 -3 3 -23 29 -44 59 -21 30 -43 59 -48 65 -5 6 -72 97
-149 201 -77 105 -150 203 -162 219 -12 16 -34 45 -49 65 -15 20 -34 44 -42
54 -9 9 -16 19 -16 22 0 4 -162 223 -203 275 -7 8 -23 31 -37 50 -13 19 -30
41 -37 48 -7 7 -13 16 -13 20 0 4 -13 21 -28 39 -15 18 -45 57 -66 88 -36 50
-66 71 -66 45 0 -9 -19 -35 -47 -65 -7 -8 -13 -17 -13 -21 0 -4 -7 -14 -16
-23 -16 -17 -187 -245 -262 -351 -26 -36 -52 -69 -59 -73 -8 -5 -11 -12 -8
-18 4 -5 3 -9 -2 -9 -4 0 -19 -17 -33 -37 -14 -21 -32 -45 -40 -54 -8 -8 -22
-26 -30 -38 -16 -24 -142 -195 -163 -221 -7 -8 -37 -49 -67 -90 -30 -41 -57
-77 -60 -80 -4 -3 -28 -36 -55 -75 -27 -38 -52 -72 -55 -75 -3 -3 -23 -30 -45
-60 -22 -30 -44 -60 -50 -67 -26 -32 -33 -41 -51 -68 -10 -17 -24 -37 -31 -45
-59 -73 -153 -203 -153 -210 0 -4 -4 -10 -8 -12 -5 -1 -42 -48 -82 -103 -41
-55 -76 -102 -79 -105 -3 -3 -22 -27 -41 -55 -19 -27 -39 -55 -45 -61 -5 -7
-19 -24 -30 -39 -28 -38 -172 -234 -195 -265 -10 -14 -47 -63 -82 -110 -34
-47 -66 -89 -70 -95 -5 -5 -22 -28 -38 -50 -16 -22 -33 -44 -38 -50 -4 -5 -46
-62 -92 -125 -114 -154 -276 -372 -289 -387 -6 -7 -11 -15 -11 -18 0 -3 -7
-13 -16 -22 -9 -10 -74 -97 -145 -193 -70 -96 -135 -182 -144 -191 -8 -9 -15
-21 -15 -27 0 -5 -4 -12 -8 -14 -4 -1 -23 -25 -42 -53 -19 -27 -38 -52 -41
-55 -4 -3 -50 -63 -102 -135 -53 -71 -100 -134 -104 -140 -5 -5 -53 -71 -108
-145 -55 -74 -103 -136 -107 -138 -5 -2 -8 -10 -8 -17 0 -7 -7 -16 -16 -19 -8
-3 -13 -10 -10 -15 4 -5 2 -11 -2 -13 -11 -4 -162 -205 -162 -215 0 -12 1137
-10 1149 2 10 11 246 329 271 366 8 12 25 32 38 45 12 13 22 26 22 29 0 3 33
48 73 101 39 53 79 106 87 118 8 12 67 91 130 176 63 85 151 202 195 261 44
59 87 117 95 129 8 12 23 31 32 43 24 31 186 249 303 407 54 74 103 137 107
138 4 2 8 9 8 16 0 6 8 19 18 28 9 8 49 59 87 113 65 91 144 197 163 220 4 6
21 28 37 50 17 22 34 43 40 47 5 4 6 8 1 8 -5 0 0 8 11 18 11 9 22 22 24 28 2
6 14 24 27 40 22 28 265 354 300 402 17 24 65 88 80 107 4 6 24 33 45 62 40
54 53 58 76 20 14 -22 48 -68 337 -457 88 -118 207 -278 264 -355 57 -77 107
-141 112 -143 4 -2 8 -8 8 -13 0 -6 14 -28 31 -49 17 -21 30 -42 28 -47 -10
-23 -304 -488 -311 -491 -4 -2 -8 -8 -8 -13 0 -9 -181 -304 -231 -376 -16 -23
-29 -44 -29 -46 0 -3 -18 -33 -40 -66 -22 -33 -40 -63 -40 -66 0 -3 -5 -11
-11 -18 -5 -7 -73 -113 -149 -237 -77 -124 -143 -230 -148 -235 -4 -6 -27 -42
-51 -80 -56 -93 -58 -96 -118 -189 -56 -88 -54 -101 14 -86 18 4 34 5 37 2 10
-9 51 -8 65 2 10 8 15 8 18 0 4 -11 54 -11 72 1 6 3 11 3 11 -2 0 -7 163 -9
180 -3 3 2 10 1 15 0 30 -6 97 -5 101 1 2 4 17 4 32 0 15 -5 37 -4 50 0 12 5
22 5 22 1 0 -9 54 -7 69 3 6 3 11 3 11 -2 0 -4 31 -8 69 -8 39 0 67 4 64 9 -4
5 -1 6 5 2 17 -11 72 -14 78 -5 3 5 10 6 16 3 16 -10 67 -11 61 -2 -2 5 6 4
19 0 29 -10 49 -9 67 3 9 5 16 5 18 -1 4 -11 55 -10 72 1 6 3 11 3 11 -2 0 -7
163 -9 180 -3 3 2 10 1 15 0 30 -6 97 -5 101 1 2 4 17 4 32 0 15 -5 37 -4 50
0 12 5 22 5 22 1 0 -9 54 -7 69 3 6 3 11 3 11 -2 0 -4 31 -8 69 -8 39 0 67 4
63 9 -3 5 0 6 6 2 17 -11 72 -14 78 -5 3 5 10 6 16 3 17 -11 67 -10 61 0 -4 5
-1 6 5 2 17 -10 72 -14 78 -5 2 4 11 6 18 3 23 -9 97 -10 102 -2 3 5 10 6 15
2 16 -9 100 -11 105 -2 3 5 10 6 15 3 8 -6 161 -9 184 -5 6 1 14 2 20 0 50
-10 155 -12 650 -13 656 -2 573 -16 666 113 29 41 58 80 64 86 5 6 28 37 50
68 22 32 50 69 63 84 12 15 33 43 45 62 11 19 28 42 37 51 8 9 23 27 32 40 42
60 311 422 363 488 17 22 55 74 85 116 30 43 69 95 85 115 17 21 48 63 70 94
22 32 52 72 67 89 15 18 28 35 28 39 0 4 6 13 13 20 7 7 30 37 50 65 20 29 43
61 51 70 8 10 36 47 63 83 26 36 53 71 60 78 7 7 13 17 13 21 0 4 8 16 18 27
9 10 42 53 72 94 30 41 60 82 67 90 38 49 263 354 263 357 0 2 6 10 13 17 6 7
21 25 32 40 11 15 69 94 129 174 115 154 140 193 128 202 -7 4 -200 310 -212
335 -3 5 -22 36 -42 68 -21 31 -38 60 -38 63 0 2 -5 10 -11 17 -6 7 -59 91
-119 187 -60 96 -114 180 -119 187 -6 7 -11 15 -11 17 0 3 -36 62 -80 132 -44
69 -80 129 -80 133 0 4 -8 16 -17 27 -17 19 -30 39 -57 89 -6 11 -14 22 -17
25 -5 4 -86 133 -130 208 -9 15 -139 223 -289 462 -150 239 -282 451 -293 470
-10 19 -22 37 -26 40 -3 3 -12 15 -18 28 -26 46 -38 66 -46 76 -20 29 -57 87
-57 92 0 3 -11 20 -25 38 -14 18 -25 36 -25 39 0 3 -21 39 -47 79 -27 41 -53
83 -60 93 -13 22 -215 344 -223 356 -3 5 -44 -52 -90 -126z"/>
<path d="M10144 10213 c-32 -43 -62 -82 -67 -88 -4 -5 -36 -49 -72 -98 -35
-48 -69 -93 -75 -100 -9 -10 -118 -159 -185 -252 -11 -16 -28 -36 -37 -47 -10
-10 -18 -21 -18 -24 0 -3 -11 -20 -25 -38 -14 -17 -32 -40 -40 -51 -8 -11 -47
-64 -87 -117 -40 -54 -89 -120 -108 -147 -19 -28 -38 -50 -42 -51 -5 0 -8 -6
-8 -14 0 -8 -3 -16 -8 -18 -4 -1 -32 -37 -62 -78 -30 -41 -57 -77 -60 -80 -3
-3 -37 -48 -75 -100 -38 -52 -75 -101 -84 -107 -8 -7 -12 -13 -7 -13 4 0 -17
-30 -46 -67 -30 -38 -71 -93 -93 -123 -22 -30 -42 -57 -45 -60 -3 -3 -16 -20
-28 -38 l-24 -33 25 -37 c57 -85 217 -345 217 -353 0 -5 3 -9 8 -9 4 0 12 -9
17 -20 6 -11 49 -83 98 -160 48 -76 87 -144 87 -149 0 -6 4 -11 9 -11 5 0 16
-15 25 -34 25 -54 40 -61 70 -33 14 13 26 29 26 35 0 6 6 17 13 24 7 7 33 40
57 73 25 33 49 64 53 70 18 22 235 316 277 374 25 34 57 77 72 94 15 18 28 35
28 39 0 4 6 13 13 20 29 32 77 98 77 107 0 5 4 11 8 13 5 2 46 54 91 115 l83
113 80 -108 c44 -59 88 -118 98 -132 11 -14 69 -92 130 -175 61 -82 118 -160
128 -172 9 -12 24 -31 32 -43 8 -12 28 -39 43 -59 15 -20 33 -43 40 -52 7 -8
17 -23 22 -31 6 -9 71 -97 145 -196 74 -98 143 -190 153 -203 46 -63 211 -287
228 -309 60 -80 201 -270 221 -297 26 -37 27 -38 142 -191 47 -62 86 -117 86
-122 0 -4 4 -10 8 -12 8 -3 244 -316 251 -333 4 -10 7 -13 51 -65 16 -19 30
-38 30 -41 0 -3 9 -17 20 -30 25 -30 26 -32 79 -104 25 -33 48 -61 53 -63 4
-2 8 -8 8 -13 0 -8 73 -107 163 -223 12 -16 25 -33 28 -39 9 -12 109 -15 102
-3 -4 5 -1 6 5 2 17 -11 72 -14 78 -5 3 5 10 6 16 3 17 -11 67 -10 61 0 -4 5
-1 6 5 2 17 -10 72 -14 78 -5 2 4 11 6 18 3 23 -9 97 -10 102 -2 3 5 10 6 15
2 16 -9 100 -11 105 -2 3 5 10 6 15 3 8 -6 161 -9 184 -5 6 1 15 1 20 0 32 -6
97 -5 101 2 3 5 10 6 15 3 13 -9 177 -10 185 -2 4 3 15 2 25 -4 39 -20 17 18
-97 171 -63 85 -121 162 -128 171 -7 8 -32 42 -56 75 -24 32 -47 61 -52 62 -4
2 -8 8 -8 13 0 8 -31 51 -88 124 -4 6 -19 25 -32 44 -14 19 -31 42 -37 50 -24
30 -128 169 -143 191 -20 28 -88 121 -103 140 -7 8 -30 40 -51 70 -22 30 -44
60 -51 65 -6 6 -21 27 -34 48 -12 20 -27 37 -32 37 -5 0 -9 5 -9 11 0 6 -10
23 -22 38 -13 15 -31 38 -40 52 -27 37 -186 253 -196 264 -4 6 -24 33 -45 60
-20 28 -40 55 -44 60 -10 13 -87 116 -242 325 -67 91 -131 176 -141 190 -10
14 -42 57 -70 95 -28 39 -60 81 -70 95 -11 14 -44 59 -75 100 -30 41 -62 84
-71 95 -14 18 -310 416 -347 467 -51 70 -129 175 -140 188 -7 8 -23 31 -37 50
-13 19 -27 37 -30 40 -3 3 -22 28 -41 55 -18 28 -36 52 -39 55 -3 3 -17 21
-30 40 -13 19 -27 37 -30 40 -12 12 -70 89 -70 95 0 3 -9 15 -20 27 -11 12
-32 40 -47 62 -16 23 -34 47 -41 54 -6 8 -26 34 -44 60 -18 26 -38 53 -45 62
-7 8 -96 128 -197 265 -102 138 -189 255 -193 260 -5 6 -22 28 -38 50 -16 22
-32 44 -36 48 -4 5 -33 -27 -65 -70z"/>
<path d="M9363 7613 c-4 -10 -9 -20 -13 -23 -4 -3 -48 -61 -99 -130 -50 -69
-100 -136 -111 -150 -10 -14 -43 -59 -74 -100 -30 -41 -59 -79 -63 -85 -5 -5
-46 -62 -93 -125 -47 -63 -90 -121 -97 -128 -7 -7 -13 -16 -13 -20 0 -4 -10
-19 -23 -34 -13 -15 -31 -37 -40 -50 -107 -145 -301 -407 -314 -423 -9 -11
-26 -33 -38 -50 -56 -81 -229 -310 -237 -313 -4 -2 -8 -10 -8 -18 0 -8 -4 -14
-10 -14 -5 0 -10 -4 -10 -10 0 -5 -9 -20 -19 -32 -50 -58 -138 -184 -134 -191
2 -4 13 -2 24 3 10 6 19 7 19 2 0 -9 53 -8 69 3 6 3 11 3 11 -2 0 -7 163 -9
180 -3 3 2 10 1 15 0 30 -6 97 -5 101 1 2 4 17 4 32 0 15 -5 37 -4 50 0 12 5
22 5 22 1 0 -9 54 -7 69 3 6 3 11 3 11 -2 0 -4 31 -8 69 -8 39 0 67 4 64 9 -4
5 -1 6 5 2 17 -11 72 -14 78 -5 3 5 10 6 16 3 16 -10 67 -11 61 -2 -2 5 6 4
19 0 29 -10 49 -9 67 3 9 5 16 5 18 -1 4 -11 55 -10 72 1 6 3 11 3 11 -2 0 -7
163 -9 180 -3 3 2 10 1 15 0 30 -6 97 -5 101 1 2 4 17 4 32 0 15 -5 37 -4 50
0 12 5 22 5 22 1 0 -9 54 -7 69 3 6 3 11 3 11 -2 0 -4 31 -8 69 -8 39 0 67 4
64 9 -4 5 -1 6 5 2 17 -11 72 -14 78 -5 3 5 10 6 16 3 16 -10 67 -11 61 -2 -2
5 6 4 19 0 29 -10 49 -9 67 3 9 5 16 5 18 -1 4 -11 55 -10 72 1 6 3 11 3 11
-2 0 -7 163 -9 180 -3 3 2 10 1 15 0 30 -6 97 -5 101 1 2 4 17 4 32 0 15 -5
37 -4 50 0 12 5 22 5 22 1 0 -9 75 -6 90 3 6 3 10 2 10 -3 0 -7 9 -8 52 -3 6
1 -38 75 -131 221 -9 14 -25 40 -36 58 -11 18 -36 59 -56 90 -61 96 -402 643
-429 687 -14 23 -61 98 -105 168 -44 70 -84 135 -90 145 -5 10 -30 49 -55 87
-24 39 -49 78 -55 87 -56 94 -101 164 -107 166 -5 2 -8 8 -8 12 0 9 -70 124
-90 147 -5 7 -10 17 -10 22 0 19 -20 22 -27 4z"/>
<path d="M885 5332 c-22 -4 -137 -53 -145 -62 -3 -3 -25 -19 -49 -35 -63 -42
-175 -158 -205 -210 -13 -25 -48 -114 -76 -198 -28 -83 -55 -161 -60 -172 -4
-11 -25 -69 -46 -130 -20 -60 -59 -173 -86 -250 -55 -159 -60 -176 -60 -225
-2 -90 29 -173 85 -232 61 -64 64 -64 552 -62 242 1 451 4 466 7 32 5 169 77
169 88 0 5 6 9 13 9 18 0 127 107 173 170 32 44 88 170 100 225 2 6 37 109 79
230 68 195 95 275 111 325 3 8 4 15 3 15 -1 0 3 10 10 23 7 13 14 31 16 40 2
9 10 36 18 59 9 22 13 44 10 47 -4 3 -2 6 3 6 13 0 8 67 -11 160 -9 44 -95
150 -122 150 -7 0 -13 4 -13 8 0 5 -6 10 -12 11 -24 3 -903 6 -923 3z m543
-407 c20 -9 38 -26 45 -45 12 -26 10 -40 -18 -123 -17 -51 -34 -97 -37 -102
-3 -6 -9 -23 -13 -40 -11 -40 -12 -44 -15 -52 -1 -5 -2 -11 -1 -15 0 -5 -4 -8
-11 -8 -6 0 -9 -3 -5 -6 5 -6 0 -24 -29 -99 -9 -24 -7 -20 -22 -72 -7 -23 -17
-45 -22 -48 -6 -4 -8 -10 -5 -15 9 -15 -21 -65 -56 -94 -45 -38 -89 -54 -146
-53 -28 0 -55 -3 -61 -7 -7 -4 -12 -4 -12 1 0 10 -93 8 -109 -1 -6 -4 -11 -4
-11 1 0 4 -33 7 -74 5 -101 -5 -149 10 -169 50 -8 17 -14 39 -12 47 3 16 110
333 122 361 8 19 14 42 15 58 1 6 4 12 8 12 4 0 7 6 7 13 2 33 54 153 76 177
15 15 46 37 69 48 39 18 63 20 248 20 153 0 213 -3 238 -13z"/>
<path d="M2339 5323 c-41 -17 -66 -45 -98 -113 -26 -55 -26 -56 -25 -295 1
-132 4 -386 8 -565 3 -179 6 -372 7 -430 0 -69 6 -114 15 -130 7 -14 13 -22
14 -17 0 4 10 1 23 -6 16 -11 62 -14 185 -12 l162 1 42 30 c28 19 77 79 141
169 53 77 104 148 112 158 8 9 15 20 15 23 0 5 41 65 50 74 4 3 44 61 90 129
47 68 92 131 101 141 8 9 18 23 22 31 4 8 33 50 64 95 32 44 85 120 118 169
33 48 65 92 70 99 6 6 29 38 51 71 37 53 64 93 120 172 9 12 17 30 19 40 2 10
4 18 5 18 4 0 12 44 15 80 6 74 -4 79 -173 80 -139 1 -212 -8 -212 -27 0 -4
-4 -8 -10 -8 -16 0 -45 -33 -101 -117 -29 -43 -57 -82 -61 -88 -5 -5 -23 -32
-40 -60 -18 -27 -35 -52 -38 -55 -10 -9 -125 -179 -135 -200 -5 -11 -13 -20
-17 -20 -5 0 -8 -6 -8 -14 0 -8 -7 -16 -15 -20 -8 -3 -15 -10 -15 -15 0 -11
-137 -214 -164 -243 -9 -10 -14 -18 -11 -18 3 0 -3 -10 -15 -22 -11 -12 -20
-28 -20 -35 0 -7 -5 -13 -10 -13 -7 0 -10 153 -9 450 1 546 15 501 -153 505
-54 1 -100 -4 -119 -12z"/>
<path d="M4009 5312 c-76 -37 -147 -128 -200 -259 -7 -15 -13 -35 -15 -43 -1
-8 -9 -33 -17 -55 -22 -57 -158 -448 -161 -460 -1 -5 -4 -14 -7 -20 -4 -5 -10
-23 -14 -40 -10 -37 -9 -34 -24 -70 -7 -16 -13 -38 -14 -47 -1 -10 -5 -18 -10
-18 -4 0 -5 -5 -1 -11 3 -6 3 -14 -2 -18 -10 -7 -60 -160 -67 -204 -6 -36 14
-131 38 -181 26 -54 81 -104 131 -119 32 -9 161 -12 496 -11 507 1 510 1 598
73 54 43 76 67 92 104 7 15 16 27 19 27 8 0 20 52 32 137 3 21 -1 37 -9 44
-15 13 -105 16 -123 5 -6 -4 -11 -4 -11 1 0 9 -495 7 -510 -2 -6 -4 -10 -3
-10 2 0 4 -44 7 -98 7 -53 -1 -103 3 -109 8 -7 6 -13 7 -13 4 0 -4 -7 0 -16 9
-32 31 -25 83 18 144 l18 25 353 1 c401 0 379 -4 444 86 44 61 69 108 92 174
19 55 27 134 14 136 -4 1 -175 3 -378 3 -204 1 -376 5 -383 10 -28 17 16 141
61 170 18 13 90 15 446 15 349 0 427 3 445 14 34 23 76 65 76 77 0 5 4 10 8
10 12 0 77 134 91 185 15 54 14 105 -1 106 -7 1 -287 2 -621 3 l-609 1 -49
-23z"/>
<path d="M5595 5327 c-8 -4 -15 -5 -15 -1 0 4 -14 -5 -31 -22 -28 -26 -76
-111 -83 -146 -2 -7 -6 -21 -10 -30 -4 -9 -9 -22 -10 -30 -2 -7 -6 -20 -9 -28
-11 -26 -78 -224 -82 -240 -2 -8 -4 -16 -5 -17 -2 -2 -3 -6 -5 -10 -1 -5 -5
-15 -8 -23 -8 -20 -38 -107 -88 -255 -22 -66 -58 -172 -80 -235 -42 -120 -45
-130 -48 -142 -1 -4 -8 -23 -16 -42 -8 -18 -11 -36 -8 -40 4 -3 1 -6 -5 -6 -7
0 -11 -3 -11 -7 1 -5 0 -11 -1 -15 -1 -5 -3 -11 -4 -15 -6 -26 -30 -89 -36
-97 -5 -5 -6 -15 -3 -22 3 -8 1 -14 -3 -14 -10 0 -16 -65 -9 -96 2 -11 15 -25
27 -30 35 -16 288 -11 318 6 31 17 50 35 50 49 0 6 3 11 8 11 10 0 24 33 80
187 26 71 58 142 70 159 l24 29 127 3 127 3 37 -40 c20 -22 37 -42 37 -44 0
-9 84 -132 92 -135 4 -2 8 -8 8 -14 0 -25 144 -187 167 -188 6 0 13 -4 15 -9
6 -17 59 -23 218 -25 162 -2 180 -1 180 17 0 11 -76 143 -95 163 -5 7 -37 56
-70 109 -33 53 -69 111 -81 129 l-21 32 31 13 c173 69 330 211 393 356 18 40
107 290 117 330 2 6 8 21 13 35 6 14 9 28 6 33 -2 4 1 7 8 7 7 0 10 3 6 6 -3
3 3 31 15 61 11 30 22 71 23 91 2 21 4 39 5 42 3 6 2 8 -5 50 -7 41 -17 60
-45 85 -21 19 -39 20 -661 20 -352 0 -646 -3 -654 -8z m839 -413 c10 -38 -40
-194 -75 -237 -57 -69 -84 -74 -359 -74 -135 0 -251 2 -258 5 -10 3 -12 17 -8
45 10 66 66 221 93 254 l26 31 287 1 288 2 6 -27z"/>
<path d="M7402 5324 c-39 -17 -67 -51 -96 -117 -14 -31 -26 -60 -27 -65 -3
-15 -47 -147 -59 -177 -5 -11 -20 -54 -33 -95 -67 -202 -198 -577 -208 -593
-6 -11 -8 -21 -5 -24 3 -3 0 -15 -6 -26 -17 -32 -118 -338 -124 -375 -8 -48 2
-77 28 -88 14 -6 220 -10 533 -9 544 1 545 1 625 51 64 41 148 133 133 147 -3
4 -2 7 4 7 18 0 48 155 35 177 -8 13 -112 20 -130 9 -7 -4 -12 -4 -12 1 0 10
-93 8 -109 -1 -6 -4 -11 -4 -11 1 0 4 -63 6 -140 3 -77 -3 -140 -3 -140 0 0 8
-136 4 -149 -4 -6 -4 -11 -4 -11 1 0 4 -24 8 -52 8 -46 0 -53 3 -56 21 -2 11
4 41 13 65 9 24 18 51 20 59 2 8 28 85 58 170 30 85 55 157 55 160 0 3 6 19
12 35 7 17 13 37 15 45 9 34 93 271 99 277 3 3 6 16 6 28 0 12 3 25 8 29 4 4
7 11 8 14 0 4 12 44 27 90 31 95 35 153 11 173 -21 17 -282 20 -322 3z"/>
<path d="M9142 5328 c-23 -4 -48 -10 -55 -15 -6 -4 -17 -8 -23 -9 -42 -6 -264
-186 -264 -213 0 -6 -4 -11 -8 -11 -21 0 -67 -95 -116 -239 -30 -86 -64 -183
-75 -216 -12 -33 -24 -68 -26 -78 -2 -9 -7 -22 -10 -27 -3 -5 -8 -18 -10 -27
-2 -10 -20 -63 -40 -118 -20 -55 -38 -107 -40 -115 -2 -8 -31 -94 -64 -190
-69 -196 -73 -213 -72 -255 3 -55 16 -59 177 -60 140 0 149 1 185 24 22 14 39
31 39 37 0 7 4 14 8 16 8 3 73 151 76 175 1 7 5 16 9 19 4 4 7 15 7 24 0 30
46 130 66 144 16 11 78 14 309 13 l290 -2 3 -25 c2 -14 -18 -86 -44 -160 -55
-159 -64 -221 -38 -247 15 -15 37 -18 169 -17 133 0 154 2 178 19 35 25 95
149 137 280 17 55 35 109 40 120 22 50 39 95 35 95 -3 0 5 24 16 53 12 28 23
63 26 77 2 13 8 29 13 35 4 5 9 15 10 20 4 15 11 36 25 76 8 20 11 39 8 43 -4
3 0 6 7 6 7 0 11 3 7 6 -3 4 3 29 14 58 11 28 22 58 24 66 2 8 25 76 50 150
49 142 60 233 34 282 -7 13 -12 25 -13 28 0 15 -22 60 -28 60 -4 0 -8 5 -8 10
0 14 -46 56 -85 77 -27 15 -79 17 -466 18 -239 0 -454 -3 -477 -7z m566 -408
c27 -18 44 -73 32 -103 -11 -28 -22 -62 -20 -62 1 0 -8 -23 -19 -52 -39 -100
-14 -93 -352 -93 -246 0 -298 2 -302 14 -5 13 13 87 30 126 3 8 7 18 7 22 1 3
4 10 9 14 4 4 7 15 7 23 0 27 59 90 103 111 38 17 63 19 262 17 176 -2 225 -5
243 -17z"/>
<path d="M10607 5327 c-37 -14 -100 -98 -113 -152 -1 -5 -18 -53 -38 -106 -19
-53 -32 -100 -29 -103 4 -3 1 -6 -5 -6 -7 0 -11 -3 -11 -7 1 -5 0 -11 -1 -15
-6 -19 -8 -25 -15 -55 -4 -18 -12 -33 -17 -33 -6 0 -8 -7 -4 -15 3 -8 1 -15
-5 -15 -6 0 -7 -5 -4 -10 4 -6 2 -17 -5 -25 -6 -7 -13 -26 -16 -41 -3 -16 -9
-33 -14 -39 -4 -5 -9 -13 -9 -17 -1 -8 -2 -12 -6 -25 -1 -5 -5 -21 -10 -38 -4
-16 -12 -35 -16 -41 -5 -6 -10 -19 -12 -30 -2 -10 -7 -26 -10 -34 -3 -8 -30
-87 -60 -175 -30 -88 -60 -173 -67 -190 -6 -16 -14 -41 -16 -54 -3 -13 -12
-37 -20 -52 -8 -16 -12 -29 -9 -29 3 0 -1 -13 -10 -30 -8 -16 -15 -31 -14 -32
0 -2 -6 -28 -15 -58 -18 -62 -16 -118 5 -131 18 -11 19 -11 169 -13 156 -3
184 9 229 93 24 45 89 210 101 256 1 6 4 15 6 20 31 85 107 313 107 323 0 6 5
12 10 12 6 0 7 3 4 7 -4 3 -2 12 3 19 6 6 10 16 9 20 -1 5 1 16 4 24 3 8 33
94 67 190 33 96 70 184 82 197 20 22 24 22 267 22 274 -1 299 -5 321 -58 14
-35 15 -31 -91 -336 -23 -66 -42 -126 -42 -132 0 -7 -3 -13 -7 -13 -4 0 -7 -7
-8 -15 -1 -8 -3 -22 -4 -30 -1 -8 -6 -15 -11 -15 -6 0 -7 -3 -4 -7 4 -3 2 -12
-3 -19 -6 -6 -10 -16 -9 -20 1 -5 -3 -22 -9 -37 -7 -16 -12 -35 -12 -43 0 -8
-4 -14 -8 -14 -5 0 -9 -6 -9 -12 0 -14 -58 -191 -73 -223 -13 -28 -32 -104
-35 -139 -2 -19 5 -36 19 -50 20 -20 31 -22 161 -21 146 1 172 8 207 49 16 20
52 85 53 96 0 3 7 24 17 45 25 60 30 76 42 120 7 23 113 333 123 355 3 8 7 20
9 25 8 29 136 403 143 420 37 80 53 187 38 255 -8 42 -39 110 -48 110 -5 0 -9
5 -9 11 0 15 -43 55 -83 76 -29 15 -87 17 -595 18 -309 0 -572 -3 -585 -8z"/>
<path d="M12309 5325 c-31 -11 -89 -68 -89 -90 -1 -5 -9 -28 -20 -50 -11 -22
-19 -47 -20 -56 0 -9 -3 -19 -7 -23 -5 -4 -9 -12 -9 -17 -1 -5 -2 -10 -4 -11
-1 -2 -3 -10 -5 -18 -2 -8 -24 -73 -50 -145 -25 -71 -48 -137 -50 -145 -6 -21
-144 -422 -152 -440 -3 -8 -7 -18 -8 -22 -2 -5 -3 -9 -4 -10 -2 -2 -4 -14 -7
-27 -2 -14 -9 -30 -15 -37 -5 -6 -9 -16 -8 -20 1 -5 -1 -16 -4 -24 -7 -18 -69
-195 -92 -265 -30 -90 -27 -147 8 -162 23 -10 1035 -10 1074 0 12 3 31 11 42
17 12 6 21 8 21 5 0 -3 6 -1 13 5 6 6 40 28 74 50 76 48 172 143 217 213 26
42 126 302 141 367 2 8 4 16 5 18 2 1 3 5 4 10 1 4 4 12 8 18 4 6 9 23 12 38
3 15 9 33 14 39 7 10 27 69 38 110 1 4 2 8 3 10 2 3 81 230 84 242 2 6 20 60
39 120 49 150 46 238 -12 290 -21 19 -38 20 -616 20 -396 0 -604 -3 -625 -10z
m759 -398 c18 -21 6 -75 -54 -244 -30 -87 -56 -162 -57 -168 -2 -5 -5 -14 -8
-20 -6 -10 -17 -49 -19 -70 -1 -5 -5 -14 -10 -20 -7 -10 -29 -72 -31 -90 -4
-33 -79 -144 -79 -118 0 4 -4 3 -8 -3 -16 -25 -82 -42 -160 -42 -44 0 -85 -3
-91 -7 -6 -3 -11 -3 -11 2 0 10 -93 8 -109 -1 -6 -4 -11 -4 -11 1 0 4 -23 6
-50 5 -29 -2 -57 1 -65 8 -21 17 -20 22 82 315 19 55 36 105 38 110 1 6 5 19
9 30 5 11 12 31 16 45 4 14 12 34 16 45 4 11 8 23 9 28 2 4 3 8 5 10 1 1 3 9
5 17 9 42 50 138 67 157 19 21 27 21 263 22 188 1 245 -2 253 -12z"/>
<path d="M10755 3341 c-6 -10 -35 -160 -40 -211 -2 -14 -4 -25 -5 -25 -2 0 -6
-23 -14 -72 -3 -21 -10 -63 -16 -93 -6 -30 -12 -64 -13 -75 -1 -11 -5 -24 -9
-30 -3 -5 -4 -18 -3 -27 2 -10 0 -18 -4 -18 -4 0 -7 -15 -8 -32 -3 -59 -8 -83
-18 -90 -6 -5 -5 -8 2 -8 9 0 10 -7 3 -25 -5 -14 -12 -60 -16 -102 -7 -95 -11
-121 -19 -153 -7 -26 -8 -34 -20 -110 -10 -69 -9 -82 5 -60 8 12 10 11 10 -7
0 -15 5 -21 14 -17 8 3 17 1 21 -5 7 -13 -4 -55 -12 -47 -3 3 -14 -4 -25 -16
-20 -23 -39 -18 -19 5 7 10 8 22 2 38 -10 28 -14 20 -29 -53 -11 -57 -3 -67
52 -64 23 1 40 -4 43 -11 3 -7 10 -10 16 -6 6 3 34 5 61 4 111 -6 191 -3 182
6 -8 8 -13 9 -42 12 -11 1 -15 11 -13 39 4 74 -1 175 -8 168 -4 -4 -6 -53 -5
-109 1 -57 -2 -96 -7 -89 -5 8 -12 14 -17 15 -5 1 -9 7 -9 14 0 6 -3 15 -7 18
-4 4 -5 -7 -3 -24 3 -22 0 -31 -10 -31 -8 0 -15 5 -15 11 0 6 -6 9 -14 6 -16
-6 -31 34 -26 68 3 24 7 55 9 73 0 7 5 11 9 8 5 -3 7 -28 4 -56 -2 -28 1 -50
6 -50 6 0 8 38 6 94 -4 89 -2 96 18 110 37 26 58 21 59 -16 l2 -33 6 35 c5 32
9 35 35 32 39 -5 73 -32 74 -57 0 -34 6 -49 25 -63 19 -14 23 -67 6 -77 -12
-8 -8 -55 6 -71 11 -12 13 -12 97 -14 81 -3 83 -1 60 75 -5 17 -8 46 -7 65 1
19 -4 55 -12 79 -7 24 -15 65 -17 92 -7 70 -29 203 -36 209 -3 3 -6 16 -7 30
-3 56 -14 156 -19 170 -5 14 -9 41 -18 120 -3 19 -5 35 -6 35 -3 0 -10 38 -16
80 -9 71 -10 105 0 105 4 0 4 6 -1 13 -6 6 -10 19 -10 27 -1 17 -8 52 -21 95
-4 17 -7 44 -5 61 2 30 1 32 -40 37 -77 9 -165 8 -172 -2z m122 -602 c7 -35
14 -83 17 -107 2 -23 6 -45 10 -49 9 -9 7 -66 -2 -81 -9 -13 -92 -15 -112 -2
-8 5 -8 19 0 51 6 24 13 69 14 99 4 66 34 162 49 157 6 -2 16 -32 24 -68z
m172 -313 c-9 -8 -10 -7 -5 7 3 10 7 28 7 40 2 16 3 14 6 -7 3 -16 -1 -34 -8
-40z m-354 -206 c-3 -5 -12 -10 -18 -10 -23 0 -17 -39 6 -42 32 -4 34 -43 4
-63 -26 -16 -62 -11 -50 8 4 6 7 21 8 32 4 58 6 66 28 75 29 12 29 12 22 0z"/>
<path d="M10670 2156 c0 -2 7 -9 15 -16 9 -7 15 -8 15 -2 0 5 -7 12 -15 16 -8
3 -15 4 -15 2z"/>
<path d="M13195 3340 c-4 -7 -10 -29 -12 -49 -6 -44 -11 -76 -13 -76 -1 0 -3
-11 -5 -25 -2 -14 -6 -38 -10 -55 -4 -16 -8 -43 -10 -60 -1 -16 -3 -30 -4 -30
-1 0 -4 -12 -6 -26 -7 -53 -24 -146 -30 -169 -6 -21 -17 -80 -20 -110 -2 -14
-4 -25 -5 -25 0 0 -3 -16 -5 -35 -2 -19 -6 -48 -9 -65 -4 -16 -9 -61 -12 -100
-3 -38 -8 -81 -11 -95 -3 -14 -7 -32 -8 -40 -2 -8 -6 -33 -11 -55 -4 -22 -8
-60 -8 -84 -1 -40 2 -46 24 -51 31 -8 30 -43 -3 -71 -30 -25 -39 -24 -26 5 8
17 8 29 1 42 -9 17 -11 16 -18 -11 -4 -17 -8 -48 -8 -70 -1 -39 0 -40 34 -41
19 0 45 -4 58 -8 19 -6 91 -8 230 -6 18 0 31 4 27 9 -3 6 -14 8 -25 6 -13 -2
-20 2 -20 11 0 8 -4 14 -10 14 -5 0 -10 -4 -10 -10 0 -5 -7 -7 -15 -4 -8 4
-13 10 -10 14 3 4 -2 13 -10 20 -12 10 -13 7 -9 -15 3 -20 1 -25 -8 -21 -7 3
-21 9 -31 12 -10 4 -21 20 -24 36 -4 21 -8 26 -14 16 -7 -10 -9 -10 -9 2 -1 9
-5 6 -10 -7 -5 -13 -16 -20 -27 -18 -10 2 -22 4 -26 4 -4 1 -3 9 2 20 6 10 8
21 5 24 -12 12 17 75 38 80 l20 6 -21 -20 c-27 -25 -27 -39 -1 -39 11 0 23 -7
26 -15 9 -22 23 -18 19 5 -5 25 4 50 17 50 5 0 6 -4 3 -10 -3 -5 -2 -10 3 -10
6 0 13 7 16 16 3 8 2 13 -3 9 -5 -3 -9 15 -9 39 0 49 14 68 54 73 19 3 24 -1
25 -19 1 -21 2 -21 6 -3 3 11 10 23 15 26 16 10 71 -8 81 -26 4 -9 11 -14 15
-11 4 2 7 -12 8 -31 0 -20 8 -41 16 -47 19 -14 26 -46 15 -63 -5 -7 -5 -13 0
-13 4 0 2 -4 -6 -9 -21 -13 -2 -73 24 -77 40 -7 133 -6 144 0 14 9 14 39 0 53
-5 5 -12 41 -13 79 -2 38 -9 82 -15 99 -7 16 -14 54 -16 85 -2 30 -7 73 -11
95 -4 22 -8 47 -8 55 -1 9 -6 22 -11 29 -4 8 -10 35 -11 60 -6 89 -14 162 -19
170 -2 5 -7 33 -11 62 -3 30 -10 68 -15 85 -5 17 -11 49 -13 71 -1 22 -6 45
-10 51 -4 7 -3 12 3 12 7 0 7 8 2 23 -5 12 -5 32 0 44 4 12 4 25 0 28 -5 2
-12 25 -15 50 -4 24 -10 47 -14 49 -4 2 -7 23 -5 45 1 23 1 41 0 42 -1 0 -48
3 -103 6 -74 4 -104 2 -109 -7z m125 -609 c15 -89 16 -93 24 -150 4 -24 8 -47
10 -50 3 -3 -1 -13 -7 -22 -13 -17 -47 -22 -94 -14 -28 5 -31 9 -27 33 3 15 7
34 11 42 3 8 7 41 8 74 3 67 32 163 50 163 7 0 17 -32 25 -76z m182 -276 c-2
-19 -8 -32 -13 -30 -4 3 -6 12 -4 20 3 8 7 22 10 30 8 26 11 16 7 -20z"/>
<path d="M12502 3296 c-3 -6 -7 -114 -9 -240 -4 -361 -10 -522 -17 -535 -4 -6
-3 -11 3 -11 6 0 7 -11 3 -27 -4 -16 -7 -74 -7 -130 0 -56 -3 -99 -7 -95 -4 4
-9 144 -10 310 l-3 302 -30 0 c-21 0 -26 3 -16 9 7 5 21 6 31 4 16 -4 17 -1
10 30 -6 29 -4 37 8 42 12 4 13 8 4 14 -8 5 -11 43 -10 129 0 67 -2 125 -5
129 -4 3 -35 7 -70 9 -95 4 -118 -20 -92 -93 2 -7 1 -14 -4 -17 -4 -3 -6 -20
-5 -38 8 -102 20 -456 27 -770 3 -130 8 -192 17 -203 14 -16 56 -14 53 4 -2 6
4 11 13 11 10 0 14 -6 11 -14 -4 -10 3 -13 26 -12 18 1 37 4 42 8 12 7 14
-100 3 -118 -12 -18 32 -30 100 -29 41 1 67 7 72 15 6 10 10 7 13 -11 3 -13 4
3 1 36 -2 33 -4 71 -4 85 3 333 6 467 13 477 8 12 75 12 95 -1 14 -9 13 -225
-1 -243 -6 -8 -6 -13 0 -13 11 0 9 -152 -2 -169 -3 -6 -2 -11 2 -11 5 0 10
-19 11 -42 2 -63 5 -78 13 -78 3 0 9 -9 12 -20 3 -12 14 -20 29 -21 12 0 38
-2 56 -2 18 -1 37 -9 43 -17 9 -13 10 -13 6 0 -2 8 3 20 11 26 11 8 12 18 3
49 -7 25 -9 131 -8 285 2 137 -1 259 -6 277 -5 17 -20 44 -33 59 -30 34 -30
38 2 63 15 12 24 21 20 21 -3 0 0 16 8 35 17 39 26 402 12 445 -16 47 -64 76
-146 86 -81 10 -282 10 -288 0z m-77 -115 c-9 -16 -25 -3 -18 15 4 10 9 12 15
6 6 -6 7 -15 3 -21z m340 -82 c6 -6 11 -51 12 -102 1 -51 2 -94 4 -97 1 -3 0
-9 -1 -15 -1 -5 -2 -33 -4 -62 -1 -28 -4 -55 -8 -58 -7 -7 -95 -11 -102 -5 -2
3 -7 37 -10 75 -4 39 -7 75 -7 80 -3 34 18 180 28 197 5 10 75 -1 88 -13z
m-375 -83 c0 -3 -4 -8 -10 -11 -5 -3 -10 -1 -10 4 0 6 5 11 10 11 6 0 10 -2
10 -4z m-70 -20 c0 -3 -4 -8 -10 -11 -5 -3 -10 -1 -10 4 0 6 5 11 10 11 6 0
10 -2 10 -4z m325 -197 c-2 -17 -7 -35 -13 -41 -6 -6 -9 -1 -7 14 1 13 4 24 5
26 1 1 4 7 5 12 1 6 3 12 4 15 4 17 8 0 6 -26z m-230 -9 c3 -5 1 -10 -4 -10
-6 0 -11 5 -11 10 0 6 2 10 4 10 3 0 8 -4 11 -10z m219 -65 c3 -8 1 -15 -4
-15 -6 0 -10 7 -10 15 0 8 2 15 4 15 2 0 6 -7 10 -15z m-254 -29 c0 -11 -19
-15 -25 -6 -3 5 1 10 9 10 9 0 16 -2 16 -4z m240 -58 c0 -29 -1 -30 -14 -13
-10 14 -11 22 -2 31 15 18 16 18 16 -18z m-4 -70 c-3 -13 -8 -44 -11 -70 -3
-26 -10 -50 -16 -53 -9 -6 -6 42 7 95 3 14 6 31 6 38 1 6 5 12 10 12 5 0 6
-10 4 -22z m-26 -193 c0 -8 -4 -17 -10 -20 -6 -4 -10 5 -10 20 0 15 4 24 10
20 6 -3 10 -12 10 -20z m-190 -41 c0 -8 -19 -13 -24 -6 -3 5 1 9 9 9 8 0 15
-2 15 -3z m-13 -46 c-3 -8 -6 -5 -6 6 -1 11 2 17 5 13 3 -3 4 -12 1 -19z m5
-60 c-9 -9 -12 -7 -12 12 0 19 3 21 12 12 9 -9 9 -15 0 -24z m85 -35 c1 -19
-1 -22 -8 -12 -11 17 -12 39 -1 39 4 0 8 -12 9 -27z m-80 0 c-1 -10 -6 -23
-10 -30 -4 -6 -2 -14 3 -16 6 -3 5 -4 -2 -3 -16 3 -24 46 -8 46 6 0 8 5 5 10
-3 6 -1 10 4 10 6 0 10 -8 8 -17z"/>
<path d="M11883 3292 c-13 -2 -24 -6 -24 -10 -1 -4 -2 -281 -3 -615 -1 -398 2
-611 9 -616 5 -4 79 -7 163 -7 122 1 155 5 162 16 12 18 7 77 -7 91 -10 10
-14 11 -90 9 -23 -1 -51 4 -62 10 -21 11 -23 20 -25 113 -1 26 -3 47 -6 47 -4
0 -4 70 0 78 2 3 2 81 0 85 -6 10 -4 97 2 97 4 0 8 6 8 14 0 16 27 29 34 17 3
-4 26 -5 51 -1 25 4 45 5 45 3 0 -2 8 1 19 6 22 12 32 63 19 107 -8 31 -10 32
-54 27 -32 -3 -44 -1 -39 6 3 6 2 11 -4 11 -5 0 -11 -6 -14 -12 -7 -23 -57 12
-57 39 0 35 1 38 12 35 5 -1 7 2 3 8 -3 6 -10 8 -15 5 -13 -8 -8 253 5 272 10
13 30 17 86 18 41 0 79 4 85 8 11 7 11 65 -1 115 -5 20 -12 22 -63 22 -31 1
-93 2 -137 3 -44 1 -90 1 -102 -1z m119 -577 c-2 -14 -6 -25 -8 -25 -2 0 -4
11 -4 25 0 14 4 25 9 25 4 0 6 -11 3 -25z m-18 -127 c-1 -13 -3 -32 -3 -43 -1
-16 -3 -17 -10 -6 -5 8 -7 20 -5 28 11 37 14 43 17 43 2 0 3 -10 1 -22z m-9
-77 c3 -5 2 -12 -3 -15 -5 -3 -9 1 -9 9 0 17 3 19 12 6z m-10 -86 c1 -25 -9
-33 -19 -17 -6 11 5 55 12 47 3 -3 6 -16 7 -30z m-65 19 c0 -8 -19 -13 -24 -6
-3 5 1 9 9 9 8 0 15 -2 15 -3z m48 -136 c-5 -35 -9 -71 -9 -80 0 -10 -4 -18
-9 -18 -5 0 -6 19 -3 43 2 23 6 53 6 67 2 22 13 50 21 50 1 0 -2 -28 -6 -62z
m-18 -153 c0 -14 -4 -25 -8 -25 -4 0 -9 11 -10 25 -1 14 3 25 8 25 6 0 10 -11
10 -25z"/>
<path d="M11249 3268 c-16 -29 -20 -247 -5 -249 6 -1 16 -1 21 0 6 1 1 -6 -11
-16 -20 -18 -21 -25 -22 -388 0 -203 -4 -395 -7 -425 -15 -129 -16 -127 8
-137 18 -8 77 -8 202 -1 11 0 42 -2 69 -5 46 -5 50 -4 92 37 24 24 44 47 44
52 0 4 11 20 25 34 l25 26 5 390 c3 214 5 394 6 399 1 6 -2 53 -6 105 -6 82
-11 99 -34 126 -26 30 -64 50 -119 61 -39 7 -133 9 -138 2 -4 -7 -49 -4 -106
6 -32 5 -39 3 -49 -17z m233 -159 c49 -25 68 -42 68 -62 0 -7 3 -17 7 -21 4
-3 8 -17 10 -29 9 -64 12 -77 18 -86 3 -6 1 -11 -5 -11 -6 0 -8 -5 -4 -12 5
-7 2 -9 -7 -6 -8 3 -25 -5 -38 -18 -18 -18 -20 -27 -12 -43 7 -12 18 -17 30
-14 29 7 21 -29 -10 -44 -13 -7 -18 -13 -11 -13 7 0 23 7 35 15 22 14 23 14
21 -23 -1 -20 -2 -37 -4 -37 -2 0 -10 -85 -14 -160 -2 -33 -4 -60 -5 -60 -2 0
-4 -34 -5 -75 -4 -85 -13 -112 -53 -156 -49 -53 -107 -55 -118 -3 -5 22 -10
398 -6 470 1 12 12 16 46 16 25 0 45 -4 45 -9 0 -5 5 -6 10 -3 6 3 10 16 10
29 0 20 -4 22 -32 18 l-33 -4 30 25 c16 15 26 29 22 33 -10 10 -57 -38 -57
-58 0 -11 -8 -18 -20 -18 -16 0 -20 7 -20 31 0 17 5 39 10 49 8 15 6 21 -7 29
-16 9 -16 10 -1 11 9 0 24 -7 32 -16 18 -17 21 -8 6 16 -5 8 -17 15 -27 15
-14 0 -18 10 -21 50 -4 56 -10 65 -40 68 -11 0 -19 4 -17 8 3 3 16 4 30 1 15
-2 25 0 25 7 0 6 -7 11 -15 11 -21 0 -19 16 3 32 10 7 22 25 26 41 8 34 39 36
98 6z m68 -280 c0 -5 -4 -9 -10 -9 -5 0 -10 7 -10 16 0 8 5 12 10 9 6 -3 10
-10 10 -16z"/>
<path d="M11468 2882 c-10 -2 -18 -8 -18 -13 0 -5 5 -8 12 -6 7 1 12 -4 13
-12 0 -21 21 -25 29 -6 8 21 -13 42 -36 37z"/>
<path d="M9864 3269 c-12 -4 -25 -12 -29 -18 -10 -18 -6 -783 5 -796 6 -7 8
-14 5 -17 -13 -13 -22 -246 -11 -293 16 -73 55 -99 102 -69 25 17 37 51 20 58
-6 2 -6 5 -1 5 6 1 9 28 8 69 -2 37 -5 166 -7 287 -2 121 -5 222 -6 225 -8 19
2 96 13 107 12 13 16 8 27 -34 7 -26 14 -50 15 -53 12 -41 25 -91 29 -115 2
-16 5 -30 6 -30 3 0 9 -57 15 -140 3 -38 7 -88 10 -110 3 -22 7 -69 8 -105 2
-36 12 -82 21 -102 16 -32 23 -38 50 -38 54 0 69 18 71 91 0 35 7 84 14 109 7
25 13 46 13 47 -1 2 4 17 9 35 12 42 23 138 24 208 0 30 2 57 5 60 8 7 30 98
33 135 2 18 9 31 18 33 13 2 15 -11 15 -85 -1 -63 2 -88 12 -89 36 -4 37 -4
22 -13 -8 -6 -18 -7 -22 -5 -4 3 -9 2 -9 -3 -2 -9 -9 -388 -9 -438 1 -80 29
-117 83 -108 56 9 67 19 68 71 1 38 0 1002 -1 1064 0 19 -49 79 -50 61 0 -8
-19 -10 -64 -7 -64 4 -64 4 -79 -29 -8 -17 -20 -50 -27 -72 -6 -22 -14 -47
-18 -55 -3 -8 -6 -37 -7 -65 -1 -27 -12 -84 -23 -125 -11 -42 -23 -99 -26
-129 -6 -63 -14 -91 -26 -91 -13 0 -41 56 -45 89 -2 14 -4 26 -5 26 -1 0 -3
27 -5 60 -1 33 -4 60 -5 60 -1 0 -3 11 -4 25 -2 14 -7 41 -11 60 -5 19 -8 38
-7 43 1 4 -3 7 -10 7 -9 0 -9 3 -1 11 6 6 30 11 53 11 33 -1 41 2 38 16 -4 19
-78 31 -78 13 0 -6 -7 -11 -15 -11 -11 0 -15 12 -15 45 0 25 4 45 10 45 5 0
14 9 20 19 9 17 7 19 -18 17 -15 -2 -29 0 -32 5 -6 8 -39 17 -100 25 -19 3
-39 7 -45 8 -5 2 -20 0 -31 -5z m576 -449 c0 -5 -4 -10 -10 -10 -5 0 -10 5
-10 10 0 6 5 10 10 10 6 0 10 -4 10 -10z m-558 -110 c-2 -16 -6 -30 -8 -30 -2
0 -4 14 -4 30 0 17 4 30 8 30 5 0 7 -13 4 -30z m508 10 c0 -5 -2 -10 -4 -10
-3 0 -8 5 -11 10 -3 6 -1 10 4 10 6 0 11 -4 11 -10z m-526 -127 c-1 -16 -3
-30 -4 -33 -1 -3 -2 -8 -1 -12 0 -5 -4 -8 -9 -8 -6 0 -8 12 -4 28 13 58 21 70
18 25z m-17 -95 c-3 -7 -5 -2 -5 12 0 14 2 19 5 13 2 -7 2 -19 0 -25z m643 22
c0 -5 -4 -10 -10 -10 -5 0 -10 5 -10 10 0 6 5 10 10 10 6 0 10 -4 10 -10z
m-70 -30 c0 -5 -2 -10 -4 -10 -3 0 -8 5 -11 10 -3 6 -1 10 4 10 6 0 11 -4 11
-10z m-30 -164 c0 -8 -4 -18 -10 -21 -5 -3 -10 3 -10 14 0 12 5 21 10 21 6 0
10 -6 10 -14z"/>
<path d="M10125 3230 c-3 -6 1 -10 9 -10 26 0 18 -26 -15 -54 -17 -14 -25 -26
-17 -26 23 0 68 44 70 69 2 18 -3 24 -19 27 -12 2 -25 -1 -28 -6z"/>
<path d="M10205 3222 c-11 -9 -19 -25 -17 -34 3 -16 9 -20 28 -17 7 1 24 -22
24 -32 0 -3 -10 -11 -22 -17 -17 -8 -18 -11 -7 -11 24 -1 38 20 48 72 6 37 5
47 -6 51 -21 8 -26 7 -48 -12z m9 -27 c3 -8 1 -15 -4 -15 -6 0 -10 7 -10 15 0
8 2 15 4 15 2 0 6 -7 10 -15z"/>
<path d="M12117 3128 c-2 -7 -1 -22 4 -33 6 -16 8 -14 8 13 1 33 -4 41 -12 20z"/>
<path d="M12101 3013 c1 -4 1 -10 -1 -13 -7 -20 -8 -50 -1 -50 12 0 20 59 9
66 -5 3 -8 2 -7 -3z"/>
<path d="M11715 2960 c4 -6 11 -8 16 -5 14 9 11 15 -7 15 -8 0 -12 -5 -9 -10z"/>
<path d="M12090 2915 c0 -8 4 -15 10 -15 5 0 7 7 4 15 -4 8 -8 15 -10 15 -2 0
-4 -7 -4 -15z"/>
<path d="M12056 2863 c-6 -14 -5 -15 5 -6 7 7 10 15 7 18 -3 3 -9 -2 -12 -12z"/>
<path d="M12074 2845 c-4 -9 -2 -21 3 -26 7 -7 12 -3 16 10 6 25 -11 39 -19
16z"/>
<path d="M12040 2571 c0 -11 4 -23 10 -26 6 -4 9 5 8 19 -3 30 -18 35 -18 7z"/>
<path d="M12680 2320 c0 -5 5 -10 11 -10 5 0 7 5 4 10 -3 6 -8 10 -11 10 -2 0
-4 -4 -4 -10z"/>
<path d="M13268 2198 c-2 -46 0 -92 4 -103 9 -26 10 -18 12 92 0 51 -2 93 -6
93 -3 0 -8 -37 -10 -82z"/>
<path d="M10876 2241 c-3 -5 1 -11 9 -15 15 -6 29 7 18 18 -9 9 -21 8 -27 -3z"/>
<path d="M13327 2244 c-8 -8 1 -24 14 -24 5 0 9 7 9 15 0 15 -12 20 -23 9z"/>
<path d="M13184 2138 c3 -24 5 -45 6 -48 0 -3 4 1 9 9 6 9 5 24 0 39 -5 13 -7
28 -3 33 3 5 0 9 -6 9 -7 0 -9 -15 -6 -42z"/>
<path d="M13117 2149 c7 -7 15 -10 18 -7 3 3 -2 9 -12 12 -14 6 -15 5 -6 -5z"/>
<path d="M12705 2101 c-3 -5 -2 -12 3 -15 5 -3 9 1 9 9 0 17 -3 19 -12 6z"/>
<path d="M12745 2030 c3 -5 8 -10 11 -10 2 0 4 5 4 10 0 6 -5 10 -11 10 -5 0
-7 -4 -4 -10z"/>
<path d="M12705 2020 c3 -5 8 -10 11 -10 2 0 4 5 4 10 0 6 -5 10 -11 10 -5 0
-7 -4 -4 -10z"/>
<path d="M12705 1970 c-3 -5 -1 -10 4 -10 6 0 11 5 11 10 0 6 -2 10 -4 10 -3
0 -8 -4 -11 -10z"/>
<path d="M12677 1947 c-5 -14 -11 -16 -27 -7 -16 8 -20 8 -20 -4 0 -9 -8 -13
-22 -10 -21 4 -21 4 -3 -4 11 -5 32 -6 48 -1 15 4 27 5 27 1 0 -9 58 -7 67 1
3 4 -1 7 -9 7 -9 0 -19 6 -21 13 -4 10 -6 10 -6 0 -1 -19 -19 -15 -23 5 -3 16
-4 16 -11 -1z"/>
<path d="M10986 1892 c-3 -5 1 -9 9 -9 8 0 12 4 9 9 -3 4 -7 8 -9 8 -2 0 -6
-4 -9 -8z"/>
<path d="M11027 1889 c7 -7 15 -10 18 -7 3 3 -2 9 -12 12 -14 6 -15 5 -6 -5z"/>
<path d="M11068 1893 c7 -3 16 -2 19 1 4 3 -2 6 -13 5 -11 0 -14 -3 -6 -6z"/>
<path d="M13428 1883 c6 -2 18 -2 25 0 6 3 1 5 -13 5 -14 0 -19 -2 -12 -5z"/>
</g>
</svg>
