<?xml version="1.0" encoding="UTF-8" standalone="no"?>
<svg
   data-name="Layer 47"
   viewBox="0 0 53.996609 33.549999"
   x="0px"
   y="0px"
   version="1.1"
   id="svg9"
   sodipodi:docname="group.svg"
   width="53.996609"
   height="33.549999"
   inkscape:version="1.4 (1:1.4+202410161351+e7c3feb100)"
   xmlns:inkscape="http://www.inkscape.org/namespaces/inkscape"
   xmlns:sodipodi="http://sodipodi.sourceforge.net/DTD/sodipodi-0.dtd"
   xmlns="http://www.w3.org/2000/svg"
   xmlns:svg="http://www.w3.org/2000/svg">
  <defs
     id="defs9" />
  <sodipodi:namedview
     id="namedview9"
     pagecolor="#ffffff"
     bordercolor="#000000"
     borderopacity="0.25"
     inkscape:showpageshadow="2"
     inkscape:pageopacity="0.0"
     inkscape:pagecheckerboard="0"
     inkscape:deskcolor="#d1d1d1"
     inkscape:zoom="10.1375"
     inkscape:cx="26.929716"
     inkscape:cy="24.808878"
     inkscape:window-width="1920"
     inkscape:window-height="1016"
     inkscape:window-x="0"
     inkscape:window-y="0"
     inkscape:window-maximized="1"
     inkscape:current-layer="svg9" />
  <path
     d="m 27.008303,13.04 c 3.6,0 6.52,-2.93 6.52,-6.52 0,-3.59 -2.93,-6.52 -6.52,-6.52 -3.59,0 -6.52,2.93 -6.52,6.52 0,3.59 2.93,6.52 6.52,6.52 z m 0,-11.04 c 2.49,0 4.52,2.03 4.52,4.52 0,2.49 -2.03,4.52 -4.52,4.52 -2.49,0 -4.52,-2.03 -4.52,-4.52 0,-2.49 2.03,-4.52 4.52,-4.52 z"
     id="path1" />
  <path
     d="m 20.968303,21.26 c -0.55,-0.07 -1.05,0.31 -1.12,0.86 l -1.38,10.3 c -0.07,0.55 0.31,1.05 0.86,1.12 0.04,0 0.09,0 0.13,0 0.49,0 0.92,-0.37 0.99,-0.87 l 1.38,-10.3 c 0.07,-0.55 -0.31,-1.05 -0.86,-1.12 z"
     id="path2" />
  <path
     d="m 33.048303,21.26 c -0.55,0.07 -0.93,0.58 -0.86,1.12 l 1.38,10.3 c 0.07,0.5 0.5,0.87 0.99,0.87 0.04,0 0.09,0 0.13,0 0.55,-0.07 0.93,-0.58 0.86,-1.12 l -1.38,-10.3 c -0.07,-0.55 -0.57,-0.93 -1.12,-0.86 z"
     id="path3" />
  <path
     d="m 11.218303,13.77 c 3.13,0 5.67,-2.54 5.67,-5.67 0,-3.13 -2.54,-5.67 -5.67,-5.67 -3.1299996,0 -5.6699996,2.54 -5.6699996,5.67 0,3.13 2.54,5.67 5.6699996,5.67 z m 0,-9.34 c 2.02,0 3.67,1.65 3.67,3.67 0,2.02 -1.65,3.67 -3.67,3.67 -2.0199996,0 -3.6699996,-1.65 -3.6699996,-3.67 0,-2.02 1.65,-3.67 3.6699996,-3.67 z"
     id="path4" />
  <path
     d="m 6.1383034,20.42 c -0.55,-0.07 -1.05,0.31 -1.12,0.86 l -1.16,8.71 c -0.07,0.55 0.31,1.05 0.86,1.12 0.04,0 0.09,0 0.13,0 0.49,0 0.92,-0.37 0.99,-0.87 l 1.16,-8.71 c 0.07,-0.55 -0.31,-1.05 -0.86,-1.12 z"
     id="path5" />
  <path
     d="m 42.798303,13.77 c 3.13,0 5.67,-2.54 5.67,-5.67 0,-3.13 -2.54,-5.67 -5.67,-5.67 -3.13,0 -5.67,2.54 -5.67,5.67 0,3.13 2.54,5.67 5.67,5.67 z m 0,-9.34 c 2.02,0 3.67,1.65 3.67,3.67 0,2.02 -1.65,3.67 -3.67,3.67 -2.02,0 -3.67,-1.65 -3.67,-3.67 0,-2.02 1.65,-3.67 3.67,-3.67 z"
     id="path6" />
  <path
     d="m 52.808303,20.86 c -0.48,-3.67 -3.63,-6.43 -7.32,-6.43 h -5.39 c -1.7,0 -3.3,0.57 -4.61,1.62 -1.47,-1.16 -3.31,-1.86 -5.3,-1.86 h -6.37 c -1.99,0 -3.83,0.7 -5.3,1.86 -1.31,-1.05 -2.91,-1.62 -4.61,-1.62 H 8.5183034 c -3.69,0 -6.84,2.77 -7.32,6.43 l -1.18999996,9.13 c -0.07,0.55 0.31,1.05 0.86,1.12 0.04,0 0.09,0 0.13,0 0.49999996,0 0.91999996,-0.37 0.98999996,-0.87 l 1.19,-9.13 c 0.35,-2.67 2.65,-4.69 5.34,-4.69 h 5.3899996 c 1.16,0 2.26,0.38 3.18,1.05 -0.92,1.17 -1.54,2.59 -1.75,4.15 l -1.4,10.78 c -0.07,0.55 0.31,1.05 0.86,1.12 0.55,0.07 1.05,-0.31 1.12,-0.86 l 1.4,-10.78 c 0.42,-3.25 3.22,-5.7 6.49,-5.7 h 6.37 c 3.28,0 6.07,2.45 6.49,5.7 l 1.4,10.78 c 0.07,0.5 0.5,0.87 0.99,0.87 0.04,0 0.09,0 0.13,0 0.55,-0.07 0.93,-0.57 0.86,-1.12 l -1.4,-10.78 c -0.2,-1.56 -0.83,-2.98 -1.74,-4.15 0.92,-0.68 2.02,-1.05 3.18,-1.05 h 5.39 c 2.69,0 4.99,2.02 5.34,4.69 l 1.19,9.13 c 0.07,0.5 0.5,0.87 0.99,0.87 0.04,0 0.09,0 0.13,0 0.55,-0.07 0.93,-0.57 0.86,-1.12 l -1.19,-9.13 z"
     id="path7" />
  <path
     d="m 47.878303,20.42 c -0.55,0.07 -0.93,0.58 -0.86,1.12 l 1.16,8.71 c 0.07,0.5 0.5,0.87 0.99,0.87 0.04,0 0.09,0 0.13,0 0.55,-0.07 0.93,-0.58 0.86,-1.12 l -1.16,-8.71 c -0.07,-0.55 -0.58,-0.93 -1.12,-0.86 z"
     id="path8" />
</svg>
