<?xml version="1.0" encoding="UTF-8" standalone="no"?>
<svg
   version="1.1"
   viewBox="-5 -10 80.999969 80.999969"
   id="svg5"
   sodipodi:docname="language.svg"
   width="80.999969"
   height="80.999969"
   inkscape:version="1.4 (1:1.4+202410161351+e7c3feb100)"
   xmlns:inkscape="http://www.inkscape.org/namespaces/inkscape"
   xmlns:sodipodi="http://sodipodi.sourceforge.net/DTD/sodipodi-0.dtd"
   xmlns="http://www.w3.org/2000/svg"
   xmlns:svg="http://www.w3.org/2000/svg">
  <defs
     id="defs5" />
  <sodipodi:namedview
     id="namedview5"
     pagecolor="#ffffff"
     bordercolor="#000000"
     borderopacity="0.25"
     inkscape:showpageshadow="2"
     inkscape:pageopacity="0.0"
     inkscape:pagecheckerboard="0"
     inkscape:deskcolor="#d1d1d1"
     inkscape:zoom="6.0074074"
     inkscape:cx="40.450062"
     inkscape:cy="47.857583"
     inkscape:window-width="1920"
     inkscape:window-height="1016"
     inkscape:window-x="0"
     inkscape:window-y="0"
     inkscape:window-maximized="1"
     inkscape:current-layer="svg5" />
  <path
     d="M 45.324,-9.5 H 25.676 C 9.039,-9.5 -4.5,4.039 -4.5,20.676 c 0,11.586 6.4453,21.941 16.828,27.07 l 22.461,22.461 c 0.19922,0.19531 0.45313,0.29297 0.71094,0.29297 0.25781,0 0.51172,-0.09766 0.70703,-0.29297 l 22.461,-22.461 c 10.387,-5.1289 16.832,-15.484 16.832,-27.07 0,-16.637 -13.539,-30.176 -30.176,-30.176 z M 57.64,46.02 c -0.10156,0.04687 -0.19141,0.11328 -0.26953,0.19141 l -21.871,21.875 -21.875,-21.875 c -0.07813,-0.07813 -0.16797,-0.14453 -0.26953,-0.19141 -9.7773,-4.7617 -15.855,-14.473 -15.855,-25.344 0,-15.535 12.641,-28.176 28.176,-28.176 h 19.648 c 15.535,0 28.176,12.641 28.176,28.176 0,10.871 -6.0781,20.582 -15.859,25.344 z"
     id="path1"
     style="stroke:#000000" />
  <path
     d="M 54.145,6.145 H 16.856 c -0.55469,0 -1,0.44531 -1,1 0,0.55469 0.44531,1 1,1 h 37.289 c 0.55469,0 1,-0.44531 1,-1 0,-0.55078 -0.44531,-1 -1,-1 z"
     id="path2"
     style="stroke:#000000" />
  <path
     d="M 54.145,19.676 H 16.856 c -0.55469,0 -1,0.44531 -1,1 0,0.55469 0.44531,1 1,1 h 37.289 c 0.55469,0 1,-0.44531 1,-1 0,-0.55469 -0.44531,-1 -1,-1 z"
     id="path3"
     style="stroke:#000000" />
  <path
     d="M 54.145,33.207 H 16.856 c -0.55469,0 -1,0.44531 -1,1 0,0.55469 0.44531,1 1,1 h 37.289 c 0.55469,0 1,-0.44531 1,-1 0,-0.55469 -0.44531,-1 -1,-1 z"
     id="path4"
     style="stroke:#000000" />
</svg>
