<?xml version="1.0" encoding="UTF-8" standalone="no"?>
<svg
   xmlns:dc="http://purl.org/dc/elements/1.1/"
   xmlns:cc="http://creativecommons.org/ns#"
   xmlns:rdf="http://www.w3.org/1999/02/22-rdf-syntax-ns#"
   xmlns:svg="http://www.w3.org/2000/svg"
   xmlns="http://www.w3.org/2000/svg"
   xmlns:sodipodi="http://sodipodi.sourceforge.net/DTD/sodipodi-0.dtd"
   xmlns:inkscape="http://www.inkscape.org/namespaces/inkscape"
   version="1.1"
   x="0px"
   y="0px"
   viewBox="0 0 68 68"
   id="svg10"
   sodipodi:docname="menu.svg"
   width="68"
   height="68"
   inkscape:version="0.92.5 (2060ec1f9f, 2020-04-08)">
  <metadata
     id="metadata16">
    <rdf:RDF>
      <cc:Work
         rdf:about="">
        <dc:format>image/svg+xml</dc:format>
        <dc:type
           rdf:resource="http://purl.org/dc/dcmitype/StillImage" />
        <dc:title></dc:title>
      </cc:Work>
    </rdf:RDF>
  </metadata>
  <defs
     id="defs14" />
  <sodipodi:namedview
     pagecolor="#ffffff"
     bordercolor="#666666"
     borderopacity="1"
     objecttolerance="10"
     gridtolerance="10"
     guidetolerance="10"
     inkscape:pageopacity="0"
     inkscape:pageshadow="2"
     inkscape:window-width="1920"
     inkscape:window-height="1009"
     id="namedview12"
     showgrid="false"
     fit-margin-top="0"
     fit-margin-left="0"
     fit-margin-right="0"
     fit-margin-bottom="0"
     inkscape:zoom="7.552"
     inkscape:cx="34.366242"
     inkscape:cy="22.711774"
     inkscape:window-x="0"
     inkscape:window-y="34"
     inkscape:window-maximized="1"
     inkscape:current-layer="g4" />
  <g
     transform="matrix(0.83185986,0,0,1,-7.4704335,-968.21601)"
     id="g4"
     style="fill:#000000">
    <path
       style="color:#000000;text-indent:0;text-transform:none;direction:ltr;baseline-shift:baseline;display:inline;overflow:visible;visibility:visible;fill:#ffffff;fill-opacity:1;stroke:none;stroke-width:0.88028067;enable-background:accumulate"
       d="m 13.82122,1014.5635 c -2.7614,0 -5.0000007,1.7346 -5.0000007,3.8744 0,2.1399 2.2386007,3.8745 5.0000007,3.8745 h 72 c 2.7614,0 5,-1.7346 5,-3.8745 0,-2.1398 -2.2386,-3.8744 -5,-3.8744 z"
       id="path2"
       inkscape:connector-curvature="0"
       sodipodi:nodetypes="sssssss" />
    <path
       style="color:#000000;text-indent:0;text-transform:none;direction:ltr;baseline-shift:baseline;display:inline;overflow:visible;visibility:visible;fill:#ffffff;fill-opacity:1;stroke:none;stroke-width:0.88028067;enable-background:accumulate"
       d="m 13.889598,998.57572 c -2.7614,0 -5.0000006,1.73458 -5.0000006,3.87438 0,2.1399 2.2386006,3.8745 5.0000006,3.8745 h 72 c 2.761399,0 5,-1.7346 5,-3.8745 0,-2.1398 -2.238601,-3.87438 -5,-3.87438 z"
       id="path2-3"
       inkscape:connector-curvature="0"
       sodipodi:nodetypes="sssssss" />
    <path
       style="color:#000000;text-indent:0;text-transform:none;direction:ltr;baseline-shift:baseline;display:inline;overflow:visible;visibility:visible;fill:#ffffff;fill-opacity:1;stroke:none;stroke-width:0.88028067;enable-background:accumulate"
       d="m 13.889598,983.34792 c -2.7614,0 -5.0000006,1.7346 -5.0000006,3.8744 0,2.1399 2.2386006,3.8745 5.0000006,3.8745 h 72 c 2.7614,0 5,-1.7346 5,-3.8745 0,-2.1398 -2.2386,-3.8744 -5,-3.8744 z"
       id="path2-1"
       inkscape:connector-curvature="0"
       sodipodi:nodetypes="sssssss" />
  </g>
</svg>
