<?xml version="1.0" encoding="UTF-8" standalone="no"?>
<!-- Created with Inkscape (http://www.inkscape.org/) -->

<svg
   width="30.000004mm"
   height="29.999998mm"
   viewBox="0 0 30.000004 29.999998"
   version="1.1"
   id="svg5"
   xml:space="preserve"
   inkscape:version="1.2 (1:1.2.1+202207142221+cd75a1ee6d)"
   sodipodi:docname="phone.svg"
   xmlns:inkscape="http://www.inkscape.org/namespaces/inkscape"
   xmlns:sodipodi="http://sodipodi.sourceforge.net/DTD/sodipodi-0.dtd"
   xmlns="http://www.w3.org/2000/svg"
   xmlns:svg="http://www.w3.org/2000/svg"><sodipodi:namedview
     id="namedview7"
     pagecolor="#ffffff"
     bordercolor="#666666"
     borderopacity="1.0"
     inkscape:showpageshadow="2"
     inkscape:pageopacity="0.0"
     inkscape:pagecheckerboard="0"
     inkscape:deskcolor="#d1d1d1"
     inkscape:document-units="mm"
     showgrid="false"
     inkscape:zoom="0.2973261"
     inkscape:cx="781.96969"
     inkscape:cy="-100.89932"
     inkscape:window-width="1920"
     inkscape:window-height="1009"
     inkscape:window-x="0"
     inkscape:window-y="34"
     inkscape:window-maximized="1"
     inkscape:current-layer="g226" /><defs
     id="defs2"><symbol
       id="h"
       overflow="visible"><path
         d="m 39.078,-2.3281 c -2.0117,1.043 -4.1094,1.8281 -6.2969,2.3594 -2.1875,0.5313 -4.4648,0.79688 -6.8281,0.79688 -7.0859,0 -12.699,-1.9766 -16.844,-5.9375 -4.1367,-3.957 -6.2031,-9.3281 -6.2031,-16.109 0,-6.7891 2.0664,-12.164 6.2031,-16.125 4.1445,-3.9688 9.7578,-5.9531 16.844,-5.9531 2.3633,0 4.6406,0.26562 6.8281,0.79688 2.1875,0.53126 4.2852,1.3242 6.2969,2.375 v 8.7969 c -2.0312,-1.3828 -4.0391,-2.3984 -6.0156,-3.0469 -1.9688,-0.64453 -4.0469,-0.96875 -6.2344,-0.96875 -3.9062,0 -6.9844,1.2578 -9.2344,3.7656 -2.2422,2.5 -3.3594,5.9531 -3.3594,10.359 0,4.3867 1.1172,7.8359 3.3594,10.344 2.25,2.5 5.3281,3.75 9.2344,3.75 2.1875,0 4.2656,-0.32031 6.2344,-0.96875 1.9766,-0.64453 3.9844,-1.6602 6.0156,-3.0469 z"
         id="path182" /></symbol><symbol
       id="g"
       overflow="visible"><path
         d="m 16.031,-40.953 v 9.0625 h 10.516 v 7.2812 H 16.031 v 13.531 c 0,1.4805 0.28906,2.4805 0.875,3 0.59375,0.52344 1.7656,0.78125 3.5156,0.78125 h 5.2344 v 7.2969 h -8.7344 c -4.0312,0 -6.8867,-0.83594 -8.5625,-2.5156 -1.6797,-1.6875 -2.5156,-4.5391 -2.5156,-8.5625 v -13.531 H 0.7654 v -7.2812 h 5.0781 v -9.0625 z"
         id="path185" /></symbol><symbol
       id="f"
       overflow="visible"><path
         d="M 26.594,-27.234 V -44.312 H 36.86 V 0 H 26.594 v -4.6094 c -1.3984,1.875 -2.9453,3.25 -4.6406,4.125 -1.6875,0.875 -3.6406,1.3125 -5.8594,1.3125 -3.9297,0 -7.1562,-1.5625 -9.6875,-4.6875 -2.5234,-3.125 -3.7812,-7.1445 -3.7812,-12.062 0,-4.9141 1.2578,-8.9375 3.7812,-12.062 2.5312,-3.125 5.7578,-4.6875 9.6875,-4.6875 2.1953,0 4.1445,0.44531 5.8438,1.3281 1.707,0.88672 3.2578,2.2578 4.6562,4.1094 z m -6.7188,20.656 c 2.1875,0 3.8516,-0.79688 5,-2.3906 1.1445,-1.5938 1.7188,-3.9102 1.7188,-6.9531 0,-3.0391 -0.57422,-5.3594 -1.7188,-6.9531 -1.1484,-1.5938 -2.8125,-2.3906 -5,-2.3906 -2.168,0 -3.8242,0.79688 -4.9688,2.3906 -1.1484,1.5938 -1.7188,3.9141 -1.7188,6.9531 0,3.043 0.57031,5.3594 1.7188,6.9531 1.1445,1.5938 2.8008,2.3906 4.9688,2.3906 z"
         id="path188" /></symbol><symbol
       id="e"
       overflow="visible"><path
         d="m 21.875,-6.5781 c 2.1758,0 3.8359,-0.79688 4.9844,-2.3906 1.1562,-1.5938 1.7344,-3.9102 1.7344,-6.9531 0,-3.0391 -0.57812,-5.3594 -1.7344,-6.9531 -1.1484,-1.5938 -2.8086,-2.3906 -4.9844,-2.3906 -2.1875,0 -3.8672,0.80469 -5.0312,2.4062 -1.168,1.6055 -1.75,3.918 -1.75,6.9375 0,3.0234 0.58203,5.3359 1.75,6.9375 1.1641,1.6055 2.8438,2.4062 5.0312,2.4062 z m -6.7812,-20.656 c 1.4062,-1.8516 2.9609,-3.2227 4.6719,-4.1094 1.707,-0.88281 3.6719,-1.3281 5.8906,-1.3281 3.9375,0 7.1641,1.5625 9.6875,4.6875 2.5195,3.125 3.7812,7.1484 3.7812,12.062 0,4.918 -1.2617,8.9375 -3.7812,12.062 -2.5234,3.125 -5.75,4.6875 -9.6875,4.6875 -2.2188,0 -4.1836,-0.44531 -5.8906,-1.3281 -1.7109,-0.88281 -3.2656,-2.2539 -4.6719,-4.1094 V -7e-4 H 4.9058 v -44.312 h 10.188 z"
         id="path191" /></symbol><symbol
       id="d"
       overflow="visible"><path
         d="m 24.781,-35.344 c -3.3438,0 -5.9375,1.2344 -7.7812,3.7031 -1.8437,2.4687 -2.7656,5.9453 -2.7656,10.422 0,4.4609 0.92188,7.9219 2.7656,10.391 1.84372,2.4691 4.4375,3.7031 7.7812,3.7031 3.3516,0 5.9531,-1.2344 7.7969,-3.7031 1.8438,-2.4687 2.7656,-5.9297 2.7656,-10.391 0,-4.4766 -0.92188,-7.9531 -2.7656,-10.422 -1.84372,-2.4689 -4.4453,-3.7031 -7.7969,-3.7031 z m 0,-7.9531 c 6.832,0 12.188,1.9609 16.062,5.875 3.875,3.9062 5.8125,9.3086 5.8125,16.203 0,6.875 -1.9375,12.273 -5.8125,16.188 -3.875,3.9062 -9.2305,5.8594 -16.062,5.8594 -6.8242,0 -12.18,-1.9531 -16.062,-5.8594 -3.875,-3.9141 -5.8125,-9.3125 -5.8125,-16.188 0,-6.8945 1.9375,-12.297 5.8125,-16.203 3.8828,-3.9141 9.2383,-5.875 16.062,-5.875 z"
         id="path194" /></symbol><symbol
       id="c"
       overflow="visible"><path
         d="m 4.9062,-44.312 h 10.188 v 24.125 l 11.734,-11.703 h 11.844 l -15.578,14.625 16.812,17.266 H 27.5472 L 15.0942,-13.296 V 0.001 H 4.9062 Z"
         id="path197" /></symbol><symbol
       id="b"
       overflow="visible"><path
         d="m 4.9062,-31.891 h 10.188 V 0 H 4.9062 Z m 0,-12.422 h 10.188 v 8.3125 H 4.9062 Z"
         id="path200" /></symbol><symbol
       id="a"
       overflow="visible"><path
         d="m 43.578,-3.1562 c -2.7422,1.3242 -5.5859,2.3203 -8.5312,2.9844 -2.9375,0.66406 -5.9688,1 -9.0938,1 -7.0859,0 -12.699,-1.9766 -16.844,-5.9375 -4.1367,-3.957 -6.2031,-9.3281 -6.2031,-16.109 0,-6.8516 2.1016,-12.242 6.3125,-16.172 4.2188,-3.9375 9.9922,-5.9062 17.328,-5.9062 2.8203,0 5.5312,0.26562 8.125,0.79688 2.5938,0.53126 5.0391,1.3242 7.3438,2.375 v 8.7969 c -2.375,-1.3438 -4.7422,-2.3477 -7.0938,-3.0156 -2.3438,-0.66406 -4.6953,-1 -7.0469,-1 -4.3672,0 -7.7305,1.2188 -10.094,3.6562 -2.3672,2.4375 -3.5469,5.9297 -3.5469,10.469 0,4.5 1.1406,7.9766 3.4219,10.422 2.2812,2.4492 5.5195,3.6719 9.7188,3.6719 1.1328,0 2.1914,-0.066406 3.1719,-0.20312 0.97656,-0.14453 1.8594,-0.36719 2.6406,-0.67188 v -8.2656 h -6.7031 v -7.3438 h 17.094 z"
         id="path203" /></symbol></defs><g
     inkscape:label="Layer 1"
     inkscape:groupmode="layer"
     id="layer1"
     transform="translate(196.81062,-168.71861)"><g
       id="g226"
       transform="matrix(0.35277778,0,0,0.35277778,-286.20052,104.02169)"><path
         d="m 337.81212,247.85153 c -0.16657,-0.56305 -0.55879,-1.03287 -1.08412,-1.29624 l -18.19883,-9.09936 c -0.81719,-0.4036 -1.80094,-0.24131 -2.44516,0.4036 l -6.8885,6.88839 h 8.8e-4 c -7.64293,-2.18382 -14.60414,-6.27903 -20.22395,-11.89965 -5.61981,-5.62064 -9.71581,-12.58155 -11.89984,-20.22364 l 6.8885,-6.88839 v 8.8e-4 c 0.64493,-0.64421 0.80722,-1.62794 0.4036,-2.44513 l -9.0995,-18.19853 c -0.26837,-0.52959 -0.74602,-0.92253 -1.31762,-1.08411 -1.42296,-0.41286 -2.89783,-0.62071 -4.37991,-0.61644 -4.29098,0 -8.40611,1.70412 -11.43989,4.73865 -3.0345,3.03373 -4.73872,7.14879 -4.73872,11.43971 -0.0292,9.04378 1.73902,18.00282 5.20286,26.35741 3.46384,8.35405 8.55354,15.93636 14.9728,22.3065 6.37096,6.42644 13.95631,11.52098 22.31413,14.98823 8.35764,3.46725 17.32265,5.23832 26.37058,5.20843 4.29098,0 8.40612,-1.70412 11.43989,-4.73865 3.0345,-3.03372 4.73873,-7.14879 4.73873,-11.43971 0.003,-1.48843 -0.20501,-2.97049 -0.61645,-4.40116 z"
         id="path208"
         style="fill:#ffffff;stroke-width:0.182229" /></g></g></svg>
