<?xml version="1.0" encoding="UTF-8" standalone="no"?>
<svg
   version="1.1"
   viewBox="-5 -10 81.085999 93.75"
   id="svg5"
   sodipodi:docname="photo.svg"
   width="81.085999"
   height="93.75"
   inkscape:version="1.4 (1:1.4+202410161351+e7c3feb100)"
   xmlns:inkscape="http://www.inkscape.org/namespaces/inkscape"
   xmlns:sodipodi="http://sodipodi.sourceforge.net/DTD/sodipodi-0.dtd"
   xmlns="http://www.w3.org/2000/svg"
   xmlns:svg="http://www.w3.org/2000/svg">
  <defs
     id="defs5" />
  <sodipodi:namedview
     id="namedview5"
     pagecolor="#ffffff"
     bordercolor="#000000"
     borderopacity="0.25"
     inkscape:showpageshadow="2"
     inkscape:pageopacity="0.0"
     inkscape:pagecheckerboard="0"
     inkscape:deskcolor="#d1d1d1"
     inkscape:zoom="6.0074074"
     inkscape:cx="40.450062"
     inkscape:cy="54.349568"
     inkscape:window-width="1920"
     inkscape:window-height="1016"
     inkscape:window-x="0"
     inkscape:window-y="0"
     inkscape:window-maximized="1"
     inkscape:current-layer="svg5" />
  <path
     d="M 76.086,82.1875 V -8.4375 C 76.086,-9.30078 75.38678,-10 74.5235,-10 H -3.4375 C -4.30078,-10 -5,-9.30078 -5,-8.4375 v 90.625 c 0,0.86328 0.69922,1.5625 1.5625,1.5625 h 77.961 c 0.86328,0 1.5625,-0.69922 1.5625,-1.5625 z M 72.961,80.625 H -1.875 v -87.5 h 74.836 z"
     id="path1" />
  <path
     d="m 2.508,49.8755 v 13.41 c 0,0.86328 0.69922,1.5625 1.5625,1.5625 h 62.945 c 0.86328,0 1.5625,-0.69922 1.5625,-1.5625 v -13.41 -0.03125 -50.773 c 0,-0.86328 -0.69922,-1.5625 -1.5625,-1.5625 H 4.0705 c -0.86328,0 -1.5625,0.69922 -1.5625,1.5625 v 50.777 0.03125 z m 3.125,11.848 v -11.359 l 18.906,-21.254 19.301,21.703 c 0.30859,0.34766 0.73828,0.52344 1.168,0.52344 0.36719,0 0.74219,-0.12891 1.0391,-0.39453 0.64453,-0.57422 0.70312,-1.5625 0.12891,-2.207 l -4.5,-5.0625 8.9102,-10.023 14.867,16.715 v 11.359 l -59.82,-0.0039 z m 59.82,-61.09 v 45.031 L 51.75,30.2625 c -0.59375,-0.66797 -1.7422,-0.66406 -2.3359,0 l -9.8359,11.062 -13.875,-15.602 c -0.29688,-0.33203 -0.72266,-0.52344 -1.168,-0.52344 -0.44531,0 -0.87109,0.19141 -1.168,0.52344 L 5.6252,45.6675 5.6291,0.6325 Z"
     id="path2" />
  <path
     d="m 39.582,25.5945 c 4.6367,0 8.4062,-3.7734 8.4062,-8.4062 0,-4.6367 -3.7734,-8.4062 -8.4062,-8.4062 -4.6367,0 -8.4062,3.7734 -8.4062,8.4062 0,4.6367 3.7734,8.4062 8.4062,8.4062 z m 0,-13.691 c 2.9141,0 5.2812,2.3711 5.2812,5.2812 0,2.9141 -2.3711,5.2812 -5.2812,5.2812 -2.9141,0 -5.2812,-2.3711 -5.2812,-5.2812 0,-2.9141 2.3711,-5.2812 5.2812,-5.2812 z"
     id="path3" />
  <path
     d="M 37.801,70.3245 H 4.172 c -0.86328,0 -1.5625,0.69922 -1.5625,1.5625 0,0.86328 0.69922,1.5625 1.5625,1.5625 h 33.625 c 0.86328,0 1.5625,-0.69922 1.5625,-1.5625 0,-0.86328 -0.69922,-1.5625 -1.5625,-1.5625 z"
     id="path4" />
</svg>
