<?xml version="1.0" encoding="UTF-8" standalone="no"?>
<svg
   version="1.1"
   x="0px"
   y="0px"
   viewBox="0 0 64.260002 64.260003"
   xml:space="preserve"
   id="svg19"
   sodipodi:docname="transfer.svg"
   width="64.260002"
   height="64.260002"
   inkscape:version="1.4 (1:1.4+202410161351+e7c3feb100)"
   xmlns:inkscape="http://www.inkscape.org/namespaces/inkscape"
   xmlns:sodipodi="http://sodipodi.sourceforge.net/DTD/sodipodi-0.dtd"
   xmlns="http://www.w3.org/2000/svg"
   xmlns:svg="http://www.w3.org/2000/svg"><defs
     id="defs19" /><sodipodi:namedview
     id="namedview19"
     pagecolor="#ffffff"
     bordercolor="#000000"
     borderopacity="0.25"
     inkscape:showpageshadow="2"
     inkscape:pageopacity="0.0"
     inkscape:pagecheckerboard="0"
     inkscape:deskcolor="#d1d1d1"
     inkscape:zoom="9.830303"
     inkscape:cx="32.043773"
     inkscape:cy="25.889334"
     inkscape:window-width="1920"
     inkscape:window-height="1016"
     inkscape:window-x="0"
     inkscape:window-y="0"
     inkscape:window-maximized="1"
     inkscape:current-layer="svg19" /><path
     d="m 61.28,37.32 c 1.64,0 2.98,-1.34 2.98,-2.98 v -8.61 c 0,-1.64 -1.34,-2.98 -2.98,-2.98 -0.65,0 -1.24,0.21 -1.73,0.56 v -3.1 -0.89 C 59.55,17.49 58.06,16 56.23,16 H 24.61 c -1.32,0 -2.51,0.78 -3.06,2.02 l -0.71,1.96 -3.08,6.91 c -0.08,0.17 -0.24,0.29 -0.43,0.31 L 4.5,28.39 c -1.63,0.25 -2.81,1.63 -2.81,3.28 v 0.03 4.73 2.74 H 1.25 c -0.68,0 -1.24,0.56 -1.24,1.24 v 2.49 c 0,0.68 0.56,1.24 1.24,1.24 h 4.77 c 0.26,1.44 1.04,2.69 2.14,3.56 H 0.63 C 0.29,47.7 0,47.98 0,48.33 c 0,0.35 0.29,0.62 0.63,0.62 h 63 c 0.34,0 0.63,-0.28 0.63,-0.63 0,-0.35 -0.28,-0.63 -0.63,-0.63 H 51.24 c 1.1,-0.87 1.89,-2.12 2.14,-3.56 h 2.85 c 0.01,0 0.01,0 0.02,0 h 3.68 c 0.68,0 1.24,-0.56 1.24,-1.24 V 40.4 c 0,-0.68 -0.56,-1.24 -1.24,-1.24 h -0.38 v -2.41 c 0.48,0.36 1.08,0.57 1.73,0.57 z M 59.55,25.73 c 0,-0.95 0.78,-1.73 1.73,-1.73 0.95,0 1.73,0.78 1.73,1.73 v 8.61 c 0,0.95 -0.78,1.73 -1.73,1.73 -0.95,0 -1.73,-0.78 -1.73,-1.73 z M 24.61,17.26 h 31.62 c 1.14,0 2.07,0.93 2.07,2.07 v 0.26 H 22.32 l 0.4,-1.1 c 0.32,-0.74 1.07,-1.23 1.89,-1.23 z M 3.73,32.33 c 0.12,0 0.22,0.1 0.22,0.22 v 3.03 c 0,0.12 -0.1,0.23 -0.22,0.23 h -0.8 v -3.48 z m -2.48,8.08 h 3.12 l 0.01,2.47 -3.12,0.01 z m 5.92,2.71 c 0,-2.53 2.05,-4.59 4.58,-4.59 2.53,0 4.59,2.06 4.59,4.59 0,2.53 -2.06,4.58 -4.59,4.58 -2.52,0 -4.58,-2.06 -4.58,-4.58 z m 40.47,4.58 c -2.53,0 -4.58,-2.05 -4.58,-4.58 0,-2.53 2.05,-4.59 4.58,-4.59 2.53,0 4.59,2.06 4.59,4.59 0,0.13 -0.03,0.26 -0.04,0.39 0,0 0,0 0,0.01 0,0 0,0 0,0 -0.21,2.33 -2.16,4.18 -4.55,4.18 z m 12.29,-4.81 -3.68,0.01 c -0.01,0 -0.01,0 -0.02,0 H 55.7 l -0.01,-2.48 h 4.23 z m -4.24,-3.73 c -0.68,0 -1.24,0.56 -1.24,1.24 v 2.49 h -0.99 c -0.12,-3.11 -2.68,-5.61 -5.83,-5.61 -3.21,0 -5.83,2.62 -5.83,5.84 0,1.86 0.88,3.51 2.24,4.58 H 15.35 c 1.36,-1.07 2.24,-2.72 2.24,-4.58 0,-3.22 -2.62,-5.84 -5.84,-5.84 -3.14,0 -5.7,2.5 -5.82,5.61 H 5.62 V 40.4 c 0,-0.68 -0.56,-1.24 -1.24,-1.24 H 2.93 v -2.11 h 0.8 c 0.81,0 1.47,-0.66 1.47,-1.48 v -3.02 c 0,-0.81 -0.66,-1.47 -1.47,-1.47 h -0.7 c 0.22,-0.75 0.84,-1.33 1.62,-1.45 l 12.8,-1.18 c 0.64,-0.06 1.19,-0.46 1.45,-1.04 l 2.93,-6.57 H 58.3 v 18.32 z"
     id="path1" /><path
     d="M 40.47,42.89 H 18.92 c -0.34,0 -0.63,0.28 -0.63,0.63 0,0.35 0.28,0.63 0.63,0.63 h 21.55 c 0.34,0 0.63,-0.28 0.63,-0.63 0,-0.35 -0.28,-0.63 -0.63,-0.63 z"
     id="path18" /></svg>
