<?xml version="1.0" encoding="UTF-8" standalone="no"?>
<svg
   viewBox="0 0 23.211252 23.211542"
   fill="none"
   x="0px"
   y="0px"
   version="1.1"
   id="svg3"
   sodipodi:docname="noun-run-4928493.svg"
   width="23.211252"
   height="23.211542"
   inkscape:version="1.3 (1:1.3+202307231459+0e150ed6c4)"
   xmlns:inkscape="http://www.inkscape.org/namespaces/inkscape"
   xmlns:sodipodi="http://sodipodi.sourceforge.net/DTD/sodipodi-0.dtd"
   xmlns="http://www.w3.org/2000/svg"
   xmlns:svg="http://www.w3.org/2000/svg">
  <defs
     id="defs3" />
  <sodipodi:namedview
     id="namedview3"
     pagecolor="#ffffff"
     bordercolor="#000000"
     borderopacity="0.25"
     inkscape:showpageshadow="2"
     inkscape:pageopacity="0.0"
     inkscape:pagecheckerboard="0"
     inkscape:deskcolor="#d1d1d1"
     inkscape:zoom="9.6166522"
     inkscape:cx="-1.3518218"
     inkscape:cy="13.830177"
     inkscape:window-width="1920"
     inkscape:window-height="1016"
     inkscape:window-x="0"
     inkscape:window-y="0"
     inkscape:window-maximized="1"
     inkscape:current-layer="svg3" />
  <path
     d="m 17.103088,4.8865959 c 1.349433,0 2.443298,-1.0939011 2.443298,-2.4432979 C 19.546386,1.0939012 18.452521,0 17.103088,0 15.753654,0 14.65979,1.0939012 14.65979,2.443298 c 0,1.3493968 1.093864,2.4432979 2.443298,2.4432979 z"
     fill="#000000"
     id="path1"
     style="stroke-width:1.22165" />
  <path
     d="m 11.749578,6.0420926 c 0.09785,0.096046 0.18679,0.1881461 0.266075,0.2734294 -0.154294,0.339875 -0.373214,0.8053966 -0.662745,1.3843482 -0.670929,1.3420425 -1.7211814,3.2932598 -3.2264117,5.7017408 -1.438565,2.301709 -3.3257805,4.19502 -4.874697,5.522708 -0.7707017,0.660546 -1.4485092,1.173394 -1.9305841,1.518999 -0.2408236,0.172741 -0.43218274,0.303213 -0.56111564,0.389217 -0.064454,0.04288 -0.1132468,0.07476 -0.1447654,0.09504 l -0.034084,0.02187 -0.00755,0.0048 c -0.57163395,0.357699 -0.74530357,1.11109 -0.3878369,1.682944 0.3575889,0.57222 1.11128524,0.746061 1.68342014,0.388484 L 1.222054,21.990048 c 0.6472296,1.035591 0.6483413,1.034981 0.6483413,1.034981 l 0.00156,-9.78e-4 0.00446,-0.0028 0.014183,-0.009 0.048939,-0.03127 c 0.041548,-0.02688 0.100725,-0.06536 0.1758564,-0.115446 0.1502262,-0.100175 0.3644912,-0.246529 0.6295035,-0.436495 0.5295848,-0.379688 1.2642845,-0.935783 2.0969849,-1.649593 1.6453535,-1.410271 3.7095493,-3.466673 5.3197929,-6.024439 0.143788,0.02932 0.309322,0.06414 0.491958,0.104817 0.662989,0.147209 1.535491,0.365884 2.398342,0.653582 0.878243,0.292707 1.674758,0.63367 2.228287,1.00273 0.274871,0.183247 0.441382,0.341817 0.530685,0.460928 0.04215,0.0562 0.05949,0.09346 0.06609,0.11117 0.0021,0.0054 0.0032,0.0094 0.0039,0.01197 l 6.11e-4,0.0032 c 0,0.191799 -0.09834,0.485728 -0.454942,0.886918 -0.34988,0.393615 -0.852955,0.780267 -1.414181,1.131002 -0.552674,0.34536 -1.113533,0.626462 -1.541232,0.822537 -0.212323,0.09724 -0.387996,0.171886 -0.508695,0.221484 -0.06023,0.02468 -0.106528,0.04312 -0.136458,0.05485 l -0.03237,0.01258 -0.0068,0.0026 c -0.631226,0.237244 -0.950809,0.941036 -0.714054,1.572507 0.236878,0.631714 0.941159,0.951786 1.572873,0.714908 l -0.429043,-1.143829 c 0.429043,1.143829 0.430265,1.143341 0.430265,1.143341 l 0.0062,-0.0023 0.01454,-0.0056 0.04948,-0.01906 c 0.04154,-0.01637 0.100297,-0.0397 0.173596,-0.06988 0.146598,-0.06011 0.35269,-0.147819 0.598486,-0.260456 0.488537,-0.223928 1.149327,-0.553651 1.81818,-0.971699 0.660546,-0.412795 1.378997,-0.942502 1.945476,-1.579592 0.559393,-0.629516 1.071997,-1.480639 1.071997,-2.510489 0,-1.259398 -0.928331,-2.112597 -1.689296,-2.619948 -0.820704,-0.547177 -1.856662,-0.969623 -2.810892,-1.28774 -0.833165,-0.277681 -1.659244,-0.493669 -2.326631,-0.649185 0.881542,-1.511057 1.553083,-2.7792506 2.040276,-3.7536379 0.05852,-0.1169118 0.114346,-0.22967 0.167488,-0.3380669 0.340352,0.356636 0.747649,0.7313162 1.221649,1.0804632 1.721181,1.2683156 4.322072,2.1819866 7.557976,0.7437396 0.616559,-0.274158 0.89424,-0.9960306 0.620224,-1.6125964 C 22.831644,8.049665 22.10965,7.7719964 21.493206,8.0460122 19.231811,9.0510751 17.55693,8.4376485 16.376817,7.5680543 15.765871,7.1179255 15.289794,6.5950353 14.964347,6.1776956 14.803089,5.9709926 14.682879,5.7954539 14.605304,5.6756834 14.5667,5.6159448 14.538847,5.5705361 14.52211,5.542597 L 14.51451,5.52955 C 14.48861,5.481686 14.45929,5.43497 14.42643,5.389769 l -0.0016,-0.00213 -0.002,-0.00275 -0.0054,-0.00734 L 14.40118,5.35573 C 14.38786,5.338077 14.36978,5.314316 14.34706,5.285082 14.301847,5.2266663 14.237588,5.1461474 14.155982,5.0487454 13.993136,4.854491 13.758213,4.5900895 13.461352,4.2986895 12.877893,3.7258339 12.007468,3.0007975 10.933028,2.5265411 9.8409956,2.0445151 8.4869683,1.8027508 7.0389355,2.3074262 5.6075294,2.8063109 4.2737453,3.969052 3.0709464,5.9085297 2.715361,6.4819106 2.8919137,7.2349961 3.4652947,7.5905937 4.0386756,7.9461913 4.7917733,7.7696264 5.1473587,7.1962454 6.1657619,5.5541171 7.1087406,4.8705434 7.8430493,4.6146202 8.560707,4.3644876 9.2614446,4.4594219 9.9464236,4.7617678 10.648994,5.0718956 11.277899,5.5789532 11.749578,6.0420926 Z"
     fill="#000000"
     id="path2"
     style="stroke-width:1.22165" />
</svg>
