<?xml version="1.0" encoding="UTF-8" standalone="no"?>
<svg
   width="51.897041pt"
   height="51.897041pt"
   version="1.1"
   viewBox="0 0 51.897041 51.897041"
   id="svg566"
   sodipodi:docname="blocked.svg"
   inkscape:version="1.3 (1:1.3+202307231459+0e150ed6c4)"
   xmlns:inkscape="http://www.inkscape.org/namespaces/inkscape"
   xmlns:sodipodi="http://sodipodi.sourceforge.net/DTD/sodipodi-0.dtd"
   xmlns="http://www.w3.org/2000/svg"
   xmlns:svg="http://www.w3.org/2000/svg">
  <sodipodi:namedview
     id="namedview568"
     pagecolor="#ffffff"
     bordercolor="#666666"
     borderopacity="1.0"
     inkscape:showpageshadow="2"
     inkscape:pageopacity="0.0"
     inkscape:pagecheckerboard="0"
     inkscape:deskcolor="#d1d1d1"
     inkscape:document-units="pt"
     showgrid="false"
     inkscape:zoom="8.0914285"
     inkscape:cx="-7.4152543"
     inkscape:cy="31.762006"
     inkscape:window-width="1920"
     inkscape:window-height="1016"
     inkscape:window-x="0"
     inkscape:window-y="0"
     inkscape:window-maximized="1"
     inkscape:current-layer="g564" />
  <defs
     id="defs480">
    <symbol
       id="w"
       overflow="visible">
      <path
         d="m 19.734,-1.1875 c -1.0117,0.53125 -2.0703,0.93359 -3.1719,1.2031 -1.1055,0.26953 -2.2578,0.40625 -3.4531,0.40625 -3.5859,0 -6.4219,-1 -8.5156,-3 -2.0859,-2 -3.125,-4.7109 -3.125,-8.1406 0,-3.4375 1.0391,-6.1562 3.125,-8.1562 2.0938,-2 4.9297,-3 8.5156,-3 1.1953,0 2.3477,0.13672 3.4531,0.40625 1.1016,0.27344 2.1602,0.66797 3.1719,1.1875 v 4.4531 c -1.0234,-0.69531 -2.0312,-1.207 -3.0312,-1.5312 -1,-0.33203 -2.0547,-0.5 -3.1562,-0.5 -1.9688,0 -3.5234,0.63672 -4.6562,1.9062 -1.1367,1.2617 -1.7031,3.0078 -1.7031,5.2344 0,2.2188 0.56641,3.9648 1.7031,5.2344 1.1328,1.2617 2.6875,1.8906 4.6562,1.8906 1.1016,0 2.1562,-0.16016 3.1562,-0.48438 1,-0.33203 2.0078,-0.84766 3.0312,-1.5469 z"
         id="path411" />
    </symbol>
    <symbol
       id="b"
       overflow="visible">
      <path
         d="m 14.453,-11.734 c -0.46094,-0.20703 -0.91406,-0.35938 -1.3594,-0.45312 -0.4375,-0.10156 -0.88672,-0.15625 -1.3438,-0.15625 -1.3242,0 -2.3438,0.42969 -3.0625,1.2812 -0.71094,0.84375 -1.0625,2.0586 -1.0625,3.6406 V 3.3e-4 H 2.4686 v -16.109 h 5.1562 v 2.6406 c 0.66406,-1.0508 1.4258,-1.8164 2.2812,-2.2969 0.85156,-0.48828 1.8828,-0.73438 3.0938,-0.73438 0.16406,0 0.34766,0.0078 0.54688,0.01563 0.20703,0.01172 0.50391,0.04297 0.89062,0.09375 z"
         id="path414" />
    </symbol>
    <symbol
       id="a"
       overflow="visible">
      <path
         d="m 18.562,-8.0938 v 1.4531 H 6.515 c 0.125,1.2109 0.5625,2.1211 1.3125,2.7344 0.75,0.60547 1.7969,0.90625 3.1406,0.90625 1.082,0 2.1914,-0.16016 3.3281,-0.48438 1.1328,-0.32031 2.3008,-0.8125 3.5,-1.4688 v 3.9688 c -1.2188,0.46875 -2.4375,0.82031 -3.6562,1.0469 -1.2188,0.23828 -2.4375,0.35938 -3.6562,0.35938 -2.918,0 -5.1836,-0.73828 -6.7969,-2.2188 -1.6172,-1.4883 -2.4219,-3.5703 -2.4219,-6.25 0,-2.625 0.78906,-4.6875 2.375,-6.1875 1.5938,-1.5078 3.7812,-2.2656 6.5625,-2.2656 2.5312,0 4.5547,0.76562 6.0781,2.2969 1.5195,1.5234 2.2812,3.5586 2.2812,6.1094 z m -5.2969,-1.7188 c 0,-0.97656 -0.28906,-1.7656 -0.85938,-2.3594 -0.57422,-0.60156 -1.3203,-0.90625 -2.2344,-0.90625 -1,0 -1.8125,0.28125 -2.4375,0.84375 -0.61719,0.5625 -1,1.3711 -1.1562,2.4219 z"
         id="path417" />
    </symbol>
    <symbol
       id="e"
       overflow="visible">
      <path
         d="m 9.7031,-7.25 c -1.0742,0 -1.8867,0.18359 -2.4375,0.54688 -0.54297,0.36719 -0.8125,0.90234 -0.8125,1.6094 0,0.65625 0.21875,1.1719 0.65625,1.5469 0.4375,0.36719 1.0469,0.54688 1.8281,0.54688 0.96875,0 1.7812,-0.34766 2.4375,-1.0469 0.66406,-0.69531 1,-1.5664 1,-2.6094 v -0.59375 z m 7.8594,-1.9375 V 0 H 12.375 v -2.3906 c -0.6875,0.98047 -1.4648,1.6953 -2.3281,2.1406 -0.86719,0.44531 -1.918,0.67188 -3.1562,0.67188 -1.668,0 -3.0234,-0.48438 -4.0625,-1.4531 -1.043,-0.97656 -1.5625,-2.2422 -1.5625,-3.7969 0,-1.8945 0.64844,-3.2812 1.9531,-4.1562 1.3008,-0.88281 3.3438,-1.3281 6.125,-1.3281 h 3.0312 v -0.40625 c 0,-0.8125 -0.32422,-1.4062 -0.96875,-1.7812 -0.63672,-0.38281 -1.6367,-0.57812 -3,-0.57812 -1.1055,0 -2.1328,0.10938 -3.0781,0.32812 -0.94922,0.21875 -1.8359,0.55469 -2.6562,1 v -3.9375 c 1.1016,-0.26953 2.2109,-0.47266 3.3281,-0.60938 1.1133,-0.13281 2.2266,-0.20312 3.3438,-0.20312 2.9062,0 5,0.57422 6.2812,1.7188 1.2891,1.1484 1.9375,3.0117 1.9375,5.5938 z"
         id="path420" />
    </symbol>
    <symbol
       id="d"
       overflow="visible">
      <path
         d="m 8.0938,-20.688 v 4.5781 h 5.3125 v 3.6719 H 8.0938 v 6.8438 c 0,0.75 0.14844,1.2578 0.45312,1.5156 0.30078,0.26172 0.89062,0.39062 1.7656,0.39062 h 2.6562 v 3.6875 h -4.4219 c -2.0312,0 -3.4766,-0.42188 -4.3281,-1.2656 -0.84375,-0.85156 -1.2656,-2.2969 -1.2656,-4.3281 v -6.8438 h -2.5625 v -3.6719 h 2.5625 v -4.5781 z"
         id="path423" />
    </symbol>
    <symbol
       id="l"
       overflow="visible">
      <path
         d="m 13.438,-13.75 v -8.6406 h 5.1875 V 4e-4 H 13.438 v -2.3281 c -0.71094,0.94922 -1.4922,1.6484 -2.3438,2.0938 -0.85547,0.4375 -1.8438,0.65625 -2.9688,0.65625 -1.9805,0 -3.6094,-0.78516 -4.8906,-2.3594 -1.2734,-1.582 -1.9062,-3.6172 -1.9062,-6.1094 0,-2.4766 0.63281,-4.5039 1.9062,-6.0781 1.2812,-1.582 2.9102,-2.375 4.8906,-2.375 1.1133,0 2.0977,0.22656 2.9531,0.67188 0.86328,0.4375 1.6484,1.1328 2.3594,2.0781 z m -3.3906,10.422 c 1.1016,0 1.9414,-0.39844 2.5156,-1.2031 0.58203,-0.80078 0.875,-1.9727 0.875,-3.5156 0,-1.5312 -0.29297,-2.6953 -0.875,-3.5 -0.57422,-0.8125 -1.4141,-1.2188 -2.5156,-1.2188 -1.0938,0 -1.9336,0.40625 -2.5156,1.2188 -0.58594,0.80469 -0.875,1.9688 -0.875,3.5 0,1.543 0.28906,2.7148 0.875,3.5156 0.58203,0.80469 1.4219,1.2031 2.5156,1.2031 z"
         id="path426" />
    </symbol>
    <symbol
       id="k"
       overflow="visible">
      <path
         d="m 11.047,-3.3281 c 1.1016,0 1.9453,-0.39844 2.5312,-1.2031 0.58203,-0.80078 0.875,-1.9727 0.875,-3.5156 0,-1.5312 -0.29297,-2.6953 -0.875,-3.5 -0.58594,-0.8125 -1.4297,-1.2188 -2.5312,-1.2188 -1.1055,0 -1.9531,0.40625 -2.5469,1.2188 -0.58594,0.8125 -0.875,1.9805 -0.875,3.5 0,1.5312 0.28906,2.7031 0.875,3.5156 0.59375,0.80469 1.4414,1.2031 2.5469,1.2031 z m -3.4219,-10.422 c 0.70703,-0.94531 1.4922,-1.6406 2.3594,-2.0781 0.86328,-0.44531 1.8594,-0.67188 2.9844,-0.67188 1.9766,0 3.6016,0.79297 4.875,2.375 1.2812,1.5742 1.9219,3.6016 1.9219,6.0781 0,2.4922 -0.64062,4.5273 -1.9219,6.1094 -1.2734,1.5742 -2.8984,2.3594 -4.875,2.3594 -1.125,0 -2.1211,-0.22656 -2.9844,-0.67188 -0.86719,-0.44531 -1.6523,-1.1406 -2.3594,-2.0781 V -6e-5 H 2.4689 v -22.391 h 5.1562 z"
         id="path429" />
    </symbol>
    <symbol
       id="j"
       overflow="visible">
      <path
         d="m 0.35938,-16.109 h 5.1562 l 4.3281,10.922 3.6875,-10.922 h 5.1406 l -6.7656,17.641 c -0.6875,1.7891 -1.4844,3.0391 -2.3906,3.75 -0.90625,0.71875 -2.1055,1.0781 -3.5938,1.0781 h -2.9688 v -3.375 h 1.6094 c 0.875,0 1.5078,-0.14062 1.9062,-0.42188 0.39453,-0.28125 0.70312,-0.78125 0.92188,-1.5 l 0.15625,-0.4375 z"
         id="path432" />
    </symbol>
    <symbol
       id="i"
       overflow="visible">
      <path
         d="m 10.578,-11.953 c 1.1562,0 1.9844,-0.21094 2.4844,-0.64062 0.50781,-0.4375 0.76562,-1.1484 0.76562,-2.1406 0,-0.97656 -0.25781,-1.6758 -0.76562,-2.0938 -0.5,-0.42578 -1.3281,-0.64062 -2.4844,-0.64062 H 8.2499 v 5.5156 z M 8.2499,-8.1249 V 10e-5 H 2.703 v -21.484 h 8.4688 c 2.8203,0 4.8945,0.47656 6.2188,1.4219 1.3203,0.94922 1.9844,2.4531 1.9844,4.5156 0,1.418 -0.34375,2.5859 -1.0312,3.5 -0.6875,0.90625 -1.7266,1.5742 -3.1094,2 0.75781,0.17969 1.4375,0.57422 2.0312,1.1875 0.60156,0.60547 1.2109,1.5273 1.8281,2.7656 L 22.1093,5e-4 h -5.9062 l -2.625,-5.3438 C 13.05466,-6.4136 12.5234,-7.1441 11.9843,-7.5308 11.44133,-7.92533 10.7187,-8.12455 9.8124,-8.12455 Z"
         id="path435" />
    </symbol>
    <symbol
       id="c"
       overflow="visible">
      <path
         d="m 10.141,-12.828 c -1.1367,0 -2.0078,0.41406 -2.6094,1.2344 -0.59375,0.82422 -0.89062,2.0078 -0.89062,3.5469 0,1.543 0.29688,2.7266 0.89062,3.5469 0.60156,0.82422 1.4727,1.2344 2.6094,1.2344 1.125,0 1.9844,-0.41016 2.5781,-1.2344 0.59375,-0.82031 0.89062,-2.0039 0.89062,-3.5469 0,-1.5391 -0.29688,-2.7227 -0.89062,-3.5469 -0.59375,-0.82031 -1.4531,-1.2344 -2.5781,-1.2344 z m 0,-3.6719 c 2.7695,0 4.9375,0.75 6.5,2.25 1.5625,1.4922 2.3438,3.5586 2.3438,6.2031 0,2.6484 -0.78125,4.7188 -2.3438,6.2188 -1.56255,1.5 -3.7305,2.25 -6.5,2.25 -2.7812,0 -4.9609,-0.75 -6.5312,-2.25 -1.5625,-1.5 -2.3438,-3.5703 -2.3438,-6.2188 0,-2.6445 0.78125,-4.7109 2.3438,-6.2031 1.5703,-1.5 3.75,-2.25 6.5312,-2.25 z"
         id="path438" />
    </symbol>
    <symbol
       id="v"
       overflow="visible">
      <path
         d="M 2.4688,-22.391 H 7.625 v 12.188 l 5.9219,-5.9062 h 6 l -7.875,7.3906 8.4844,8.7188 H 13.9219 L 7.625,-6.7186 V 2e-4 H 2.4688 Z"
         id="path441" />
    </symbol>
    <symbol
       id="f"
       overflow="visible">
      <path
         d="M 18.672,-9.8125 V 0 h -5.1719 v -7.4844 c 0,-1.4062 -0.03125,-2.375 -0.09375,-2.9062 -0.0625,-0.5312 -0.17188,-0.91406 -0.32812,-1.1562 -0.19922,-0.34375 -0.47656,-0.60938 -0.82812,-0.79688 -0.34375,-0.1875 -0.73438,-0.28125 -1.1719,-0.28125 -1.0742,0 -1.918,0.41797 -2.5312,1.25 -0.61719,0.83594 -0.92188,1.9844 -0.92188,3.4531 V 7e-5 h -5.1562 v -22.391 h 5.1562 v 8.6406 c 0.78125,-0.94531 1.6016,-1.6406 2.4688,-2.0781 0.875,-0.44531 1.8438,-0.67188 2.9062,-0.67188 1.8516,0 3.2578,0.57422 4.2188,1.7188 0.96875,1.1367 1.4531,2.793 1.4531,4.9688 z"
         id="path444" />
    </symbol>
    <symbol
       id="h"
       overflow="visible">
      <path
         d="m 17.406,-13.438 c 0.65625,-1 1.4297,-1.7578 2.3281,-2.2812 0.89453,-0.51953 1.8789,-0.78125 2.9531,-0.78125 1.8516,0 3.2656,0.57422 4.2344,1.7188 0.96875,1.1367 1.4531,2.793 1.4531,4.9688 v 9.8125 h -5.1875 v -8.4062 c 0.0078,-0.125 0.01563,-0.25391 0.01563,-0.39062 0.0078,-0.13281 0.01563,-0.32812 0.01563,-0.57812 0,-1.1328 -0.16797,-1.957 -0.5,-2.4688 -0.33594,-0.51953 -0.875,-0.78125 -1.625,-0.78125 -0.98047,0 -1.7344,0.40625 -2.2656,1.2188 -0.53125,0.80469 -0.80859,1.9688 -0.82812,3.5 v 7.9062 h -5.1719 v -8.4062 c 0,-1.7812 -0.15625,-2.9258 -0.46875,-3.4375 -0.30469,-0.51953 -0.85156,-0.78125 -1.6406,-0.78125 -0.99219,0 -1.7578,0.40625 -2.2969,1.2188 -0.53125,0.8125 -0.79688,1.9766 -0.79688,3.4844 v 7.9219 H 2.4528 v -16.109 h 5.1719 v 2.3594 c 0.63281,-0.91406 1.3594,-1.6016 2.1719,-2.0625 0.82031,-0.45703 1.7266,-0.6875 2.7188,-0.6875 1.1133,0 2.0977,0.27344 2.9531,0.8125 0.85156,0.53125 1.5,1.2812 1.9375,2.25 z"
         id="path447" />
    </symbol>
    <symbol
       id="g"
       overflow="visible">
      <path
         d="M 18.672,-9.8125 V 0 h -5.1719 v -7.5156 c 0,-1.3828 -0.03125,-2.3438 -0.09375,-2.875 -0.0625,-0.5312 -0.17188,-0.91406 -0.32812,-1.1562 -0.19922,-0.34375 -0.47656,-0.60938 -0.82812,-0.79688 -0.34375,-0.1875 -0.73438,-0.28125 -1.1719,-0.28125 -1.0742,0 -1.918,0.41797 -2.5312,1.25 -0.61719,0.83594 -0.92188,1.9844 -0.92188,3.4531 V 7e-5 h -5.1562 v -16.109 h 5.1562 v 2.3594 c 0.78125,-0.94531 1.6016,-1.6406 2.4688,-2.0781 0.875,-0.44531 1.8438,-0.67188 2.9062,-0.67188 1.8516,0 3.2578,0.57422 4.2188,1.7188 0.96875,1.1367 1.4531,2.793 1.4531,4.9688 z"
         id="path450" />
    </symbol>
    <symbol
       id="u"
       overflow="visible">
      <path
         d="M 2.7031,-21.484 H 8.25 v 7.8438 l 7.9844,-7.8438 h 6.4219 L 12.3123,-11.312 23.7343,0 H 16.7968 L 8.2499,-8.4531 V 0 H 2.703 Z"
         id="path453" />
    </symbol>
    <symbol
       id="t"
       overflow="visible">
      <path
         d="M 2.4688,-16.109 H 7.625 V 0 H 2.4688 Z m 0,-6.2812 H 7.625 v 4.2031 H 2.4688 Z"
         id="path456" />
    </symbol>
    <symbol
       id="s"
       overflow="visible">
      <path
         d="m 15.062,-15.609 v 3.9062 c -1.1055,-0.45703 -2.1719,-0.80078 -3.2031,-1.0312 -1.0234,-0.22656 -1.9844,-0.34375 -2.8906,-0.34375 -0.98047,0 -1.7109,0.125 -2.1875,0.375 -0.46875,0.24219 -0.70312,0.61719 -0.70312,1.125 0,0.40625 0.17578,0.72656 0.53125,0.95312 0.36328,0.21875 1.0078,0.38281 1.9375,0.48438 l 0.90625,0.125 c 2.6328,0.33594 4.4062,0.88672 5.3125,1.6562 0.91406,0.77344 1.375,1.9766 1.375,3.6094 0,1.7188 -0.63672,3.0117 -1.9062,3.875 -1.2617,0.86719 -3.1484,1.2969 -5.6562,1.2969 -1.0625,0 -2.168,-0.089844 -3.3125,-0.26562 -1.1367,-0.16406 -2.3047,-0.41406 -3.5,-0.75 v -3.9062 c 1.0312,0.5 2.082,0.875 3.1562,1.125 1.082,0.25 2.1797,0.375 3.2969,0.375 1.0078,0 1.7656,-0.14062 2.2656,-0.42188 0.50781,-0.28125 0.76562,-0.69141 0.76562,-1.2344 0,-0.46875 -0.17969,-0.8125 -0.53125,-1.0312 C 10.3746,-5.91361 9.67925,-6.0933 8.64025,-6.2183 L 7.734,-6.32768 c -2.3047,-0.28906 -3.9141,-0.82031 -4.8281,-1.5938 -0.91797,-0.78125 -1.375,-1.9609 -1.375,-3.5469 0,-1.707 0.58203,-2.9727 1.75,-3.7969 1.1641,-0.82031 2.957,-1.2344 5.375,-1.2344 0.95703,0 1.957,0.07422 3,0.21875 1.0391,0.13672 2.1758,0.35938 3.4062,0.67188 z"
         id="path459" />
    </symbol>
    <symbol
       id="r"
       overflow="visible">
      <path
         d="m 13.078,-22.391 v 3.375 h -2.8438 c -0.73047,0 -1.2422,0.13672 -1.5312,0.40625 -0.28125,0.26172 -0.42188,0.71875 -0.42188,1.375 v 1.125 h 4.3906 v 3.6719 h -4.3906 v 12.438 h -5.1562 v -12.438 h -2.5625 v -3.6719 h 2.5625 v -1.125 c 0,-1.7578 0.48828,-3.0547 1.4688,-3.8906 0.97656,-0.84375 2.4922,-1.2656 4.5469,-1.2656 z"
         id="path462" />
    </symbol>
    <symbol
       id="q"
       overflow="visible">
      <path
         d="m 2.7031,-21.484 h 6.1875 l 7.8125,14.734 v -14.734 h 5.25 V 0 H 15.7656 L 7.9531,-14.734 V 0 h -5.25 z"
         id="path465" />
    </symbol>
    <symbol
       id="p"
       overflow="visible">
      <path
         d="m 2.2969,-6.2812 v -9.8281 h 5.1875 v 1.6094 c 0,0.875 -0.00781,1.9766 -0.015625,3.2969 -0.011719,1.3125 -0.015625,2.1875 -0.015625,2.625 0,1.293 0.03125,2.2266 0.09375,2.7969 0.070313,0.57422 0.19141,0.99219 0.35938,1.25 0.20703,0.33594 0.47656,0.59375 0.8125,0.78125 0.34375,0.17969 0.73828,0.26562 1.1875,0.26562 1.0703,0 1.9141,-0.41016 2.5312,-1.2344 0.61328,-0.82031 0.92188,-1.9688 0.92188,-3.4375 v -7.9531 h 5.1406 v 16.109 h -5.1406 v -2.3281 c -0.78125,0.9375 -1.6094,1.6328 -2.4844,2.0781 -0.86719,0.44531 -1.8203,0.67188 -2.8594,0.67188 -1.8672,0 -3.2891,-0.56641 -4.2656,-1.7031 -0.96875,-1.1445 -1.4531,-2.8125 -1.4531,-5 z"
         id="path468" />
    </symbol>
    <symbol
       id="o"
       overflow="visible">
      <path
         d="m 2.7031,-21.484 h 9.2031 c 2.7266,0 4.8203,0.60938 6.2812,1.8281 1.4688,1.2109 2.2031,2.9375 2.2031,5.1875 0,2.25 -0.73438,3.9844 -2.2031,5.2031 -1.4609,1.2109 -3.5547,1.8125 -6.2812,1.8125 H 8.25 V 3e-4 H 2.7031 Z m 5.5469,4.0156 v 6 h 3.0625 c 1.0703,0 1.8984,-0.25781 2.4844,-0.78125 0.58203,-0.51953 0.875,-1.2578 0.875,-2.2188 0,-0.96875 -0.29297,-1.707 -0.875,-2.2188 -0.58594,-0.51953 -1.4141,-0.78125 -2.4844,-0.78125 z"
         id="path471" />
    </symbol>
    <symbol
       id="n"
       overflow="visible">
      <path
         d="M 2.4688,-16.109 H 7.625 v 15.828 c 0,2.1562 -0.52344,3.8008 -1.5625,4.9375 -1.0312,1.1328 -2.5312,1.7031 -4.5,1.7031 h -2.5469 v -3.375 h 0.89062 c 0.97656,0 1.6484,-0.22656 2.0156,-0.67188 0.36328,-0.4375 0.54688,-1.3047 0.54688,-2.5938 z m 0,-6.2812 H 7.625 v 4.2031 H 2.4688 Z"
         id="path474" />
    </symbol>
    <symbol
       id="m"
       overflow="visible">
      <path
         d="m 15.5,-15.609 v 4.2031 c -0.69922,-0.47656 -1.4023,-0.83203 -2.1094,-1.0625 -0.71094,-0.23828 -1.4453,-0.35938 -2.2031,-0.35938 -1.4375,0 -2.5586,0.42188 -3.3594,1.2656 -0.79297,0.84375 -1.1875,2.0156 -1.1875,3.5156 0,1.5117 0.39453,2.6875 1.1875,3.5312 0.80078,0.83594 1.9219,1.25 3.3594,1.25 0.8125,0 1.5781,-0.11719 2.2969,-0.35938 0.72656,-0.23828 1.3984,-0.59375 2.0156,-1.0625 v 4.2188 c -0.8125,0.29297 -1.6367,0.50781 -2.4688,0.65625 -0.82422,0.15625 -1.6523,0.23438 -2.4844,0.23438 -2.9062,0 -5.1836,-0.74219 -6.8281,-2.2344 -1.6367,-1.5 -2.4531,-3.5781 -2.4531,-6.2344 0,-2.6563 0.81641,-4.7266 2.4531,-6.2188 1.6445,-1.4883 3.9219,-2.2344 6.8281,-2.2344 0.84375,0 1.6758,0.07422 2.5,0.21875 0.82031,0.14844 1.6406,0.37109 2.4531,0.67188 z"
         id="path477" />
    </symbol>
  </defs>
  <g
     id="g564"
     transform="translate(-324.05148,-254.04748)">
    <path
       d="m 368.34823,261.64777 c -4.86642,-4.86642 -11.46599,-7.60029 -18.34823,-7.60029 -6.88224,0 -13.48238,2.73387 -18.34823,7.60029 -4.86585,4.86642 -7.60029,11.46599 -7.60029,18.34823 0,6.88224 2.73387,13.48238 7.60029,18.34823 4.86642,4.86585 11.46599,7.60029 18.34823,7.60029 6.88224,0 13.48238,-2.73387 18.34823,-7.60029 4.86585,-4.86642 7.60029,-11.46599 7.60029,-18.34823 0,-6.88224 -2.73387,-13.48238 -7.60029,-18.34823 z m -1.44035,35.25659 c -4.50034,4.40757 -10.55813,6.86141 -16.85629,6.82857 -6.299,-0.0329 -12.33029,-2.54975 -16.78434,-7.0038 -4.45415,-4.45415 -6.97095,-10.48619 -7.0038,-16.78434 -0.0329,-6.29863 2.421,-12.35586 6.82857,-16.8563 4.50035,-4.40757 10.55814,-6.86141 16.85629,-6.82856 6.29901,0.0329 12.33029,2.54974 16.78435,7.00379 4.45414,4.45415 6.97094,10.48619 7.00379,16.78435 0.0329,6.29862 -2.421,12.35585 -6.82857,16.85629 z m -0.28289,-29.96664 c -0.18008,-0.22816 -0.44892,-0.36867 -0.73921,-0.38606 -0.29028,-0.017 -0.57391,0.0902 -0.77952,0.29584 l -28.25128,28.25601 c -0.20524,0.20561 -0.31284,0.48924 -0.29546,0.77952 0.0174,0.29029 0.15753,0.55912 0.38606,0.73921 4.06506,3.19499 9.16048,4.78879 14.32207,4.48075 5.16121,-0.3084 10.0299,-2.49758 13.68686,-6.15331 3.65611,-3.65573 5.84565,-8.5248 6.15445,-13.68592 0.3084,-5.16121 -1.285,-10.25615 -4.47923,-14.32207 z m -3.11954,26.56244 h 3.7e-4 c -1.76941,1.77982 -3.87393,3.19091 -6.1925,4.15197 -2.31819,0.96105 -4.80432,1.45256 -7.31374,1.44621 -3.88321,-0.004 -7.67356,-1.18626 -10.86959,-3.3917 l 26.58042,-26.58042 c 2.20544,3.19575 3.38802,6.98609 3.39171,10.86959 0.007,2.50942 -0.48443,4.99554 -1.4448,7.31411 -0.96039,2.31857 -2.37111,4.42348 -4.15055,6.19326 z m -0.0669,-29.39391 h 3.7e-4 c -0.017,-0.29065 -0.15753,-0.55986 -0.38643,-0.73958 -4.06544,-3.19574 -9.16115,-4.79059 -14.32302,-4.48264 -5.16225,0.30767 -10.03274,2.4972 -13.68875,6.15407 -3.65649,3.65649 -5.84603,8.52698 -6.15369,13.68876 -0.30767,5.16177 1.28727,10.25804 4.4833,14.32301 0.18008,0.22891 0.44893,0.36942 0.73958,0.3868 h 0.0603 c 0.26958,0 0.52842,-0.10724 0.71924,-0.29805 l 28.25507,-28.25033 c 0.20524,-0.2056 0.31284,-0.48923 0.29583,-0.77952 z m -29.14966,26.75934 c -2.20544,-3.19575 -3.38802,-6.98609 -3.39171,-10.86959 3.7e-4,-5.06616 2.01318,-9.92482 5.59526,-13.507 3.58255,-3.58217 8.4412,-5.59497 13.50699,-5.59525 3.88321,0.004 7.67356,1.18626 10.86959,3.39171 z"
       id="path482"
       style="fill:#000000;stroke-width:0.0946664" />
    <path
       style="fill:#000000;stroke-width:0.75"
       d="m 334.67687,292.34864 -3.08522,4.30143 -6.7972,-12.00344 1.9027,-15.26862 7.6057,-8.78353 8.75348,-3.77533 8.09921,-1.72926 12.36913,4.37239 5.01797,3.22861 -6.47096,1.31468 -11.25323,-4.18339 -10.28287,2.3618 -7.32329,6.06436 -3.64716,12.00888 2.09857,8.71944 z"
       id="path1" />
    <path
       style="fill:#000000;stroke-width:0.75"
       d="m 330.59378,295.85496 9.92188,7.28672 13.30329,1.77343 11.23005,-4.31156 7.2936,-9.54823 2.54139,-11.27206 -1.71514,-9.34039 -7.0148,-9.33135 -5.86957,4.88147 5.49301,2.00661 4.75185,8.07386 -1.57248,11.24527 -4.90899,6.91197 -8.57425,5.40792 -11.32564,-0.29617 -5.60743,-3.04612 -4.33075,-4.51686 z"
       id="path2" />
    <path
       style="fill:#000000;stroke-width:0.75"
       d="m 333.75359,292.79798 29.51908,-29.91483 4.22213,4.61172 -30.33374,29.18344 z"
       id="path3" />
  </g>
</svg>
