<?xml version="1.0" encoding="UTF-8" standalone="no"?>
<svg
   width="62.585705pt"
   height="47.321499pt"
   version="1.1"
   viewBox="0 0 62.585705 47.321499"
   id="svg808"
   sodipodi:docname="car.svg"
   inkscape:version="1.2.2 (1:1.2.2+202212051550+b0a8486541)"
   xmlns:inkscape="http://www.inkscape.org/namespaces/inkscape"
   xmlns:sodipodi="http://sodipodi.sourceforge.net/DTD/sodipodi-0.dtd"
   xmlns="http://www.w3.org/2000/svg"
   xmlns:svg="http://www.w3.org/2000/svg">
  <sodipodi:namedview
     id="namedview810"
     pagecolor="#ffffff"
     bordercolor="#666666"
     borderopacity="1.0"
     inkscape:showpageshadow="2"
     inkscape:pageopacity="0.0"
     inkscape:pagecheckerboard="0"
     inkscape:deskcolor="#d1d1d1"
     inkscape:document-units="pt"
     showgrid="false"
     inkscape:zoom="0.357594"
     inkscape:cx="350.95667"
     inkscape:cy="36.354077"
     inkscape:window-width="1920"
     inkscape:window-height="1009"
     inkscape:window-x="0"
     inkscape:window-y="34"
     inkscape:window-maximized="1"
     inkscape:current-layer="g806" />
  <defs
     id="defs774">
    <symbol
       id="l"
       overflow="visible">
      <path
         d="m 36.078,-2.1562 c -1.8672,0.96875 -3.8086,1.6992 -5.8281,2.1875 -2.0117,0.48828 -4.1094,0.73438 -6.2969,0.73438 -6.543,0 -11.727,-1.8281 -15.547,-5.4844 -3.8125,-3.6562 -5.7188,-8.6133 -5.7188,-14.875 0,-6.2695 1.9062,-11.234 5.7188,-14.891 3.8203,-3.6562 9.0039,-5.4844 15.547,-5.4844 2.1875,0 4.2852,0.25 6.2969,0.75 2.0195,0.49219 3.9609,1.2148 5.8281,2.1719 v 8.125 c -1.875,-1.2812 -3.7266,-2.2188 -5.5469,-2.8125 -1.8242,-0.59375 -3.7461,-0.89062 -5.7656,-0.89062 -3.6172,0 -6.4609,1.1562 -8.5312,3.4688 -2.0625,2.3125 -3.0938,5.5 -3.0938,9.5625 0,4.0547 1.0312,7.2344 3.0938,9.5469 2.0703,2.3125 4.9141,3.4688 8.5312,3.4688 2.0195,0 3.9414,-0.29688 5.7656,-0.89062 1.8203,-0.59375 3.6719,-1.5312 5.5469,-2.8125 z"
         id="path738" />
    </symbol>
    <symbol
       id="h"
       overflow="visible">
      <path
         d="m 26.391,-21.422 c -0.82422,-0.38281 -1.6406,-0.67188 -2.4531,-0.85938 -0.8125,-0.1875 -1.6328,-0.28125 -2.4531,-0.28125 -2.4297,0 -4.293,0.77734 -5.5938,2.3281 -1.3047,1.5547 -1.9531,3.7773 -1.9531,6.6719 v 13.562 H 4.516 v -29.453 h 9.4219 v 4.8438 c 1.207,-1.9258 2.5938,-3.332 4.1562,-4.2188 1.5703,-0.88281 3.4531,-1.3281 5.6406,-1.3281 0.32031,0 0.66406,0.01563 1.0312,0.04687 0.36328,0.02344 0.89844,0.07422 1.6094,0.15625 z"
         id="path741" />
    </symbol>
    <symbol
       id="b"
       overflow="visible">
      <path
         d="m 33.922,-14.797 v 2.6719 H 11.906 c 0.22656,2.2109 1.0234,3.8672 2.3906,4.9688 1.375,1.1055 3.2852,1.6562 5.7344,1.6562 1.9766,0 4.0039,-0.28906 6.0781,-0.875 2.082,-0.58203 4.2188,-1.4727 6.4062,-2.6719 v 7.2656 c -2.2188,0.83594 -4.4453,1.4648 -6.6719,1.8906 -2.2305,0.4375 -4.4531,0.65625 -6.6719,0.65625 -5.3359,0 -9.4805,-1.3516 -12.438,-4.0625 -2.9492,-2.707 -4.4219,-6.5078 -4.4219,-11.406 0,-4.8008 1.4453,-8.5781 4.3438,-11.328 2.9062,-2.75 6.8984,-4.125 11.984,-4.125 4.625,0 8.3281,1.3984 11.109,4.1875 2.7812,2.7812 4.1719,6.5078 4.1719,11.172 z m -9.6875,-3.1406 c 0,-1.7812 -0.52344,-3.2188 -1.5625,-4.3125 -1.043,-1.0938 -2.4023,-1.6406 -4.0781,-1.6406 -1.8242,0 -3.3086,0.51172 -4.4531,1.5312 -1.1367,1.0234 -1.8438,2.4961 -2.125,4.4219 z"
         id="path744" />
    </symbol>
    <symbol
       id="a"
       overflow="visible">
      <path
         d="m 17.719,-13.25 c -1.9609,0 -3.4375,0.33594 -4.4375,1 -0.99219,0.66797 -1.4844,1.6484 -1.4844,2.9375 0,1.1992 0.39844,2.1367 1.2031,2.8125 0.80078,0.66797 1.9102,1 3.3281,1 1.7695,0 3.2578,-0.63281 4.4688,-1.9062 1.207,-1.2695 1.8125,-2.8594 1.8125,-4.7656 v -1.0781 z m 14.375,-3.5469 V 10e-5 h -9.4844 v -4.3594 c -1.2617,1.7812 -2.6836,3.0859 -4.2656,3.9062 -1.5742,0.8125 -3.4922,1.2188 -5.75,1.2188 -3.0547,0 -5.5312,-0.89062 -7.4375,-2.6719 -1.8984,-1.7812 -2.8438,-4.0859 -2.8438,-6.9219 0,-3.457 1.1875,-5.9883 3.5625,-7.5938 2.375,-1.6133 6.1016,-2.4219 11.188,-2.4219 h 5.5469 v -0.75 c 0,-1.4883 -0.58984,-2.5781 -1.7656,-3.2656 -1.168,-0.6875 -2.9961,-1.0312 -5.4844,-1.0312 -2.0234,0 -3.9023,0.20312 -5.6406,0.60938 -1.7305,0.39844 -3.3398,0.99609 -4.8281,1.7969 v -7.1719 c 2.0078,-0.48828 4.0312,-0.85938 6.0625,-1.1094 2.0391,-0.25781 4.0781,-0.39062 6.1094,-0.39062 5.3125,0 9.1445,1.0469 11.5,3.1406 2.3516,2.0938 3.5312,5.5 3.5312,10.219 z"
         id="path747" />
    </symbol>
    <symbol
       id="g"
       overflow="visible">
      <path
         d="m 14.797,-37.812 v 8.3594 h 9.7031 v 6.7344 H 14.797 v 12.484 c 0,1.375 0.26953,2.3047 0.8125,2.7812 0.55078,0.48047 1.6289,0.71875 3.2344,0.71875 h 4.8438 v 6.7344 h -8.0781 c -3.7109,0 -6.3398,-0.77344 -7.8906,-2.3281 -1.5547,-1.5508 -2.3281,-4.1875 -2.3281,-7.9062 v -12.484 H 0.7034 v -6.7344 h 4.6875 v -8.3594 z"
         id="path750" />
    </symbol>
    <symbol
       id="f"
       overflow="visible">
      <path
         d="m 24.562,-25.141 v -15.766 h 9.4531 V -10e-4 H 24.562 v -4.2656 c -1.3047,1.7422 -2.7344,3.0156 -4.2969,3.8281 -1.5547,0.80078 -3.3555,1.2031 -5.4062,1.2031 -3.6367,0 -6.6211,-1.4414 -8.9531,-4.3281 -2.3242,-2.8828 -3.4844,-6.5977 -3.4844,-11.141 0,-4.5312 1.1602,-8.2383 3.4844,-11.125 2.332,-2.8828 5.3164,-4.3281 8.9531,-4.3281 2.0312,0 3.8281,0.41406 5.3906,1.2344 1.5703,0.8125 3.0078,2.0742 4.3125,3.7812 z m -6.2188,19.062 c 2.0195,0 3.5625,-0.73438 4.625,-2.2031 1.0625,-1.46872 1.5938,-3.6094 1.5938,-6.4219 0,-2.8008 -0.53125,-4.9375 -1.5938,-6.4062 -1.06255,-1.4687 -2.6055,-2.2031 -4.625,-2.2031 -1.9922,0 -3.5156,0.73438 -4.5781,2.2031 -1.0625,1.46872 -1.5938,3.6055 -1.5938,6.4062 0,2.8125 0.53125,4.9531 1.5938,6.4219 1.06255,1.4688 2.5859,2.2031 4.5781,2.2031 z"
         id="path753" />
    </symbol>
    <symbol
       id="e"
       overflow="visible">
      <path
         d="m 20.188,-6.0781 c 2.0195,0 3.5547,-0.73438 4.6094,-2.2031 1.0625,-1.4688 1.5938,-3.6094 1.5938,-6.4219 0,-2.8008 -0.53125,-4.9375 -1.5938,-6.4062 -1.0547,-1.4688 -2.5898,-2.2031 -4.6094,-2.2031 -2.0117,0 -3.5586,0.74219 -4.6406,2.2188 -1.0742,1.4805 -1.6094,3.6094 -1.6094,6.3906 0,2.793 0.53516,4.9297 1.6094,6.4062 1.082,1.4805 2.6289,2.2188 4.6406,2.2188 z m -6.25,-19.062 c 1.2891,-1.707 2.7227,-2.9688 4.2969,-3.7812 1.582,-0.82031 3.3984,-1.2344 5.4531,-1.2344 3.625,0 6.6016,1.4453 8.9375,4.3281 2.332,2.8867 3.5,6.5938 3.5,11.125 0,4.543 -1.168,8.2578 -3.5,11.141 -2.3359,2.8867 -5.3125,4.3281 -8.9375,4.3281 -2.0547,0 -3.8711,-0.40625 -5.4531,-1.2188 -1.5742,-0.82031 -3.0078,-2.0938 -4.2969,-3.8125 V 8e-4 H 4.5161 v -40.906 h 9.4219 z"
         id="path756" />
    </symbol>
    <symbol
       id="d"
       overflow="visible">
      <path
         d="m 0.65625,-29.453 h 9.4062 l 7.9219,19.984 6.7344,-19.984 h 9.4062 l -12.375,32.234 c -1.25,3.2812 -2.7031,5.5703 -4.3594,6.875 -1.6562,1.3125 -3.8438,1.9688 -6.5625,1.9688 H 5.39055 V 5.4373 h 2.9375 c 1.6016,0 2.7656,-0.25781 3.4844,-0.76562 0.72656,-0.5 1.2969,-1.4062 1.7031,-2.7188 l 0.26562,-0.82812 z"
         id="path759" />
    </symbol>
    <symbol
       id="c"
       overflow="visible">
      <path
         d="M 28.766,-7.1562 H 12.938 L 10.438,0 H 0.266 L 14.797,-39.25 H 26.875 L 41.406,0 H 31.234 Z M 15.454,-14.4374 H 26.22 l -5.375,-15.609 z"
         id="path762" />
    </symbol>
    <symbol
       id="k"
       overflow="visible">
      <path
         d="m 4.5156,-40.906 h 9.4219 V 0 H 4.5156 Z"
         id="path765" />
    </symbol>
    <symbol
       id="j"
       overflow="visible">
      <path
         d="m 18.531,-23.422 c -2.0859,0 -3.6719,0.75 -4.7656,2.25 -1.0937,1.5 -1.6406,3.6562 -1.6406,6.4688 0,2.8242 0.54688,4.9844 1.6406,6.4844 1.09372,1.5 2.6797,2.25 4.7656,2.25 2.0508,0 3.6172,-0.75 4.7031,-2.25 1.0938,-1.5 1.6406,-3.6602 1.6406,-6.4844 0,-2.8125 -0.54688,-4.9688 -1.6406,-6.4688 -1.0859,-1.5 -2.6523,-2.25 -4.7031,-2.25 z m 0,-6.7344 c 5.0703,0 9.0312,1.3711 11.875,4.1094 2.8438,2.7305 4.2656,6.5117 4.2656,11.344 0,4.8438 -1.4219,8.6367 -4.2656,11.375 -2.8438,2.7305 -6.8047,4.0938 -11.875,4.0938 -5.0859,0 -9.0586,-1.3633 -11.922,-4.0938 -2.8672,-2.7383 -4.2969,-6.5312 -4.2969,-11.375 0,-4.832 1.4297,-8.6133 4.2969,-11.344 2.8633,-2.7383 6.8359,-4.1094 11.922,-4.1094 z"
         id="path768" />
    </symbol>
    <symbol
       id="i"
       overflow="visible">
      <path
         d="M 34.125,-17.938 V 0 h -9.4688 v -13.719 c 0,-2.5391 -0.05859,-4.2891 -0.17188,-5.25 -0.11719,-0.96875 -0.3125,-1.6797 -0.59375,-2.1406 -0.36719,-0.61328 -0.86719,-1.0938 -1.5,-1.4375 -0.625,-0.34375 -1.3398,-0.51562 -2.1406,-0.51562 -1.9688,0 -3.5156,0.76172 -4.6406,2.2812 -1.1172,1.5117 -1.6719,3.6094 -1.6719,6.2969 v 14.484 h -9.4219 v -29.453 h 9.4219 v 4.3125 c 1.4141,-1.707 2.9219,-2.9688 4.5156,-3.7812 1.5938,-0.82031 3.3516,-1.2344 5.2812,-1.2344 3.4062,0 5.9883,1.0469 7.75,3.1406 1.7578,2.0859 2.6406,5.1094 2.6406,9.0781 z"
         id="path771" />
    </symbol>
  </defs>
  <g
     id="g806"
     transform="translate(-314.53587,-257.69125)">
    <path
       d="m 329.7195,262.62416 c 0.76739,-1.60386 2.38709,-2.62448 4.16511,-2.62448 h 23.88914 c 1.77802,0 3.39774,1.02066 4.16468,2.62448 l 3.98892,8.33987 h -40.19636 l -1.23797,2.36144 42.61218,-0.0529 2.88363,4.80655 c 1.18395,1.97308 1.80942,4.23092 1.80942,6.53217 v 6.50333 l -0.39688,4.76046 c -0.0498,0.59825 -0.54968,1.05835 -1.14998,1.05835 h -48.84466 c -0.60035,0 -1.10025,-0.4601 -1.14998,-1.05835 l -0.39687,-4.76046 v -6.50333 c 0,-2.30136 0.62545,-4.55909 1.80942,-6.53217 l 2.82372,-4.75364 1.23797,-2.36144 z m 34.30111,-0.99597 4.46488,9.33584 h 0.55178 c -0.077,-0.47936 -0.12518,-1.0529 -0.12518,-1.73108 0,-1.29906 1.00937,-1.99022 1.8165,-2.29042 0.83855,-0.31147 1.85165,-0.38432 2.76059,-0.30185 0.89381,0.0812 1.87844,0.33073 2.59769,0.83689 0.36925,0.25998 0.74436,0.64221 0.92689,1.17891 0.19299,0.56811 0.11596,1.14998 -0.14403,1.66956 -0.66188,1.32382 -1.96975,2.03803 -3.09797,2.42311 -1.15545,0.39395 -2.35194,0.52331 -3.12821,0.52331 h -0.84692 l 2.17114,3.61884 c 1.39916,2.3319 2.13844,5.00032 2.13844,7.71987 v 18.09315 c 0,1.27484 -1.03364,2.30843 -2.30842,2.30843 h -8.65646 c -1.27484,0 -2.30843,-1.03364 -2.30843,-2.30843 v -3.46269 h -30.00879 v 3.46269 c 0,1.27484 -1.03322,2.30843 -2.308,2.30843 h -8.65646 c -1.27484,0 -2.30843,-1.03364 -2.30843,-2.30843 v -18.09315 c 0,-2.71955 0.73934,-5.38797 2.13845,-7.71987 l 2.17114,-3.61884 h -0.84693 c -0.77617,0 -1.97307,-0.12936 -3.1282,-0.52331 -1.12822,-0.38517 -2.43607,-1.0994 -3.09798,-2.42311 -0.25998,-0.51955 -0.337,-1.10143 -0.14402,-1.66956 0.18253,-0.5367 0.55764,-0.91893 0.92689,-1.17891 0.71924,-0.50616 1.70386,-0.75567 2.59769,-0.83689 0.90889,-0.0825 1.92206,-0.01 2.76059,0.30185 0.80715,0.30017 1.8165,0.99136 1.8165,2.29042 0,0.67821 -0.0481,1.2518 -0.12518,1.73108 h 0.55178 l 4.46487,-9.33584 c 1.15084,-2.40553 3.5807,-3.93694 6.24751,-3.93694 h 23.88914 c 2.66682,0 5.09667,1.53141 6.24751,3.93694 z m 7.51806,9.77 c 0,0 -0.001,-0.002 -0.003,-0.006 0.003,0.003 0.003,0.005 0.003,0.006 z m -0.31818,-2.12505 c 0.003,0.75859 0.0766,1.29488 0.15868,1.64738 0.49945,-0.0544 1.08642,-0.16496 1.64694,-0.35627 0.85781,-0.29264 1.45693,-0.705 1.73826,-1.19478 l -0.006,-0.004 c -0.25496,-0.17919 -0.78497,-0.36255 -1.47826,-0.42577 -0.6782,-0.0615 -1.32413,0.01 -1.7479,0.16704 -0.18002,0.067 -0.27254,0.13188 -0.3119,0.16662 z m -8.07911,33.43086 v -3.46269 h 7.10951 c 0.55429,0 1.0801,-0.13062 1.54695,-0.36422 v 3.82687 z m -41.73472,-3.46269 h 7.10951 v 3.46269 h -8.65647 v -3.82687 c 0.4668,0.23361 0.99262,0.36422 1.54696,0.36422 z m -0.97002,-29.96806 c -0.002,0.75859 -0.0762,1.29488 -0.15825,1.64737 -0.49945,-0.0544 -1.08685,-0.16495 -1.64737,-0.35626 -0.8574,-0.29264 -1.4565,-0.70501 -1.73783,-1.19478 l 0.006,-0.004 c 0.25495,-0.17919 0.78496,-0.36255 1.47825,-0.42577 0.67821,-0.0616 1.32414,0.01 1.74791,0.16704 0.18002,0.067 0.27254,0.13187 0.31147,0.16662 z m 4.3e-4,-0.0398 v -4.3e-4 z m -0.31691,2.16192 0.002,-0.003 c -0.003,0.004 -0.003,0.005 -0.003,0.006 0,0 4.3e-4,-8.5e-4 10e-4,-0.003 z m 4.89529,9.50582 c -1.02946,-0.22063 -2.07779,0.28342 -2.54828,1.225 l -0.22314,0.44628 c -0.45926,0.9181 -0.59908,1.96258 -0.39771,2.96948 l 0.17165,0.85823 c 0.20346,1.01899 1.06295,1.77588 2.09911,1.85004 l 6.1294,0.4379 c 1.20861,0.0863 2.27832,-0.77659 2.44947,-1.9764 0.4177,-1.77916 0.21205,-3.90524 -1.52885,-4.33134 z m 44.17508,1.225 c -0.47056,-0.94155 -1.51887,-1.44557 -2.54828,-1.225 l -6.15202,1.31835 c -1.18599,0.25412 -1.97308,1.38276 -1.80149,2.58343 l 0.27254,1.90867 c 0.17124,1.19981 1.2413,2.06267 2.4499,1.9764 l 6.1294,-0.43791 c 1.03616,-0.0741 1.8953,-0.83101 2.09912,-1.85004 l 0.17165,-0.85823 c 0.20137,-1.00685 0.0611,-2.05142 -0.39772,-2.96947 z m -44.65951,1.03197 6.15202,1.31835 -0.27255,1.90899 -6.1294,-0.43791 -0.17165,-0.85823 c -0.10089,-0.50321 -0.0306,-1.02569 0.19886,-1.4849 z m 36.44353,1.31835 6.15159,-1.31835 0.22314,0.44628 c 0.22941,0.45926 0.29933,0.98174 0.19886,1.4849 l -0.17165,0.85823 -6.12941,0.4379 z m -28.99596,5.53212 c -1.59379,0 -2.88534,1.29155 -2.88534,2.88534 0,1.59336 1.29155,2.88535 2.88534,2.88535 h 27.70026 c 1.59379,0 2.88534,-1.29199 2.88534,-2.88535 0,-1.59379 -1.29155,-2.88534 -2.88534,-2.88534 z m -0.57731,2.88534 c 0,-0.31859 0.25831,-0.57731 0.57731,-0.57731 h 27.70026 c 0.31859,0 0.57731,0.25873 0.57731,0.57731 0,0.3186 -0.25873,0.5769 -0.57731,0.5769 h -27.70026 c -0.31901,0 -0.57731,-0.25831 -0.57731,-0.5769 z"
       fill-rule="evenodd"
       id="path776"
       sodipodi:nodetypes="cssccccccsccssccscccccccsccccccsccsssssccsssssccsccccccscccssccccccccccccccccsccccccccccccccccccccccccccccccccccccccccccccsccccccccccscccccsssssssssssssss"
       style="fill:#ffffff;stroke-width:0.107174" />
  </g>
</svg>
