<?xml version="1.0" encoding="UTF-8" standalone="no"?>
<svg
   width="54.9384pt"
   height="61.160961pt"
   version="1.1"
   viewBox="0 0 54.9384 61.160961"
   id="svg4"
   sodipodi:docname="client.svg"
   inkscape:version="1.3 (1:1.3+202307231459+0e150ed6c4)"
   xmlns:inkscape="http://www.inkscape.org/namespaces/inkscape"
   xmlns:sodipodi="http://sodipodi.sourceforge.net/DTD/sodipodi-0.dtd"
   xmlns="http://www.w3.org/2000/svg"
   xmlns:svg="http://www.w3.org/2000/svg">
  <defs
     id="defs8" />
  <sodipodi:namedview
     id="namedview6"
     pagecolor="#ffffff"
     bordercolor="#666666"
     borderopacity="1.0"
     inkscape:showpageshadow="2"
     inkscape:pageopacity="0.0"
     inkscape:pagecheckerboard="0"
     inkscape:deskcolor="#d1d1d1"
     inkscape:document-units="pt"
     showgrid="false"
     inkscape:zoom="2.860752"
     inkscape:cx="32.508934"
     inkscape:cy="25.517766"
     inkscape:window-width="1920"
     inkscape:window-height="1016"
     inkscape:window-x="0"
     inkscape:window-y="0"
     inkscape:window-maximized="1"
     inkscape:current-layer="svg4" />
  <path
     d="m 27.46895,29.83023 c 7.82306,0 14.16511,-6.34205 14.16511,-14.16511 C 41.63406,7.84205 35.29201,1.5 27.46895,1.5 c -7.82306,0 -14.16511,6.34205 -14.16511,14.16512 0,7.82306 6.34205,14.16511 14.16511,14.16511 z m 0,-2.36102 c 6.51936,0 11.80409,-5.28473 11.80409,-11.80409 0,-6.51937 -5.28473,-11.80409 -11.80409,-11.80409 -6.51937,0 -11.80409,5.28472 -11.80409,11.80409 0,6.51936 5.28472,11.80409 11.80409,11.80409 z M 1.5,58.4807 c 0,0.65163 0.52813,1.18026 1.18026,1.18026 h 49.57788 c 0.65213,0 1.18026,-0.52863 1.18026,-1.18026 v -4.72204 c 0,-9.54881 -6.38404,-17.70639 -18.88639,-17.70639 H 20.3869 c -12.50261,0 -18.8864,8.15758 -18.8864,17.70639 z M 20.38639,38.41304 H 34.5515 c 11.05461,0 16.52639,6.99111 16.52639,15.34511 v 3.54128 H 3.86001 v -3.54128 c 0,-8.35425 5.47152,-15.34511 16.52638,-15.34511 z"
     fill-rule="evenodd"
     id="path2"
     style="fill:#000000;stroke:#000000;stroke-width:3;stroke-dasharray:none;stroke-opacity:1"
     sodipodi:nodetypes="sssssssssscssssssccsssccss" />
</svg>
