<?xml version="1.0" encoding="UTF-8" standalone="no"?>
<svg
   width="46.111542pt"
   height="46.109009pt"
   version="1.1"
   viewBox="0 0 46.111542 46.109009"
   id="svg8"
   sodipodi:docname="config.svg"
   inkscape:version="1.3 (1:1.3+202307231459+0e150ed6c4)"
   xmlns:inkscape="http://www.inkscape.org/namespaces/inkscape"
   xmlns:sodipodi="http://sodipodi.sourceforge.net/DTD/sodipodi-0.dtd"
   xmlns="http://www.w3.org/2000/svg"
   xmlns:svg="http://www.w3.org/2000/svg">
  <defs
     id="defs12" />
  <sodipodi:namedview
     id="namedview10"
     pagecolor="#ffffff"
     bordercolor="#666666"
     borderopacity="1.0"
     inkscape:showpageshadow="2"
     inkscape:pageopacity="0.0"
     inkscape:pagecheckerboard="0"
     inkscape:deskcolor="#d1d1d1"
     inkscape:document-units="pt"
     showgrid="false"
     inkscape:zoom="4.0457142"
     inkscape:cx="9.1454803"
     inkscape:cy="48.693503"
     inkscape:window-width="1920"
     inkscape:window-height="1016"
     inkscape:window-x="0"
     inkscape:window-y="0"
     inkscape:window-maximized="1"
     inkscape:current-layer="svg8" />
  <g
     id="g6"
     transform="matrix(0.09047867,0,0,0.09047867,-8.6130204,-2.279613)"
     style="fill:#000000;stroke:#000000;stroke-width:21.9941;stroke-dasharray:none;stroke-opacity:1">
    <path
       d="m 350,389.69 c 59.383,0 107.71,-48.324 107.71,-107.71 0,-59.386 -48.324,-107.71 -107.71,-107.71 -59.386,0 -107.71,48.324 -107.71,107.71 0,59.406 48.324,107.71 107.71,107.71 z m 0,-191.45 c 46.176,0 83.766,37.566 83.766,83.766 0,46.199 -37.566,83.766 -83.766,83.766 -46.176,0 -83.766,-37.566 -83.766,-83.766 0,-46.195 37.59,-83.766 83.766,-83.766 z"
       id="path2"
       style="fill:#000000;stroke:#000000;stroke-width:21.9941;stroke-dasharray:none;stroke-opacity:1" />
    <path
       d="m 118.16,343.49 h 51.215 c 2.3086,6.625 4.9922,13.09 8.0039,19.367 l -36.211,36.191 c -4.668,4.668 -4.668,12.25 0,16.918 l 72.871,72.871 c 4.668,4.668 12.25,4.668 16.918,0 l 36.191,-36.191 c 6.2773,3.0117 12.738,5.6914 19.367,8.0039 v 51.191 c 0,6.6016 5.3672,11.969 11.969,11.969 h 103.04 c 6.6016,0 11.969,-5.3672 11.969,-11.969 v -51.191 c 6.6016,-2.3086 13.09,-4.9922 19.367,-8.0039 l 36.191,36.191 c 4.668,4.668 12.25,4.668 16.918,0 l 72.871,-72.871 c 4.668,-4.668 4.668,-12.25 0,-16.918 l -36.191,-36.191 c 3.0117,-6.2773 5.6914,-12.738 8.0039,-19.367 h 51.215 c 6.6016,0 11.969,-5.3672 11.969,-11.969 l -0.004,-103.04 c 0,-6.6016 -5.3672,-11.969 -11.969,-11.969 h -51.191 c -2.3086,-6.6016 -4.9922,-13.09 -8.0039,-19.367 l 36.191,-36.191 c 4.668,-4.668 4.668,-12.25 0,-16.918 l -72.895,-72.867 c -4.668,-4.668 -12.25,-4.668 -16.918,0 l -36.191,36.191 c -6.2773,-3.0117 -12.738,-5.6914 -19.367,-8.0039 v -51.195 c 0,-6.6016 -5.3672,-11.969 -11.969,-11.969 h -103.04 c -6.6016,0 -11.969,5.3672 -11.969,11.969 v 51.191 c -6.6016,2.3086 -13.09,4.9922 -19.367,8.0039 l -36.191,-36.188 c -4.668,-4.668 -12.25,-4.668 -16.918,0 l -72.867,72.867 c -4.668,4.668 -4.668,12.25 0,16.918 l 36.191,36.191 c -3.0117,6.2773 -5.6914,12.738 -8.0039,19.367 H 118.16 c -6.6016,0 -11.969,5.3672 -11.969,11.969 v 103.04 c 0,6.6055 5.3672,11.969 11.969,11.969 z m 11.969,-103.04 h 47.926 c 5.2969,0 9.9414,-3.4766 11.457,-8.5391 3.2656,-10.922 7.6289,-21.488 12.996,-31.383 2.5195,-4.668 1.6797,-10.406 -2.0781,-14.141 l -33.875,-33.902 55.93,-55.93 33.879,33.879 c 3.7344,3.7344 9.4961,4.5977 14.141,2.0781 9.918,-5.3438 20.461,-9.7305 31.406,-13 5.0625,-1.5156 8.5391,-6.1836 8.5391,-11.457 V 60.129 h 79.125 v 47.926 c 0,5.2969 3.4766,9.9414 8.5391,11.457 10.922,3.2656 21.488,7.6523 31.383,12.996 4.6445,2.5195 10.406,1.6797 14.141,-2.0781 l 33.879,-33.879 55.93,55.93 -33.879,33.883 c -3.7578,3.7344 -4.5742,9.4961 -2.0781,14.141 5.3438,9.8945 9.7305,20.465 12.996,31.383 1.5156,5.0625 6.1836,8.5391 11.457,8.5391 h 47.926 v 79.125 h -47.926 c -5.2969,0 -9.9414,3.4766 -11.457,8.5391 -3.2891,10.965 -7.6523,21.512 -12.996,31.383 -2.5195,4.668 -1.6797,10.406 2.0781,14.141 l 33.879,33.879 -55.93,55.93 -33.879,-33.879 c -3.7344,-3.7344 -9.4961,-4.5977 -14.141,-2.0781 -9.8945,5.3438 -20.465,9.707 -31.383,12.996 -5.0625,1.5156 -8.5391,6.1836 -8.5391,11.457 v 47.926 H 310.45 V 451.92 c 0,-5.2969 -3.4766,-9.9414 -8.5391,-11.457 -10.922,-3.2656 -21.488,-7.6523 -31.383,-12.996 -4.6445,-2.5195 -10.406,-1.6797 -14.141,2.0781 l -33.879,33.879 -55.93,-55.93 33.879,-33.879 c 3.7344,-3.7344 4.5742,-9.4961 2.0781,-14.141 -5.3438,-9.8711 -9.707,-20.441 -12.996,-31.383 -1.5156,-5.0625 -6.1836,-8.5391 -11.457,-8.5391 h -47.953 z"
       id="path4"
       style="fill:#000000;stroke:#000000;stroke-width:21.9941;stroke-dasharray:none;stroke-opacity:1" />
  </g>
</svg>
