<?xml version="1.0" encoding="UTF-8" standalone="no"?>
<svg
   viewBox="0 0 28.000017 27.999001"
   x="0px"
   y="0px"
   version="1.1"
   id="svg12"
   sodipodi:docname="council.svg"
   width="28.000017"
   height="27.999001"
   inkscape:version="1.3 (1:1.3+202307231459+0e150ed6c4)"
   xmlns:inkscape="http://www.inkscape.org/namespaces/inkscape"
   xmlns:sodipodi="http://sodipodi.sourceforge.net/DTD/sodipodi-0.dtd"
   xmlns="http://www.w3.org/2000/svg"
   xmlns:svg="http://www.w3.org/2000/svg"
   xmlns:rdf="http://www.w3.org/1999/02/22-rdf-syntax-ns#"
   xmlns:cc="http://creativecommons.org/ns#"
   xmlns:dc="http://purl.org/dc/elements/1.1/">
  <defs
     id="defs12" />
  <sodipodi:namedview
     id="namedview12"
     pagecolor="#ffffff"
     bordercolor="#000000"
     borderopacity="0.25"
     inkscape:showpageshadow="2"
     inkscape:pageopacity="0.0"
     inkscape:pagecheckerboard="0"
     inkscape:deskcolor="#d1d1d1"
     inkscape:zoom="5.2125"
     inkscape:cx="-24.364508"
     inkscape:cy="14.580336"
     inkscape:window-width="1920"
     inkscape:window-height="1016"
     inkscape:window-x="0"
     inkscape:window-y="0"
     inkscape:window-maximized="1"
     inkscape:current-layer="svg12" />
  <title
     id="title1">Artboard 116</title>
  <g
     data-name="Layer 47"
     id="g11"
     transform="translate(-1.9999915,-1.9999989)">
    <path
       d="M 3.33,19.09 A 0.9985,0.9985 0 0 0 2.69,20.3508 13.9473,13.9473 0 0 0 4.6865,24.248 1.0001992,1.0001992 0 0 0 6.3018,23.068 11.9572,11.9572 0 0 1 4.5908,19.73 0.9968,0.9968 0 0 0 3.33,19.09 Z"
       id="path1" />
    <path
       d="m 7.5625,25.9414 a 1,1 0 0 0 0.2227,1.3965 13.92,13.92 0 0 0 3.9033,1.9853 1,1 0 1 0 0.6152,-1.9023 11.955,11.955 0 0 1 -3.3447,-1.7021 0.9991,0.9991 0 0 0 -1.3965,0.2226 z"
       id="path2" />
    <path
       d="M 7.7412,4.6943 A 14.0721,14.0721 0 0 0 4.6543,7.7959 1,1 0 1 0 6.2734,8.97 12.0834,12.0834 0 0 1 8.9234,6.3079 1.0001627,1.0001627 0 0 0 7.7412,4.6943 Z"
       id="path3" />
    <path
       d="M 3,17.0127 A 1.01,1.01 0 0 0 4,16 11.9886,11.9886 0 0 1 4.5762,12.3154 1,1 0 1 0 2.6738,11.7 13.9591,13.9591 0 0 0 2,16 v 0.0264 a 0.9879,0.9879 0 0 0 1,0.9863 z"
       id="path4" />
    <path
       d="M 11.9473,4.6436 A 0.9958,0.9958 0 0 0 12.2588,4.5936 11.9913,11.9913 0 0 1 15.9639,4 1.0000011,1.0000011 0 0 0 15.9609,2 H 15.958 a 13.9738,13.9738 0 0 0 -4.3223,0.6934 1,1 0 0 0 0.3116,1.95 z"
       id="path5" />
    <path
       d="m 28.3516,12.9355 a 0.9884,0.9884 0 0 0 0.3115,-0.05 1,1 0 0 0 0.6387,-1.2617 13.928,13.928 0 0 0 -2.0039,-3.8938 1.0004556,1.0004556 0 1 0 -1.6133,1.1836 11.8842,11.8842 0 0 1 1.7168,3.334 1,1 0 0 0 0.9502,0.6879 z"
       id="path6" />
    <path
       d="m 19.7178,27.4121 a 12.0165,12.0165 0 0 1 -3.7061,0.5869 1.0000001,1.0000001 0 0 0 10e-4,2 h 0.001 a 14.0266,14.0266 0 0 0 4.3232,-0.6845 1.0003013,1.0003013 0 0 0 -0.6191,-1.9024 z"
       id="path7" />
    <path
       d="m 23.0586,25.7051 a 1.0002891,1.0002891 0 0 0 1.1777,1.6172 14.055,14.055 0 0 0 3.0928,-3.0967 1,1 0 1 0 -1.6172,-1.1756 12.029,12.029 0 0 1 -2.6533,2.6551 z"
       id="path8" />
    <path
       d="M 29,14.9736 A 1.0223,1.0223 0 0 0 28,16 12.0013,12.0013 0 0 1 27.417,19.707 1,1 0 1 0 29.3193,20.3242 13.9789,13.9789 0 0 0 30,16 v -0.0518 a 0.9781,0.9781 0 0 0 -1,-0.9746 z"
       id="path9" />
    <path
       d="M 20.2852,2.668 A 1.0000211,1.0000211 0 1 0 19.6738,4.5723 11.9385,11.9385 0 0 1 23.0205,6.2666 1.0001643,1.0001643 0 0 0 24.1924,4.6455 13.9354,13.9354 0 0 0 20.2852,2.668 Z"
       id="path10" />
    <path
       d="m 16,22 a 6,6 0 1 0 -6,-6 6.0066,6.0066 0 0 0 6,6 z m 0,-10 a 4,4 0 1 1 -4,4 4.0039,4.0039 0 0 1 4,-4 z"
       id="path11" />
  </g>
  <metadata
     id="metadata12">
    <rdf:RDF>
      <cc:Work
         rdf:about="">
        <dc:title>Artboard 116</dc:title>
      </cc:Work>
    </rdf:RDF>
  </metadata>
</svg>
