<?xml version="1.0" encoding="UTF-8" standalone="no"?>
<svg
   width="20.31469pt"
   height="20.31432pt"
   version="1.1"
   viewBox="0 0 20.314689 20.314321"
   id="svg1"
   sodipodi:docname="dashboard.svg"
   inkscape:version="1.3 (1:1.3+202307231459+0e150ed6c4)"
   xmlns:inkscape="http://www.inkscape.org/namespaces/inkscape"
   xmlns:sodipodi="http://sodipodi.sourceforge.net/DTD/sodipodi-0.dtd"
   xmlns="http://www.w3.org/2000/svg"
   xmlns:svg="http://www.w3.org/2000/svg">
  <defs
     id="defs1" />
  <sodipodi:namedview
     id="namedview1"
     pagecolor="#ffffff"
     bordercolor="#000000"
     borderopacity="0.25"
     inkscape:showpageshadow="2"
     inkscape:pageopacity="0.0"
     inkscape:pagecheckerboard="0"
     inkscape:deskcolor="#d1d1d1"
     inkscape:document-units="pt"
     inkscape:zoom="11.460524"
     inkscape:cx="47.816315"
     inkscape:cy="-2.0941452"
     inkscape:window-width="1920"
     inkscape:window-height="1016"
     inkscape:window-x="0"
     inkscape:window-y="0"
     inkscape:window-maximized="1"
     inkscape:current-layer="g1" />
  <g
     transform="translate(-339.84008,-269.84064)"
     id="g1"
     style="fill:#000000">
    <path
       d="m 348.78,271 v 8.852 c 0,0.24457 -0.19832,0.44236 -0.44236,0.44236 h -7.3382 c -0.24457,0 -0.44236,-0.19831 -0.44236,-0.44236 V 271 c 0,-0.24457 0.19831,-0.44236 0.44236,-0.44236 h 7.3382 c 0.24457,0 0.44236,0.19832 0.44236,0.44236 z m 9.7724,17.553 v -7.9671 h -6.4526 v 7.9671 z m 0.88537,-8.4094 v 8.852 c 0,0.24457 -0.19831,0.44236 -0.44236,0.44236 h -7.3382 c -0.24403,0 -0.44236,-0.19832 -0.44236,-0.44236 v -8.852 c 0,-0.24457 0.19832,-0.44236 0.44236,-0.44236 h 7.3382 c 0.24457,0 0.44236,0.19831 0.44236,0.44236 z m -0.88537,-3.675 v -5.0263 h -6.4526 v 5.0263 z M 359.43777,271 v 5.9109 c 0,0.24402 -0.19831,0.44236 -0.44236,0.44236 h -7.3382 c -0.24403,0 -0.44236,-0.19832 -0.44236,-0.44236 V 271 c 0,-0.24457 0.19832,-0.44236 0.44236,-0.44236 h 7.3382 c 0.24457,0 0.44236,0.19832 0.44236,0.44236 z m -11.543,8.4094 v -7.9671 h -6.4526 v 7.9671 z m 0.88537,3.675 v 5.9109 c 0,0.24457 -0.19832,0.44236 -0.44236,0.44236 h -7.3382 c -0.24457,0 -0.44236,-0.19831 -0.44236,-0.44236 v -5.9109 c 0,-0.24403 0.19831,-0.44236 0.44236,-0.44236 h 7.3382 c 0.24457,0 0.44236,0.19832 0.44236,0.44236 z m -0.88537,5.4686 v -5.0263 h -6.4526 v 5.0263 z"
       fill="#fff"
       stroke-width=".03442"
       id="path1"
       style="fill:#000000;stroke:#000000;stroke-width:1.434;stroke-dasharray:none;stroke-opacity:1" />
  </g>
</svg>
