<?xml version="1.0" encoding="UTF-8" standalone="no"?>
<svg
   version="1.1"
   x="0px"
   y="0px"
   viewBox="0 0 44.835663 44"
   enable-background="new 0 0 48 48"
   xml:space="preserve"
   id="svg2"
   sodipodi:docname="logout.svg"
   width="44.835663"
   height="44"
   inkscape:version="1.3 (1:1.3+202307231459+0e150ed6c4)"
   xmlns:inkscape="http://www.inkscape.org/namespaces/inkscape"
   xmlns:sodipodi="http://sodipodi.sourceforge.net/DTD/sodipodi-0.dtd"
   xmlns="http://www.w3.org/2000/svg"
   xmlns:svg="http://www.w3.org/2000/svg"><defs
     id="defs2" /><sodipodi:namedview
     id="namedview2"
     pagecolor="#ffffff"
     bordercolor="#000000"
     borderopacity="0.25"
     inkscape:showpageshadow="2"
     inkscape:pageopacity="0.0"
     inkscape:pagecheckerboard="0"
     inkscape:deskcolor="#d1d1d1"
     inkscape:zoom="3.5875"
     inkscape:cx="110.66202"
     inkscape:cy="9.0592334"
     inkscape:window-width="1920"
     inkscape:window-height="1043"
     inkscape:window-x="0"
     inkscape:window-y="0"
     inkscape:window-maximized="1"
     inkscape:current-layer="svg2" /><path
     d="m 44.835664,22 c 0,0.583984 -0.247543,1.138672 -0.678134,1.518555 l -6.79842,6 C 36.993012,29.841797 36.543451,30 36.095788,30 35.548537,30 35.004132,29.762695 34.620013,29.301758 33.921962,28.462891 34.015858,27.200195 34.830568,26.481445 L 37.642279,24 H 21.526796 c -1.072685,0 -1.942405,-0.895508 -1.942405,-2 0,-1.104492 0.86972,-2 1.942405,-2 h 16.115483 l -2.811711,-2.481445 c -0.81471,-0.71875 -0.908606,-1.981446 -0.210555,-2.820313 0.699001,-0.83789 1.926283,-0.93457 2.739097,-0.216797 l 6.79842,6 C 44.588121,20.861328 44.835664,21.416016 44.835664,22 Z M 27.354012,36 c 0,2.206055 -1.742283,4 -3.88481,4 H 11.814767 C 9.6727157,40 7.9299568,38.206055 7.9299568,36 V 8 c 0,-2.2060547 1.7427589,-4 3.8848102,-4 h 11.654435 c 2.142527,0 3.88481,1.7939453 3.88481,4 v 9 h 3.884812 V 8 c 0,-4.4111328 -3.485517,-8 -7.769622,-8 H 11.814767 C 7.5306633,0 4.0451453,3.5888672 4.0451453,8 v 28 c 0,4.411133 3.485518,8 7.7696217,8 h 11.654435 c 4.284105,0 7.769622,-3.588867 7.769622,-8 v -9 h -3.884812 z"
     id="path1"
     style="stroke-width:0.9855" /></svg>
