<?xml version="1.0" encoding="UTF-8" standalone="no"?>
<svg
   width="171.22597pt"
   height="171.22597pt"
   version="1.1"
   viewBox="0 0 171.22597 171.22597"
   id="svg38"
   sodipodi:docname="minus.svg"
   inkscape:version="1.2.2 (1:1.2.2+202212051550+b0a8486541)"
   xmlns:inkscape="http://www.inkscape.org/namespaces/inkscape"
   xmlns:sodipodi="http://sodipodi.sourceforge.net/DTD/sodipodi-0.dtd"
   xmlns="http://www.w3.org/2000/svg"
   xmlns:svg="http://www.w3.org/2000/svg">
  <sodipodi:namedview
     id="namedview40"
     pagecolor="#ffffff"
     bordercolor="#666666"
     borderopacity="1.0"
     inkscape:showpageshadow="2"
     inkscape:pageopacity="0.0"
     inkscape:pagecheckerboard="0"
     inkscape:deskcolor="#d1d1d1"
     inkscape:document-units="pt"
     showgrid="false"
     inkscape:zoom="0.25285714"
     inkscape:cx="112.71186"
     inkscape:cy="205.64972"
     inkscape:window-width="1920"
     inkscape:window-height="1009"
     inkscape:window-x="0"
     inkscape:window-y="34"
     inkscape:window-maximized="1"
     inkscape:current-layer="g36" />
  <defs
     id="defs20">
    <symbol
       id="f"
       overflow="visible">
      <path
         d="m 39.078,-2.3281 c -2.0117,1.043 -4.1094,1.8281 -6.2969,2.3594 -2.1875,0.5313 -4.4648,0.79688 -6.8281,0.79688 -7.0859,0 -12.699,-1.9766 -16.844,-5.9375 -4.1367,-3.957 -6.2031,-9.3281 -6.2031,-16.109 0,-6.7891 2.0664,-12.164 6.2031,-16.125 4.1445,-3.9688 9.7578,-5.9531 16.844,-5.9531 2.3633,0 4.6406,0.26562 6.8281,0.79688 2.1875,0.53126 4.2852,1.3242 6.2969,2.375 v 8.7969 c -2.0312,-1.3828 -4.0391,-2.3984 -6.0156,-3.0469 -1.9688,-0.64453 -4.0469,-0.96875 -6.2344,-0.96875 -3.9062,0 -6.9844,1.2578 -9.2344,3.7656 -2.2422,2.5 -3.3594,5.9531 -3.3594,10.359 0,4.3867 1.1172,7.8359 3.3594,10.344 2.25,2.5 5.3281,3.75 9.2344,3.75 2.1875,0 4.2656,-0.32031 6.2344,-0.96875 1.9766,-0.64453 3.9844,-1.6602 6.0156,-3.0469 z"
         id="path2" />
    </symbol>
    <symbol
       id="e"
       overflow="visible">
      <path
         d="m 16.031,-40.953 v 9.0625 h 10.516 v 7.2812 H 16.031 v 13.531 c 0,1.4805 0.28906,2.4805 0.875,3 0.59375,0.52344 1.7656,0.78125 3.5156,0.78125 h 5.2344 v 7.2969 h -8.7344 c -4.0312,0 -6.8867,-0.83594 -8.5625,-2.5156 -1.6797,-1.6875 -2.5156,-4.5391 -2.5156,-8.5625 v -13.531 H 0.7654 v -7.2812 h 5.0781 v -9.0625 z"
         id="path5" />
    </symbol>
    <symbol
       id="d"
       overflow="visible">
      <path
         d="M 26.594,-27.234 V -44.312 H 36.86 V 0 H 26.594 v -4.6094 c -1.3984,1.875 -2.9453,3.25 -4.6406,4.125 -1.6875,0.875 -3.6406,1.3125 -5.8594,1.3125 -3.9297,0 -7.1562,-1.5625 -9.6875,-4.6875 -2.5234,-3.125 -3.7812,-7.1445 -3.7812,-12.062 0,-4.9141 1.2578,-8.9375 3.7812,-12.062 2.5312,-3.125 5.7578,-4.6875 9.6875,-4.6875 2.1953,0 4.1445,0.44531 5.8438,1.3281 1.707,0.88672 3.2578,2.2578 4.6562,4.1094 z m -6.7188,20.656 c 2.1875,0 3.8516,-0.79688 5,-2.3906 1.1445,-1.5938 1.7188,-3.9102 1.7188,-6.9531 0,-3.0391 -0.57422,-5.3594 -1.7188,-6.9531 -1.1484,-1.5938 -2.8125,-2.3906 -5,-2.3906 -2.168,0 -3.8242,0.79688 -4.9688,2.3906 -1.1484,1.5938 -1.7188,3.9141 -1.7188,6.9531 0,3.043 0.57031,5.3594 1.7188,6.9531 1.1445,1.5938 2.8008,2.3906 4.9688,2.3906 z"
         id="path8" />
    </symbol>
    <symbol
       id="c"
       overflow="visible">
      <path
         d="m 21.875,-6.5781 c 2.1758,0 3.8359,-0.79688 4.9844,-2.3906 1.1562,-1.5938 1.7344,-3.9102 1.7344,-6.9531 0,-3.0391 -0.57812,-5.3594 -1.7344,-6.9531 -1.1484,-1.5938 -2.8086,-2.3906 -4.9844,-2.3906 -2.1875,0 -3.8672,0.80469 -5.0312,2.4062 -1.168,1.6055 -1.75,3.918 -1.75,6.9375 0,3.0234 0.58203,5.3359 1.75,6.9375 1.1641,1.6055 2.8438,2.4062 5.0312,2.4062 z m -6.7812,-20.656 c 1.4062,-1.8516 2.9609,-3.2227 4.6719,-4.1094 1.707,-0.88281 3.6719,-1.3281 5.8906,-1.3281 3.9375,0 7.1641,1.5625 9.6875,4.6875 2.5195,3.125 3.7812,7.1484 3.7812,12.062 0,4.918 -1.2617,8.9375 -3.7812,12.062 -2.5234,3.125 -5.75,4.6875 -9.6875,4.6875 -2.2188,0 -4.1836,-0.44531 -5.8906,-1.3281 -1.7109,-0.88281 -3.2656,-2.2539 -4.6719,-4.1094 V -7e-4 H 4.9058 v -44.312 h 10.188 z"
         id="path11" />
    </symbol>
    <symbol
       id="b"
       overflow="visible">
      <path
         d="m 0.28125,-42.516 h 39.188 v 8.2812 h -14.094 V -8e-4 h -10.969 v -34.234 h -14.125 z"
         id="path14" />
    </symbol>
    <symbol
       id="a"
       overflow="visible">
      <path
         d="m 5.3594,-42.516 h 13.953 l 9.6875,22.75 9.7344,-22.75 h 13.922 V 0 H 42.2973 V -31.094 L 32.5004,-8.172 H 25.5473 L 15.7504,-31.094 V 0 H 5.3594 Z"
         id="path17" />
    </symbol>
  </defs>
  <g
     id="g36"
     transform="translate(-264.38702,-194.38702)">
    <path
       d="m 350,365.61298 c -47.28283,0 -85.61298,-38.33015 -85.61298,-85.61298 0,-47.28283 38.33015,-85.61298 85.61298,-85.61298 47.28283,0 85.61298,38.33015 85.61298,85.61298 0,47.28283 -38.33015,85.61298 -85.61298,85.61298 z m 0,-14.26923 c 39.40338,0 71.34313,-31.93976 71.34313,-71.34314 0,-39.40337 -31.93975,-71.34313 -71.34313,-71.34313 -39.40338,0 -71.34313,31.93976 -71.34313,71.34313 0,39.40338 31.93975,71.34314 71.34313,71.34314 z m 32.13545,-78.47653 c 3.92352,0 7.10282,3.16615 7.10282,7.134 0,3.94034 -3.17349,7.13401 -7.10282,7.13401 h -64.2709 c -3.92352,0 -7.10282,-3.16615 -7.10282,-7.13401 0,-3.94033 3.17349,-7.134 7.10282,-7.134 z"
       id="path22"
       style="stroke-width:0.305761" />
  </g>
</svg>
