<?xml version="1.0" encoding="UTF-8" standalone="no"?>
<svg
   width="52.760723pt"
   height="60.066326pt"
   version="1.1"
   viewBox="0 0 52.760723 60.066326"
   id="svg1056"
   sodipodi:docname="price.svg"
   inkscape:version="1.2.2 (1:1.2.2+202212051550+b0a8486541)"
   xmlns:inkscape="http://www.inkscape.org/namespaces/inkscape"
   xmlns:sodipodi="http://sodipodi.sourceforge.net/DTD/sodipodi-0.dtd"
   xmlns="http://www.w3.org/2000/svg"
   xmlns:svg="http://www.w3.org/2000/svg">
  <defs
     id="defs1060" />
  <sodipodi:namedview
     id="namedview1058"
     pagecolor="#ffffff"
     bordercolor="#666666"
     borderopacity="1.0"
     inkscape:showpageshadow="2"
     inkscape:pageopacity="0.0"
     inkscape:pagecheckerboard="0"
     inkscape:deskcolor="#d1d1d1"
     inkscape:document-units="pt"
     showgrid="false"
     inkscape:zoom="0.25285714"
     inkscape:cx="-278.81356"
     inkscape:cy="134.46328"
     inkscape:window-width="1920"
     inkscape:window-height="1009"
     inkscape:window-x="0"
     inkscape:window-y="34"
     inkscape:window-maximized="1"
     inkscape:current-layer="svg1056" />
  <path
     d="m 50.072855,14.416506 -15.46745,-12.2217201 -2.86777,2.27168 c -0.0351,0.032 -0.0716,0.0608 -0.11129,0.0879 l -12.45009,9.8622601 c -0.25501,0.20455 -0.4492,0.44154 -0.57581,0.70242 -0.1257,0.25997 -0.19239,0.56139 -0.19239,0.88894 l -0.003,40.10005 c 0.004,0.55823 0.23024,1.06512 0.59428,1.42829 0.36676,0.36765 0.87363,0.59428 1.43141,0.59428 h 28.37084 c 0.55779,0 1.06422,-0.22663 1.42737,-0.59068 0.3663,-0.36991 0.59338,-0.87589 0.59338,-1.43187 v -40.11508 c 0,-0.32801 -0.064,-0.62493 -0.18698,-0.88174 -0.12435,-0.25997 -0.3145,-0.49606 -0.5623,-0.6943 z m -24.64527,-7.4148101 -8.7687,3.4255701 c -0.31494,0.12751 -0.59068,0.29691 -0.80965,0.50868 -0.2023,0.19689 -0.36224,0.43704 -0.46452,0.72089 l -13.33131,36.77472 c -0.19013,0.52355 -0.14959,1.07728 0.0694,1.54628 0.21896,0.46858 0.61816,0.85606 1.14036,1.04574 l 13.20674,4.8061 0.003,-39.82322 c -0.004,-0.61817 0.12976,-1.20164 0.38522,-1.72968 0.25727,-0.5294 0.63394,-0.99573 1.12053,-1.37915 l 7.44722,-5.8973601 z m -8.44932,51.0380001 c -0.0793,-0.008 -0.15859,-0.0252 -0.23654,-0.0536 l -14.13756,-5.14486 c -1.02231,-0.37171 -1.80130002,-1.12819 -2.22980002,-2.04549 -0.42894,-0.91914 -0.50869,-2.00096 -0.13787,-3.02325 L 13.567805,11.001246 c 0.20996,-0.57447 0.5285,-1.0565601 0.93446,-1.4512401 0.40595,-0.39379 0.8966,-0.69882 1.4449,-0.91915 l 14.65659,-5.72884 3.39177,-2.68621 c 0.34243,-0.27845 0.84615,-0.29377 1.20706,-0.009 l 16.06724,12.6946101 c 0.48525,0.38929 0.85697,0.85201 1.10703,1.37466 0.25321,0.52805 0.38387,1.10611 0.38387,1.7148 v 40.11504 c 0,1.0908 -0.4447,2.08205 -1.16104,2.79844 -0.71954,0.71639 -1.7103,1.16197 -2.79752,1.16197 h -28.37085 c -1.08493,0 -2.07432,-0.44381 -2.79164,-1.16024 -0.22978,-0.2005 -0.50868,-0.59879 -0.66052,-0.86732 z m 23.99129,-25.207 c 0,0.53481 -0.43389,0.9687 -0.9687,0.9687 -0.53481,0 -0.96869,-0.43389 -0.96869,-0.9687 0,-0.82947 -0.45686,-1.5968 -1.1953,-2.1636 -0.81326,-0.62311 -1.95137,-1.00835 -3.22244,-1.00835 -1.27108,0 -2.4087,0.38614 -3.21876,1.00835 -0.73982,0.56906 -1.19852,1.3359 -1.19852,2.1636 0,0.85065 0.48885,1.6599 1.27869,2.41862 0.89886,0.86372 2.16498,1.64767 3.5702,2.35196 1.56797,0.78667 2.99753,1.67696 4.04738,2.68483 1.15884,1.11287 1.87662,2.37583 1.87662,3.81127 0,1.45712 -0.74928,2.76107 -1.95771,3.69096 -0.91688,0.70783 -2.10766,1.19715 -3.42914,1.35932 v 2.42669 c 0,0.53481 -0.43388,0.9687 -0.96869,0.9687 -0.53481,0 -0.9687,-0.43389 -0.9687,-0.9687 v -2.42669 c -1.32056,-0.16266 -2.51135,-0.6515 -3.43006,-1.35793 -1.16877,-0.97411 -1.95587,-2.11493 -1.95587,-3.69235 0,-0.53481 0.43389,-0.9687 0.9687,-0.9687 0.53481,0 0.96869,0.43389 0.96869,0.9687 0,0.81191 0.43795,1.56474 1.14983,2.12749 1.00339,0.72541 2.02565,1.0444 3.26743,1.0444 1.27108,0 2.4087,-0.38614 3.21875,-1.00835 0.74252,-0.56681 1.19934,-1.33406 1.19934,-2.1636 0,-0.85065 -0.48886,-1.6607 -1.27869,-2.41862 -0.89887,-0.86282 -2.16499,-1.64721 -3.57113,-2.35195 -1.56843,-0.78578 -2.99752,-1.67697 -4.04645,-2.68484 -1.15885,-1.11287 -1.87663,-2.37583 -1.87663,-3.81127 0,-1.4585 0.74748,-2.76418 1.95541,-3.69235 0.91868,-0.70647 2.11042,-1.19529 3.43098,-1.35793 v -2.42761 c 0,-0.53481 0.43389,-0.9687 0.9687,-0.9687 0.53481,0 0.96869,0.43389 0.96869,0.9687 v 2.42761 c 1.32056,0.16266 2.51228,0.65151 3.43098,1.35793 1.20707,0.9313 1.95587,2.23615 1.95587,3.69235 z m -6.35516,-20.43065 c -0.76054,0 -1.45032,0.30908 -1.94779,0.8065 -0.49831,0.49831 -0.80695,1.18768 -0.80695,1.94871 0,0.7628 0.30729,1.45263 0.80334,1.94779 0.49877,0.49967 1.18861,0.80695 1.95137,0.80695 0.76055,0 1.45032,-0.30908 1.94871,-0.80695 0.49742,-0.49741 0.8065,-1.18722 0.8065,-1.94779 0,-0.76234 -0.30818,-1.45262 -0.8047,-1.94998 -0.49741,-0.49652 -1.18768,-0.8047 -1.94998,-0.8047 z m -3.31794,-0.56365 c 0.8484,-0.8484 2.02253,-1.37419 3.31794,-1.37419 1.29219,0 2.46592,0.5258 3.31472,1.37419 0.852,0.8529 1.37777,2.02611 1.37777,3.31876 0,1.2953 -0.5258,2.46949 -1.37419,3.31795 -0.8493,0.8493 -2.023,1.37465 -3.31876,1.37465 -1.28999,0 -2.46187,-0.5249 -3.3116,-1.37235 -0.884,-0.88399 -1.381,-2.06809 -1.381,-3.32014 0,-1.2953 0.5258,-2.46948 1.37465,-3.31875 z"
     id="path1054"
     style="fill:#ffffff;stroke-width:0.115343" />
</svg>
