<svg width="26.871pt" height="32.234pt" version="1.1" viewBox="0 0 26.871 32.234" xmlns="http://www.w3.org/2000/svg">
 <g transform="translate(-336.5 -263.9)">
  <path d="m349.41 289.68c1.8409 7.5e-4 3.6601-0.39495 5.3343-1.1605l4.7273 6.6987c0.44216 0.62764 1.1859 0.97163 1.9504 0.9023 0.76478-0.0693 1.4344-0.54145 1.7566-1.2384 0.32225-0.69658 0.24843-1.5127-0.19409-2.1403l-4.6786-6.6342c2.9104-2.7814 4.3542-6.7631 3.9033-10.764-0.45078-4.0008-2.7443-7.5608-6.2011-9.6252-3.4563-2.0643-7.6785-2.3956-11.414-0.89518-3.7358 1.5004-6.5567 4.6595-7.6253 8.5411-1.0691 3.8812-0.26342 8.0394 2.1778 11.241 2.4412 3.2011 6.2377 5.0784 10.264 5.0746zm0-21.487c2.2798 0 4.4658 0.90529 6.0777 2.5173 1.6116 1.612 2.5173 3.7981 2.5173 6.0774 0 2.2798-0.90567 4.4658-2.5173 6.0777-1.612 1.6116-3.7981 2.5173-6.0777 2.5173-2.2794 0-4.4654-0.90567-6.0774-2.5173-1.612-1.612-2.5173-3.7981-2.5173-6.0777 0-2.2794 0.9053-4.4654 2.5173-6.0774 1.612-1.612 3.7981-2.5173 6.0774-2.5173z" stroke-width=".095925"/>
 </g>
</svg>
