<svg width="26.813pt" height="26.813pt" version="1.1" viewBox="0 0 26.813 26.813" xmlns="http://www.w3.org/2000/svg">
 <path d="m13.407 0c-3.9747 0-7.2188 3.2441-7.2188 7.2188 0 2.4023 1.1901 4.5316 3.0052 5.8453-5.3319 1.7718-9.193 6.7987-9.193 12.718 0 0.27347 0.10864 0.53589 0.30202 0.72925 0.19336 0.19336 0.45578 0.30201 0.72925 0.30201h24.75c0.27347 0 0.53589-0.10864 0.72925-0.30201 0.19336-0.19336 0.30202-0.45578 0.30202-0.72925 0-5.9189-3.8608-10.946-9.193-12.718 1.8151-1.3137 3.0052-3.443 3.0052-5.8453 0-3.9747-3.2441-7.2188-7.2188-7.2188zm0 2.0625c2.8599 0 5.1563 2.2964 5.1563 5.1563 0 2.8599-2.2964 5.1563-5.1563 5.1563-2.8599 0-5.1563-2.2964-5.1563-5.1563 0-2.8599 2.2964-5.1563 5.1563-5.1563zm0 12.375c5.9112 0 10.593 4.5468 11.136 10.313h-22.273c0.54417-5.7659 5.2252-10.313 11.136-10.313z" stroke-width=".058929"/>
</svg>
