<?xml version="1.0" encoding="UTF-8" standalone="no"?>
<svg
   viewBox="0 0 60 60"
   x="0px"
   y="0px"
   version="1.1"
   id="svg2"
   sodipodi:docname="vehicle.svg"
   width="60"
   height="60"
   inkscape:version="1.3.2 (1:1.3.2+202311252150+091e20ef0f)"
   xmlns:inkscape="http://www.inkscape.org/namespaces/inkscape"
   xmlns:sodipodi="http://sodipodi.sourceforge.net/DTD/sodipodi-0.dtd"
   xmlns="http://www.w3.org/2000/svg"
   xmlns:svg="http://www.w3.org/2000/svg"
   xmlns:rdf="http://www.w3.org/1999/02/22-rdf-syntax-ns#"
   xmlns:cc="http://creativecommons.org/ns#"
   xmlns:dc="http://purl.org/dc/elements/1.1/">
  <defs
     id="defs2" />
  <sodipodi:namedview
     id="namedview2"
     pagecolor="#ffffff"
     bordercolor="#000000"
     borderopacity="0.25"
     inkscape:showpageshadow="2"
     inkscape:pageopacity="0.0"
     inkscape:pagecheckerboard="0"
     inkscape:deskcolor="#d1d1d1"
     inkscape:zoom="10.425"
     inkscape:cx="29.064748"
     inkscape:cy="30.983213"
     inkscape:window-width="1920"
     inkscape:window-height="1016"
     inkscape:window-x="0"
     inkscape:window-y="0"
     inkscape:window-maximized="1"
     inkscape:current-layer="svg2" />
  <title
     id="title1">jeep</title>
  <path
     d="m 48.62069,43.920181 a 3.1034483,3.266946 0 1 0 3.103449,3.266945 3.1068621,3.2705396 0 0 0 -3.103449,-3.266945 z m 0,4.355928 a 1.0344828,1.088982 0 1 1 1.034483,-1.088983 1.0355172,1.090071 0 0 1 -1.034483,1.088983 z M 16.551724,43.920181 a 3.1034483,3.266946 0 1 0 3.103449,3.266945 3.1068621,3.2705396 0 0 0 -3.103449,-3.266945 z m 0,4.355928 a 1.0344828,1.088982 0 1 1 1.034483,-1.088983 1.0355172,1.090071 0 0 1 -1.034483,1.088983 z m 41.405587,-16.789925 -9.471104,-3.62631 -1.621965,-8.538488 a 3.1111035,3.2750043 0 0 0 -3.043553,-2.625755 h -5.544827 v -2.177964 h 4.137932 a 1.0344828,1.088982 0 0 0 1.034482,-1.088981 V 10.488434 A 3.1075862,3.2713019 0 0 0 41.605656,7.5022279 L 33.523758,3.7213913 A 1.0373793,1.0920312 0 0 0 33.103449,3.6278478 H 8.2758621 A 3.1068621,3.2705396 0 0 0 5.1724139,6.8947939 v 4.3559281 a 3.1068621,3.2705396 0 0 0 3.1034482,3.266945 h 2.0689659 v 2.177964 H 8.2758621 a 3.1068621,3.2705396 0 0 0 -3.1034482,3.266947 v 6.679815 A 4.3021035,4.5287494 0 0 0 2.6226207,26.782545 4.3012758,4.5278781 0 0 0 0,30.840745 v 6.557306 a 4.3009656,4.5275515 0 0 0 2.6230345,4.058199 4.4586207,4.6935123 0 0 0 1.5204828,0.285968 4.1081379,4.3245652 0 0 0 1.0288966,-0.153765 v 3.42071 a 3.1068621,3.2705396 0 0 0 3.1034482,3.266946 h 1.1172414 a 7.2317587,7.6127463 0 0 0 14.3172415,0 h 17.751724 a 7.2317587,7.6127463 0 0 0 14.317242,0 h 1.117241 A 3.1068621,3.2705396 0 0 0 60,45.009163 V 34.554936 a 3.1105862,3.2744599 0 0 0 -2.042689,-3.068752 z m -0.02628,3.068752 v 1.742371 H 56.896552 A 1.0355172,1.090071 0 0 1 55.86207,35.208326 v -2.207368 l 1.388069,0.531424 a 1.0377931,1.0924668 0 0 1 0.680895,1.022554 z m -13.095203,-14.806125 1.627448,8.567783 -1.374413,1.446821 H 35.172414 V 18.873596 h 8.648275 a 1.0375862,1.0922489 0 0 1 1.015139,0.875215 z M 17.586207,39.651372 v -7.709993 h 15.517242 v 14.156766 h -9.393104 a 7.246138,7.6278831 0 0 0 -6.124138,-6.446773 z m 0,-9.887957 V 18.873596 H 33.103449 V 29.763415 Z M 12.413793,14.517667 h 7.24138 a 1.0344828,1.088982 0 0 0 0,-2.177963 H 8.2758621 A 1.0355172,1.090071 0 0 1 7.2413794,11.250722 V 6.8947939 A 1.0355172,1.090071 0 0 1 8.2758621,5.8058119 H 32.883724 l 7.881415,3.686966 a 1.0356207,1.0901799 0 0 1 0.614171,0.9956561 v 1.85127 H 25.862069 a 1.0344828,1.088982 0 0 0 0,2.177963 h 10.344828 v 2.177964 H 12.413793 Z M 8.2758621,18.873596 H 15.517242 V 29.763415 H 7.2413794 V 19.962578 A 1.0355172,1.090071 0 0 1 8.2758621,18.873596 Z M 3.3287587,39.407875 A 2.2735862,2.3933645 0 0 1 2.0689655,37.397941 v -6.557196 a 2.2741035,2.3939091 0 0 1 1.2592759,-2.009934 2.121207,2.2329575 0 0 1 1.8441725,0.156051 v 10.265724 a 2.1074483,2.2184741 0 0 1 -1.8436552,0.155289 z m 3.9126207,5.601288 V 31.941379 h 8.2758626 v 7.709993 A 7.246138,7.6278831 0 0 0 9.3931035,46.098145 H 8.2758621 A 1.0355172,1.090071 0 0 1 7.2413794,45.009163 Z m 9.3103446,7.622873 a 5.1724139,5.4449099 0 1 1 5.172415,-5.44491 5.1785173,5.4513349 0 0 1 -5.172415,5.44491 z m 32.068966,0 a 5.1724139,5.4449099 0 1 1 5.172414,-5.44491 5.1785173,5.4513349 0 0 1 -5.172414,5.44491 z m 8.275862,-6.533891 h -1.117241 a 7.2317587,7.6127463 0 0 0 -14.317242,0 H 35.172414 V 31.941379 h 10.344828 a 1.0344828,1.088982 0 0 0 0.731379,-0.319072 l 1.603448,-1.687922 5.941035,2.274557 v 2.999384 a 3.1068621,3.2705396 0 0 0 3.103448,3.266945 h 1.034482 v 6.533892 a 1.0355172,1.090071 0 0 1 -1.034482,1.088982 z M 41.37931,35.208326 a 1.0344828,1.088982 0 0 1 -1.034482,1.088981 h -2.068966 a 1.0344832,1.0889823 0 0 1 0,-2.177964 h 2.068966 a 1.0344828,1.088982 0 0 1 1.034482,1.088983 z m -17.586207,0 a 1.0344828,1.088982 0 0 1 -1.034482,1.088981 h -2.068966 a 1.0344832,1.0889823 0 0 1 0,-2.177964 h 2.068966 a 1.0344828,1.088982 0 0 1 1.034482,1.088983 z m -2.068964,-21.77964 a 1.0344828,1.088982 0 1 1 1.034482,1.088981 1.0344828,1.088982 0 0 1 -1.034482,-1.088981 z"
     id="path1"
     style="stroke-width:1.06138" />
  <metadata
     id="metadata2">
    <rdf:RDF>
      <cc:Work
         rdf:about="">
        <dc:title>jeep</dc:title>
      </cc:Work>
    </rdf:RDF>
  </metadata>
</svg>
