<?xml version="1.0" encoding="UTF-8" standalone="no"?>
<svg
   data-name="Layer 1"
   width="442.26196"
   height="411.43259"
   viewBox="0 0 442.26197 411.4326"
   version="1.1"
   id="svg46"
   sodipodi:docname="confirmation.svg"
   inkscape:version="1.3 (1:1.3+202307231459+0e150ed6c4)"
   xmlns:inkscape="http://www.inkscape.org/namespaces/inkscape"
   xmlns:sodipodi="http://sodipodi.sourceforge.net/DTD/sodipodi-0.dtd"
   xmlns="http://www.w3.org/2000/svg"
   xmlns:svg="http://www.w3.org/2000/svg">
  <defs
     id="defs50" />
  <sodipodi:namedview
     id="namedview48"
     pagecolor="#ffffff"
     bordercolor="#666666"
     borderopacity="1.0"
     inkscape:showpageshadow="2"
     inkscape:pageopacity="0.0"
     inkscape:pagecheckerboard="0"
     inkscape:deskcolor="#d1d1d1"
     showgrid="false"
     inkscape:zoom="1.1425405"
     inkscape:cx="214.43441"
     inkscape:cy="322.08924"
     inkscape:window-width="1920"
     inkscape:window-height="1016"
     inkscape:window-x="0"
     inkscape:window-y="0"
     inkscape:window-maximized="1"
     inkscape:current-layer="svg46" />
  <path
     id="ac20a106-7eb8-4a45-8835-674ef3bf3222-97"
     data-name="Path 141"
     d="M 437.23837,411.43258 H 5.02359 A 5.03014,5.03014 0 0 1 0,406.40899 V 5.02358 A 5.03017,5.03017 0 0 1 5.02359,0 h 432.21478 a 5.03017,5.03017 0 0 1 5.02359,5.02358 v 401.38446 a 5.02922,5.02922 0 0 1 -5.02359,5.02359 z"
     fill="#ffffff" />
  <path
     id="a8878079-c7cd-406f-a434-8b15b914b9b4-98"
     data-name="Path 141"
     d="M 437.23837,411.43258 H 5.02359 A 5.03014,5.03014 0 0 1 0,406.40899 V 5.02358 A 5.03017,5.03017 0 0 1 5.02359,0 h 432.21478 a 5.03017,5.03017 0 0 1 5.02359,5.02358 v 401.38446 a 5.02922,5.02922 0 0 1 -5.02359,5.02359 z M 5.02359,2.00548 A 3.01808,3.01808 0 0 0 2.01207,5.01699 v 401.39105 a 3.01808,3.01808 0 0 0 3.01152,3.01152 h 432.21478 a 3.01717,3.01717 0 0 0 3.01153,-3.01152 V 5.02358 a 3.01809,3.01809 0 0 0 -3.01153,-3.01151 z"
     fill="#cacaca" />
  <path
     id="af64f961-e9a2-4c53-a333-5060c7f850d2-99"
     data-name="Path 142"
     d="m 209.2529,104.30132 a 3.41053,3.41053 0 0 0 0,6.82105 h 187.14282 a 3.41053,3.41053 0 0 0 0,-6.82105 z"
     fill="#e4e4e4" />
  <path
     id="baad4cfb-158d-4439-9cc3-22475bf47b22-100"
     data-name="Path 143"
     d="m 209.2529,124.76641 a 3.41054,3.41054 0 0 0 0,6.82106 h 95.54019 a 3.41054,3.41054 0 0 0 0,-6.82106 z"
     fill="#e4e4e4" />
  <path
     id="f3456279-91e5-49ad-aa43-9838b26fb6ca-101"
     data-name="Path 142"
     d="m 45.68413,234.82064 a 3.41054,3.41054 0 0 0 0,6.82106 h 350.8937 a 3.41054,3.41054 0 0 0 0,-6.82106 z"
     fill="#e4e4e4" />
  <path
     id="a3288adf-49f8-485f-8ae9-1e4f1a13d849-102"
     data-name="Path 143"
     d="m 45.68413,255.28574 a 3.41054,3.41054 0 0 0 0,6.82106 h 259.29108 a 3.41054,3.41054 0 0 0 0,-6.82106 z"
     fill="#e4e4e4" />
  <path
     id="e63a5b48-5a7d-40a2-b9b0-6adec326348a-103"
     data-name="Path 142"
     d="m 45.68413,275.28781 a 3.41054,3.41054 0 0 0 0,6.82106 h 350.8937 a 3.41054,3.41054 0 0 0 0,-6.82106 z"
     fill="#e4e4e4" />
  <path
     id="a1c669b4-dfc3-4cfa-a7be-66b71399844d-104"
     data-name="Path 143"
     d="m 45.68413,295.75291 a 3.41054,3.41054 0 0 0 0,6.82106 h 259.29108 a 3.41054,3.41054 0 0 0 0,-6.82106 z"
     fill="#e4e4e4" />
  <path
     id="bfec50d1-ffb1-4de6-a9ef-a1085e40e016-105"
     data-name="Path 142"
     d="m 45.68413,316.28781 a 3.41054,3.41054 0 0 0 0,6.82106 h 350.8937 a 3.41054,3.41054 0 0 0 0,-6.82106 z"
     fill="#e4e4e4" />
  <path
     id="bc9696ec-ec99-41d5-9116-3ad9737a38ac-106"
     data-name="Path 143"
     d="m 45.68413,336.75291 a 3.41054,3.41054 0 0 0 0,6.82106 h 259.29108 a 3.41054,3.41054 0 0 0 0,-6.82106 z"
     fill="#e4e4e4" />
  <path
     d="m 101.2621,166.94416 a 49,49 0 1 1 48.99952,-49 49.05567,49.05567 0 0 1 -48.99952,49 z"
     fill="#7b2cbf"
     id="path16"
     style="fill:#f86e04;fill-opacity:1" />
  <path
     d="m 98.43251,136.45149 a 3.488,3.488 0 0 1 -2.38134,-0.93555 L 79.89394,120.50862 a 3.49994,3.49994 0 0 1 4.76367,-5.12891 l 13.68555,12.71192 27.07666,-27.07618 a 3.5,3.5 0 1 1 4.94922,4.9502 l -29.46094,29.46094 a 3.49275,3.49275 0 0 1 -2.47559,1.0249 z"
     fill="#ffffff"
     id="path44" />
</svg>
