<?xml version="1.0" encoding="UTF-8" standalone="no"?>
<svg
   data-name="Layer 1"
   width="273.07266"
   height="244.48708"
   viewBox="0 0 273.07268 244.48708"
   version="1.1"
   id="svg52"
   sodipodi:docname="email.svg"
   inkscape:version="1.3 (1:1.3+202307231459+0e150ed6c4)"
   xmlns:inkscape="http://www.inkscape.org/namespaces/inkscape"
   xmlns:sodipodi="http://sodipodi.sourceforge.net/DTD/sodipodi-0.dtd"
   xmlns="http://www.w3.org/2000/svg"
   xmlns:svg="http://www.w3.org/2000/svg">
  <defs
     id="defs56" />
  <sodipodi:namedview
     id="namedview54"
     pagecolor="#ffffff"
     bordercolor="#666666"
     borderopacity="1.0"
     inkscape:showpageshadow="2"
     inkscape:pageopacity="0.0"
     inkscape:pagecheckerboard="0"
     inkscape:deskcolor="#d1d1d1"
     showgrid="false"
     inkscape:zoom="0.45394152"
     inkscape:cx="-726.96589"
     inkscape:cy="-350.26538"
     inkscape:window-width="1920"
     inkscape:window-height="1016"
     inkscape:window-x="0"
     inkscape:window-y="0"
     inkscape:window-maximized="1"
     inkscape:current-layer="svg52" />
  <polygon
     points="54.232,247.195 186.402,303.007 321.218,248.065 188.403,154.698 "
     fill="#ffffff"
     id="polygon16"
     transform="translate(-51.39917,-154.56819)" />
  <path
     d="m 3.34472,92.541183 h 0.0957 l 54.85333,23.422597 75.05068,32.04721 a 2.42068,2.42068 0 0 0 1.85411,0.01 l 77.4302,-32.12366 56.20096,-23.317487 0.0859,-0.0382 h 0.0957 a 3.34843,3.34843 0 0 1 3.34472,3.34472 V 241.14282 a 3.34844,3.34844 0 0 1 -3.34472,3.34472 H 3.34472 A 3.34844,3.34844 0 0 1 0,241.14282 V 95.885893 a 3.34843,3.34843 0 0 1 3.34472,-3.34471 z"
     fill="#ffffff"
     id="path20" />
  <path
     d="m 3.10625,93.496803 a 0.47629,0.47629 0 0 0 0.27274,-0.0856 L 135.52366,1.3818926 a 2.39647,2.39647 0 0 1 2.73718,0.005 L 269.45356,93.410593 a 0.47791,0.47791 0 0 0 0.54886,-0.78252 L 138.80954,0.60404261 a 3.3553,3.3553 0 0 0 -3.8321,-0.006 L 2.83284,92.627043 a 0.47791,0.47791 0 0 0 0.27344,0.87 z"
     fill="#3f3d56"
     id="path22" />
  <polygon
     points="62.019,257.929 181.712,328.885 246.695,314.073 313.356,251.327 188.162,158.543 "
     fill="#e6e6e6"
     id="polygon24"
     transform="translate(-51.39917,-154.56819)" />
  <path
     d="m 189.81036,218.14318 h 61.84883 a 2.88954,2.88954 0 0 0 0.009,-5.77907 h -61.85783 a 2.88954,2.88954 0 0 0 -0.009,5.77907 z"
     fill="#7b2cbf"
     id="path26"
     style="fill:#f86e04;fill-opacity:1" />
  <path
     d="m 229.46921,205.71997 h 22.19 a 2.88954,2.88954 0 0 0 0.009,-5.77907 h -22.19854 a 2.88954,2.88954 0 0 0 -0.009,5.77907 z"
     fill="#7b2cbf"
     id="path28"
     style="fill:#f86e04;fill-opacity:1" />
  <path
     d="m 135.00252,148.43847 a 3.61381,3.61381 0 0 0 1.37092,-0.26854 l 77.21089,-32.03709 V 15.851423 a 3.34863,3.34863 0 0 0 -3.34472,-3.34472 H 62.11625 a 3.34863,3.34863 0 0 0 -3.34472,3.34472 V 116.20284 l 0.14512,0.0621 74.67342,31.88939 a 3.63912,3.63912 0 0 0 1.41245,0.28418 z"
     fill="#ffffff"
     id="path30" />
  <path
     d="M 133.49628,148.37383 58.53266,116.36055 V 15.851403 a 3.5877,3.5877 0 0 1 3.58363,-3.58363 h 148.12337 a 3.58769,3.58769 0 0 1 3.58363,3.58363 V 116.2924 l -77.3588,32.0987 a 3.8853,3.8853 0 0 1 -2.96816,-0.0173 z M 212.86766,15.851403 a 2.63112,2.63112 0 0 0 -2.628,-2.628 H 62.11625 a 2.63111,2.63111 0 0 0 -2.628,2.628 v 99.878277 l 74.38131,31.76459 a 2.92338,2.92338 0 0 0 2.23047,0.0133 l 76.7676,-31.85348 z"
     fill="#3f3d56"
     id="path32" />
  <path
     d="M 0.71682,95.885893 V 241.14235 a 3.34844,3.34844 0 0 0 3.34472,3.34472 h 265.66641 a 3.34843,3.34843 0 0 0 3.34472,-3.34472 V 95.885893 a 3.34842,3.34842 0 0 0 -3.34472,-3.34472 h -0.0956 l -0.0859,0.0382 -56.20093,23.317477 -77.4302,32.12366 a 2.42068,2.42068 0 0 1 -1.85411,-0.01 L 59.01053,115.96377 4.15719,92.541183 h -0.0957 a 3.34843,3.34843 0 0 0 -3.34472,3.34471 z m 0.95563,0 a 2.39683,2.39683 0 0 1 2.29343,-2.38908 l 55.04465,23.503827 74.67318,31.88954 a 3.40248,3.40248 0 0 0 2.5993,0.0143 l 77.0625,-31.97554 56.4732,-23.432167 a 2.39438,2.39438 0 0 1 2.29833,2.38909 V 241.14231 a 2.39,2.39 0 0 1 -2.38909,2.38908 H 4.06154 a 2.39,2.39 0 0 1 -2.38909,-2.38908 z"
     fill="#3f3d56"
     id="path34" />
  <path
     d="m 75.08331,49.992183 h 52.5599 a 3.82254,3.82254 0 0 0 0,-7.64508 h -52.5599 a 3.82254,3.82254 0 0 0 0,7.64508 z"
     fill="#7b2cbf"
     id="path36"
     style="fill:#f86e04;fill-opacity:1" />
  <path
     d="m 75.11483,33.746433 h 25.32432 a 3.82254,3.82254 0 0 0 0,-7.64508 H 75.11483 a 3.82254,3.82254 0 0 0 0,7.64508 z"
     fill="#7b2cbf"
     id="path38"
     style="fill:#f86e04;fill-opacity:1" />
  <path
     d="m 96.86716,88.217603 h 80.27331 a 3.82254,3.82254 0 1 0 0,-7.64508 H 96.86716 a 3.82254,3.82254 0 0 0 0,7.64508 z"
     fill="#cccccc"
     id="path40" />
  <path
     d="m 96.86716,105.89684 h 80.27331 a 3.82254,3.82254 0 0 0 0,-7.645077 H 96.86716 a 3.82254,3.82254 0 0 0 0,7.645077 z"
     fill="#cccccc"
     id="path42" />
  <path
     d="m 190.97153,40.819453 c 0.0608,-0.007 6.127,-0.76264 8.71645,-5.20513 1.74447,-2.99275 1.569,-7.02305 -0.52118,-11.97829 l 1.61829,-0.68249 c 2.31931,5.49829 2.45841,10.05961 0.41334,13.5571 -3.04169,5.20219 -9.74316,6.02158 -10.02693,6.05408 z"
     opacity="0.15"
     style="isolation:isolate"
     id="path48" />
</svg>
